<svg width="677" height="565" viewBox="0 0 677 565" fill="none" xmlns="http://www.w3.org/2000/svg">
<path d="M166.518 70.5478C165.992 70.5482 165.486 70.3418 165.107 69.9722C164.728 69.6026 164.506 69.0986 164.487 68.5665V43.8735C164.487 43.3286 164.701 42.806 165.082 42.4207C165.463 42.0353 165.979 41.8188 166.518 41.8188C167.057 41.8188 167.573 42.0353 167.954 42.4207C168.335 42.806 168.549 43.3286 168.549 43.8735V68.5665C168.53 69.0986 168.308 69.6026 167.929 69.9722C167.55 70.3418 167.044 70.5482 166.518 70.5478Z" fill="white"/>
<path d="M178.687 58.2381H154.349C154.068 58.2651 153.783 58.2323 153.515 58.1418C153.247 58.0513 153 57.905 152.791 57.7125C152.581 57.5199 152.414 57.2852 152.3 57.0235C152.185 56.7618 152.126 56.4787 152.126 56.1926C152.126 55.9064 152.185 55.6234 152.3 55.3616C152.414 55.0999 152.581 54.8652 152.791 54.6727C153 54.4801 153.247 54.3339 153.515 54.2434C153.783 54.1528 154.068 54.12 154.349 54.1471H178.687C178.968 54.12 179.253 54.1528 179.521 54.2434C179.789 54.3339 180.036 54.4801 180.245 54.6727C180.455 54.8652 180.622 55.0999 180.736 55.3616C180.851 55.6234 180.91 55.9064 180.91 56.1926C180.91 56.4787 180.851 56.7618 180.736 57.0235C180.622 57.2852 180.455 57.5199 180.245 57.7125C180.036 57.905 179.789 58.0513 179.521 58.1418C179.253 58.2323 178.968 58.2651 178.687 58.2381Z" fill="white"/>
<path d="M601.839 364.589C601.301 364.589 600.784 364.372 600.403 363.987C600.022 363.602 599.808 363.079 599.808 362.534V343.381C599.808 342.836 600.022 342.314 600.403 341.928C600.784 341.543 601.301 341.327 601.839 341.327C602.378 341.327 602.895 341.543 603.276 341.928C603.656 342.314 603.87 342.836 603.87 343.381V362.534C603.87 363.079 603.656 363.602 603.276 363.987C602.895 364.372 602.378 364.589 601.839 364.589Z" fill="white"/>
<path d="M611.306 355.012H592.373C591.834 355.012 591.317 354.796 590.936 354.411C590.556 354.025 590.342 353.503 590.342 352.958C590.342 352.413 590.556 351.89 590.936 351.505C591.317 351.12 591.834 350.903 592.373 350.903H611.306C611.845 350.903 612.361 351.12 612.742 351.505C613.123 351.89 613.337 352.413 613.337 352.958C613.337 353.503 613.123 354.025 612.742 354.411C612.361 354.796 611.845 355.012 611.306 355.012Z" fill="white"/>
<path d="M44.2494 385.099C43.7107 385.099 43.1941 384.882 42.8132 384.497C42.4323 384.112 42.2183 383.589 42.2183 383.044V370.734C42.2183 370.19 42.4323 369.667 42.8132 369.282C43.1941 368.896 43.7107 368.68 44.2494 368.68C44.7881 368.68 45.3048 368.896 45.6857 369.282C46.0666 369.667 46.2806 370.19 46.2806 370.734V383.044C46.2806 383.589 46.0666 384.112 45.6857 384.497C45.3048 384.882 44.7881 385.099 44.2494 385.099Z" fill="white"/>
<path d="M50.2522 378.935H38.0833C37.8017 378.962 37.5176 378.929 37.2492 378.839C36.9808 378.748 36.7341 378.602 36.5248 378.409C36.3156 378.217 36.1484 377.982 36.034 377.72C35.9196 377.459 35.8605 377.176 35.8605 376.889C35.8605 376.603 35.9196 376.32 36.034 376.058C36.1484 375.797 36.3156 375.562 36.5248 375.369C36.7341 375.177 36.9808 375.031 37.2492 374.94C37.5176 374.85 37.8017 374.817 38.0833 374.844H50.2522C50.5338 374.817 50.8179 374.85 51.0863 374.94C51.3547 375.031 51.6014 375.177 51.8107 375.369C52.0199 375.562 52.1871 375.797 52.3015 376.058C52.4159 376.32 52.475 376.603 52.475 376.889C52.475 377.176 52.4159 377.459 52.3015 377.72C52.1871 377.982 52.0199 378.217 51.8107 378.409C51.6014 378.602 51.3547 378.748 51.0863 378.839C50.8179 378.929 50.5338 378.962 50.2522 378.935Z" fill="white"/>
<path d="M92.834 91.7553C92.2985 91.7504 91.7865 91.5318 91.4095 91.147C91.0325 90.7622 90.821 90.2424 90.821 89.7006V77.3908C90.7943 77.1059 90.8267 76.8185 90.9162 76.547C91.0057 76.2755 91.1502 76.0259 91.3406 75.8142C91.531 75.6025 91.763 75.4334 92.0217 75.3177C92.2804 75.2019 92.5602 75.1422 92.8431 75.1422C93.126 75.1422 93.4058 75.2019 93.6645 75.3177C93.9233 75.4334 94.1552 75.6025 94.3456 75.8142C94.536 76.0259 94.6805 76.2755 94.77 76.547C94.8595 76.8185 94.8919 77.1059 94.8652 77.3908V89.7006C94.8652 90.2455 94.6512 90.7681 94.2703 91.1535C93.8894 91.5388 93.3727 91.7553 92.834 91.7553Z" fill="white"/>
<path d="M98.9275 85.5911H86.7587C86.22 85.5911 85.7034 85.3747 85.3225 84.9893C84.9415 84.604 84.7275 84.0814 84.7275 83.5365C84.7275 82.9915 84.9415 82.4689 85.3225 82.0836C85.7034 81.6982 86.22 81.4818 86.7587 81.4818H98.9275C99.4662 81.4818 99.9829 81.6982 100.364 82.0836C100.745 82.4689 100.959 82.9915 100.959 83.5365C100.959 84.0814 100.745 84.604 100.364 84.9893C99.9829 85.3747 99.4662 85.5911 98.9275 85.5911Z" fill="white"/>
<path d="M404.454 428.853C403.918 428.848 403.407 428.629 403.03 428.245C402.653 427.86 402.441 427.34 402.441 426.798V414.488C402.489 413.979 402.722 413.507 403.096 413.162C403.47 412.818 403.958 412.628 404.463 412.628C404.969 412.628 405.456 412.818 405.83 413.162C406.204 413.507 406.437 413.979 406.485 414.488V426.798C406.485 427.343 406.271 427.866 405.89 428.251C405.509 428.636 404.993 428.853 404.454 428.853Z" fill="white"/>
<path d="M410.584 422.634H398.415C397.876 422.634 397.36 422.417 396.979 422.032C396.598 421.647 396.384 421.124 396.384 420.579C396.384 420.034 396.598 419.512 396.979 419.126C397.36 418.741 397.876 418.524 398.415 418.524H410.584C411.122 418.524 411.639 418.741 412.02 419.126C412.401 419.512 412.615 420.034 412.615 420.579C412.615 421.124 412.401 421.647 412.02 422.032C411.639 422.417 411.122 422.634 410.584 422.634Z" fill="white"/>
<path d="M589.67 159.45C588.2 159.45 586.762 159.009 585.54 158.182C584.317 157.356 583.364 156.181 582.801 154.807C582.238 153.432 582.091 151.92 582.378 150.461C582.665 149.002 583.373 147.662 584.413 146.61C585.453 145.558 586.778 144.841 588.22 144.551C589.662 144.261 591.157 144.41 592.516 144.979C593.875 145.548 595.036 146.513 595.853 147.749C596.67 148.986 597.106 150.441 597.106 151.928C597.101 153.922 596.316 155.832 594.923 157.242C593.529 158.651 591.641 159.445 589.67 159.45ZM589.67 148.443C589 148.443 588.344 148.644 587.786 149.021C587.229 149.398 586.794 149.934 586.537 150.56C586.281 151.187 586.213 151.877 586.344 152.543C586.475 153.208 586.798 153.819 587.272 154.299C587.747 154.779 588.351 155.106 589.009 155.238C589.667 155.37 590.349 155.302 590.968 155.043C591.588 154.783 592.118 154.343 592.49 153.779C592.863 153.215 593.062 152.552 593.062 151.873C593.047 150.973 592.684 150.114 592.049 149.483C591.415 148.851 590.561 148.498 589.67 148.498V148.443Z" fill="white"/>
<path d="M431.494 63.705C429.489 63.705 427.529 63.1035 425.862 61.9767C424.195 60.8498 422.895 59.2482 422.128 57.3743C421.361 55.5005 421.16 53.4385 421.551 51.4492C421.942 49.4599 422.908 47.6326 424.325 46.1984C425.743 44.7642 427.55 43.7875 429.516 43.3918C431.483 42.9961 433.521 43.1992 435.373 43.9754C437.226 44.7516 438.809 46.066 439.923 47.7524C441.037 49.4389 441.632 51.4216 441.632 53.4499C441.632 56.1697 440.563 58.7781 438.662 60.7013C436.761 62.6245 434.183 63.705 431.494 63.705ZM431.494 47.3042C430.288 47.3042 429.109 47.6661 428.107 48.3443C427.104 49.0224 426.323 49.9862 425.862 51.1136C425.402 52.241 425.282 53.4813 425.519 54.6775C425.755 55.8737 426.338 56.972 427.192 57.8334C428.046 58.6947 429.133 59.2803 430.316 59.5161C431.499 59.7518 432.725 59.6271 433.838 59.1578C434.951 58.6884 435.902 57.8955 436.569 56.8794C437.237 55.8633 437.591 54.6698 437.587 53.4499C437.587 52.6413 437.43 51.8406 437.123 51.0938C436.817 50.3469 436.368 49.6686 435.802 49.0977C435.235 48.5268 434.564 48.0745 433.824 47.7667C433.085 47.4589 432.293 47.3017 431.494 47.3042Z" fill="white"/>
<path d="M255.744 400.142C253.739 400.142 251.779 399.541 250.112 398.414C248.445 397.287 247.145 395.686 246.378 393.812C245.611 391.938 245.41 389.876 245.801 387.887C246.192 385.897 247.158 384.07 248.576 382.636C249.993 381.202 251.8 380.225 253.766 379.829C255.733 379.433 257.771 379.636 259.624 380.413C261.476 381.189 263.059 382.503 264.173 384.19C265.287 385.876 265.882 387.859 265.882 389.887C265.877 392.606 264.807 395.211 262.907 397.133C261.007 399.055 258.431 400.137 255.744 400.142ZM255.744 383.723C254.539 383.723 253.361 384.085 252.359 384.762C251.357 385.439 250.576 386.402 250.114 387.528C249.653 388.655 249.533 389.894 249.768 391.09C250.003 392.285 250.583 393.384 251.435 394.246C252.287 395.108 253.373 395.695 254.555 395.933C255.737 396.171 256.962 396.049 258.076 395.582C259.189 395.116 260.141 394.325 260.811 393.312C261.48 392.298 261.838 391.106 261.838 389.887C261.838 389.078 261.68 388.276 261.374 387.528C261.067 386.78 260.619 386.101 260.053 385.529C259.487 384.956 258.815 384.502 258.076 384.192C257.337 383.883 256.544 383.723 255.744 383.723Z" fill="white"/>
<g opacity="0.5">
<path d="M166.518 70.5478C165.992 70.5482 165.486 70.3418 165.107 69.9722C164.728 69.6026 164.506 69.0986 164.487 68.5665V43.8735C164.487 43.3286 164.701 42.806 165.082 42.4207C165.463 42.0353 165.979 41.8188 166.518 41.8188C167.057 41.8188 167.573 42.0353 167.954 42.4207C168.335 42.806 168.549 43.3286 168.549 43.8735V68.5665C168.53 69.0986 168.308 69.6026 167.929 69.9722C167.55 70.3418 167.044 70.5482 166.518 70.5478Z" fill="white"/>
<path d="M178.687 58.2381H154.349C154.068 58.2651 153.783 58.2323 153.515 58.1418C153.247 58.0513 153 57.905 152.791 57.7125C152.581 57.5199 152.414 57.2852 152.3 57.0235C152.185 56.7618 152.126 56.4787 152.126 56.1926C152.126 55.9064 152.185 55.6234 152.3 55.3616C152.414 55.0999 152.581 54.8652 152.791 54.6727C153 54.4801 153.247 54.3339 153.515 54.2434C153.783 54.1528 154.068 54.12 154.349 54.1471H178.687C178.968 54.12 179.253 54.1528 179.521 54.2434C179.789 54.3339 180.036 54.4801 180.245 54.6727C180.455 54.8652 180.622 55.0999 180.736 55.3616C180.851 55.6234 180.91 55.9064 180.91 56.1926C180.91 56.4787 180.851 56.7618 180.736 57.0235C180.622 57.2852 180.455 57.5199 180.245 57.7125C180.036 57.905 179.789 58.0513 179.521 58.1418C179.253 58.2323 178.968 58.2651 178.687 58.2381Z" fill="white"/>
<path d="M601.839 364.589C601.301 364.589 600.784 364.372 600.403 363.987C600.022 363.602 599.808 363.079 599.808 362.534V343.381C599.808 342.836 600.022 342.314 600.403 341.928C600.784 341.543 601.301 341.327 601.839 341.327C602.378 341.327 602.895 341.543 603.276 341.928C603.656 342.314 603.87 342.836 603.87 343.381V362.534C603.87 363.079 603.656 363.602 603.276 363.987C602.895 364.372 602.378 364.589 601.839 364.589Z" fill="white"/>
<path d="M611.306 355.012H592.373C591.834 355.012 591.317 354.796 590.936 354.411C590.555 354.025 590.341 353.503 590.341 352.958C590.341 352.413 590.555 351.89 590.936 351.505C591.317 351.12 591.834 350.903 592.373 350.903H611.306C611.845 350.903 612.361 351.12 612.742 351.505C613.123 351.89 613.337 352.413 613.337 352.958C613.337 353.503 613.123 354.025 612.742 354.411C612.361 354.796 611.845 355.012 611.306 355.012Z" fill="white"/>
<path d="M44.2494 385.099C43.7107 385.099 43.194 384.882 42.8131 384.497C42.4322 384.112 42.2182 383.589 42.2182 383.044V370.734C42.2182 370.19 42.4322 369.667 42.8131 369.282C43.194 368.896 43.7107 368.68 44.2494 368.68C44.7881 368.68 45.3047 368.896 45.6856 369.282C46.0665 369.667 46.2805 370.19 46.2805 370.734V383.044C46.2805 383.589 46.0665 384.112 45.6856 384.497C45.3047 384.882 44.7881 385.099 44.2494 385.099Z" fill="white"/>
<path d="M50.2522 378.935H38.0833C37.8017 378.962 37.5176 378.929 37.2492 378.838C36.9808 378.748 36.7341 378.602 36.5248 378.409C36.3156 378.217 36.1484 377.982 36.034 377.72C35.9196 377.458 35.8605 377.175 35.8605 376.889C35.8605 376.603 35.9196 376.32 36.034 376.058C36.1484 375.797 36.3156 375.562 36.5248 375.369C36.7341 375.177 36.9808 375.031 37.2492 374.94C37.5176 374.85 37.8017 374.817 38.0833 374.844H50.2522C50.5338 374.817 50.8179 374.85 51.0863 374.94C51.3547 375.031 51.6014 375.177 51.8107 375.369C52.0199 375.562 52.1871 375.797 52.3015 376.058C52.4159 376.32 52.475 376.603 52.475 376.889C52.475 377.175 52.4159 377.458 52.3015 377.72C52.1871 377.982 52.0199 378.217 51.8107 378.409C51.6014 378.602 51.3547 378.748 51.0863 378.838C50.8179 378.929 50.5338 378.962 50.2522 378.935Z" fill="white"/>
<path d="M92.834 91.7553C92.2985 91.7504 91.7865 91.5318 91.4095 91.147C91.0325 90.7622 90.821 90.2424 90.821 89.7006V77.3908C90.7943 77.1059 90.8267 76.8185 90.9162 76.547C91.0057 76.2755 91.1502 76.0259 91.3406 75.8142C91.5309 75.6025 91.7629 75.4334 92.0217 75.3177C92.2804 75.2019 92.5602 75.1422 92.8431 75.1422C93.126 75.1422 93.4058 75.2019 93.6645 75.3177C93.9232 75.4334 94.1552 75.6025 94.3456 75.8142C94.5359 76.0259 94.6805 76.2755 94.77 76.547C94.8594 76.8185 94.8919 77.1059 94.8652 77.3908V89.7006C94.8652 90.2455 94.6512 90.7681 94.2703 91.1535C93.8894 91.5388 93.3727 91.7553 92.834 91.7553Z" fill="white"/>
<path d="M98.9275 85.5911H86.7587C86.22 85.5911 85.7033 85.3747 85.3224 84.9893C84.9415 84.604 84.7275 84.0814 84.7275 83.5365C84.7275 82.9915 84.9415 82.4689 85.3224 82.0836C85.7033 81.6982 86.22 81.4818 86.7587 81.4818H98.9275C99.4662 81.4818 99.9828 81.6982 100.364 82.0836C100.745 82.4689 100.959 82.9915 100.959 83.5365C100.959 84.0814 100.745 84.604 100.364 84.9893C99.9828 85.3747 99.4662 85.5911 98.9275 85.5911Z" fill="white"/>
<path d="M404.454 428.853C403.918 428.848 403.406 428.629 403.029 428.245C402.652 427.86 402.441 427.34 402.441 426.798V414.488C402.489 413.979 402.722 413.507 403.096 413.162C403.47 412.818 403.958 412.628 404.463 412.628C404.969 412.628 405.456 412.818 405.83 413.162C406.204 413.507 406.437 413.979 406.485 414.488V426.798C406.485 427.343 406.271 427.866 405.89 428.251C405.509 428.636 404.993 428.853 404.454 428.853Z" fill="white"/>
<path d="M410.584 422.634H398.415C397.876 422.634 397.36 422.417 396.979 422.032C396.598 421.647 396.384 421.124 396.384 420.579C396.384 420.034 396.598 419.512 396.979 419.126C397.36 418.741 397.876 418.524 398.415 418.524H410.584C411.122 418.524 411.639 418.741 412.02 419.126C412.401 419.512 412.615 420.034 412.615 420.579C412.615 421.124 412.401 421.647 412.02 422.032C411.639 422.417 411.122 422.634 410.584 422.634Z" fill="white"/>
<path d="M589.67 159.45C588.2 159.45 586.762 159.009 585.54 158.182C584.317 157.356 583.364 156.181 582.801 154.807C582.238 153.432 582.091 151.92 582.378 150.461C582.665 149.002 583.373 147.662 584.413 146.61C585.453 145.558 586.778 144.841 588.22 144.551C589.662 144.261 591.157 144.41 592.516 144.979C593.875 145.548 595.036 146.513 595.853 147.749C596.67 148.986 597.106 150.441 597.106 151.928C597.101 153.922 596.316 155.832 594.923 157.242C593.529 158.651 591.641 159.445 589.67 159.45ZM589.67 148.443C589 148.443 588.344 148.644 587.786 149.021C587.229 149.398 586.794 149.934 586.537 150.56C586.281 151.187 586.213 151.877 586.344 152.543C586.475 153.208 586.798 153.819 587.272 154.299C587.747 154.779 588.351 155.106 589.009 155.238C589.667 155.37 590.349 155.302 590.968 155.043C591.588 154.783 592.118 154.343 592.49 153.779C592.863 153.215 593.062 152.552 593.062 151.873C593.047 150.973 592.684 150.114 592.049 149.483C591.415 148.851 590.561 148.498 589.67 148.498V148.443Z" fill="white"/>
<path d="M431.494 63.705C429.489 63.705 427.529 63.1035 425.862 61.9767C424.195 60.8498 422.895 59.2482 422.128 57.3743C421.361 55.5005 421.16 53.4385 421.551 51.4492C421.942 49.4599 422.908 47.6326 424.325 46.1984C425.743 44.7642 427.55 43.7875 429.516 43.3918C431.483 42.9961 433.521 43.1992 435.373 43.9754C437.226 44.7516 438.809 46.066 439.923 47.7524C441.037 49.4389 441.631 51.4216 441.631 53.4499C441.631 56.1697 440.563 58.7781 438.662 60.7013C436.761 62.6245 434.183 63.705 431.494 63.705ZM431.494 47.3042C430.288 47.3042 429.109 47.6661 428.107 48.3443C427.104 49.0224 426.323 49.9862 425.862 51.1136C425.402 52.241 425.282 53.4813 425.519 54.6775C425.755 55.8737 426.338 56.972 427.192 57.8334C428.046 58.6947 429.133 59.2803 430.316 59.5161C431.499 59.7518 432.725 59.6271 433.838 59.1578C434.951 58.6884 435.902 57.8955 436.569 56.8794C437.237 55.8633 437.591 54.6698 437.587 53.4499C437.587 52.6413 437.43 51.8406 437.123 51.0938C436.817 50.3469 436.368 49.6686 435.801 49.0977C435.235 48.5268 434.564 48.0745 433.824 47.7667C433.085 47.4589 432.293 47.3017 431.494 47.3042Z" fill="white"/>
<path d="M255.744 400.142C253.739 400.142 251.779 399.541 250.112 398.414C248.445 397.287 247.145 395.685 246.378 393.811C245.611 391.938 245.41 389.876 245.801 387.886C246.192 385.897 247.158 384.07 248.576 382.635C249.993 381.201 251.8 380.225 253.766 379.829C255.733 379.433 257.771 379.636 259.624 380.412C261.476 381.189 263.059 382.503 264.173 384.19C265.287 385.876 265.882 387.859 265.882 389.887C265.877 392.605 264.807 395.211 262.907 397.133C261.007 399.055 258.431 400.137 255.744 400.142ZM255.744 383.723C254.539 383.723 253.361 384.084 252.359 384.762C251.357 385.439 250.576 386.402 250.114 387.528C249.653 388.654 249.532 389.894 249.768 391.09C250.003 392.285 250.583 393.384 251.435 394.246C252.287 395.108 253.373 395.695 254.555 395.933C255.737 396.17 256.962 396.048 258.076 395.582C259.189 395.115 260.141 394.325 260.811 393.312C261.48 392.298 261.837 391.106 261.837 389.887C261.837 389.077 261.68 388.276 261.374 387.528C261.067 386.78 260.619 386.101 260.053 385.528C259.487 384.956 258.815 384.502 258.076 384.192C257.337 383.882 256.544 383.723 255.744 383.723Z" fill="white"/>
</g>
<path d="M264.159 38.3883L261.312 29.5275L258.464 38.3883H249.233L256.687 43.8736L253.84 52.7528L261.312 47.2675L268.765 52.7528L265.918 43.8736L273.39 38.3883H264.159Z" fill="white"/>
<path d="M294.953 38.3883L292.087 29.5275L289.24 38.3883H280.009L287.481 43.8736L284.634 52.7528L292.087 47.2675L299.559 52.7528L296.712 43.8736L304.165 38.3883H294.953Z" fill="white"/>
<path d="M325.728 38.3883L322.881 29.5275L320.034 38.3883H310.803L318.257 43.8736L315.409 52.7528L322.881 47.2675L330.335 52.7528L327.488 43.8736L334.959 38.3883H325.728Z" fill="white"/>
<path d="M356.522 38.3883L353.675 29.5275L350.81 38.3883H341.597L349.05 43.8736L346.203 52.7528L353.675 47.2675L361.129 52.7528L358.281 43.8736L365.735 38.3883H356.522Z" fill="white"/>
<path d="M396.529 38.3883H387.298L384.451 29.5275L381.603 38.3883H372.373L379.844 43.8736L376.997 52.7528L384.451 47.2675L391.922 52.7528L389.057 43.8736L396.529 38.3883Z" fill="white"/>
<g opacity="0.5">
<path d="M264.159 38.3883L261.312 29.5275L258.464 38.3883H249.233L256.687 43.8736L253.84 52.7528L261.312 47.2675L268.765 52.7528L265.918 43.8736L273.39 38.3883H264.159Z" fill="white"/>
<path d="M294.953 38.3883L292.087 29.5275L289.24 38.3883H280.009L287.481 43.8736L284.634 52.7528L292.087 47.2675L299.559 52.7528L296.712 43.8736L304.165 38.3883H294.953Z" fill="white"/>
<path d="M325.728 38.3883L322.881 29.5275L320.034 38.3883H310.803L318.257 43.8736L315.409 52.7528L322.881 47.2675L330.335 52.7528L327.487 43.8736L334.959 38.3883H325.728Z" fill="white"/>
<path d="M356.522 38.3883L353.675 29.5275L350.81 38.3883H341.597L349.05 43.8736L346.203 52.7528L353.675 47.2675L361.129 52.7528L358.281 43.8736L365.735 38.3883H356.522Z" fill="white"/>
<path d="M396.529 38.3883H387.298L384.451 29.5275L381.603 38.3883H372.373L379.844 43.8736L376.997 52.7528L384.451 47.2675L391.922 52.7528L389.057 43.8736L396.529 38.3883Z" fill="white"/>
</g>
<path d="M660.852 406.838C653.108 401.463 641.519 400.564 641.519 400.564C652.665 399.107 663.988 400.026 674.762 403.261C674.762 403.261 663.88 395.189 656.209 395.189C648.538 395.189 636.115 394.29 636.115 394.29C640.758 388.915 657.751 382.641 657.751 382.641C651.815 382.611 645.881 382.911 639.978 383.54C634.537 384.439 633.032 390.713 633.032 390.713C633.032 390.713 631.473 387.044 619.884 384.439C608.296 381.834 605.213 390.713 605.213 390.713H616.094C619.957 390.713 625.361 396.088 625.361 396.088C625.361 396.088 613.011 396.088 608.368 398.785C604.378 401.096 599.3 410.691 597.904 413.333C601.08 396.806 605.593 380.57 611.397 364.791L611.705 364.552C615.54 361.883 619.177 358.934 622.586 355.728L635.644 377.743L634.556 359.012C634.556 359.012 645.437 362.332 648.719 365.635C652.002 368.937 661.795 379.944 661.795 379.944C661.795 379.944 657.442 363.433 651.984 357.929C647.219 353.498 642.119 349.45 636.732 345.821C636.732 345.821 648.719 345.821 653.054 348.023C657.388 350.224 670.482 359.03 670.482 359.03C670.482 359.03 661.777 343.62 655.23 340.299C648.683 336.979 631.273 336.997 631.273 336.997C631.273 336.997 638.908 330.393 644.349 330.393H659.6C659.6 330.393 655.23 319.386 638.908 322.688C622.586 325.99 620.392 330.393 620.392 330.393C620.392 330.393 618.197 322.688 610.581 321.569C602.964 320.45 585.536 320.468 585.536 320.468C585.536 320.468 609.492 328.191 616.021 334.796C616.021 334.796 598.593 335.897 587.712 335.897C576.831 335.897 561.579 345.821 561.579 345.821C561.579 345.821 584.447 339.199 608.404 342.519C608.404 342.519 592.082 343.62 581.201 350.224C570.32 356.829 559.439 372.239 559.439 372.239C565.916 366.047 573.763 361.512 582.326 359.012C595.383 355.71 613.899 351.307 613.899 351.307C613.899 351.307 595.383 366.735 593.207 374.44C590.781 381.611 587.873 388.605 584.502 395.373C584.502 395.373 600.116 375.193 608.894 366.937C598.4 396.01 592.459 426.563 591.285 457.49C588.056 444.116 578.59 416.451 553.998 402.601C558.659 403.885 565.387 405.756 570.81 407.334C580.095 410.031 587.041 418.084 587.041 418.084C587.041 418.084 579.315 405.536 571.59 400.161C563.864 394.785 552.275 393.887 552.275 393.887C563.414 392.42 574.734 393.339 585.499 396.583C585.499 396.583 574.618 388.511 566.947 388.511C559.276 388.511 546.853 387.612 546.853 387.612C551.496 382.237 568.506 375.963 568.506 375.963C562.565 375.934 556.626 376.228 550.716 376.844C545.275 377.743 543.77 384.017 543.77 384.017C543.77 384.017 542.228 380.439 530.64 377.743C519.051 375.046 515.95 384.017 515.95 384.017H526.831C530.712 384.017 536.117 389.41 536.117 389.41C536.117 389.41 523.748 389.41 519.106 392.089C514.463 394.767 508.225 407.334 508.225 407.334C508.225 407.334 517.492 400.161 520.593 398.363C523.694 396.565 532.181 396.528 532.181 396.528C528.3 399.512 524.661 402.807 521.3 406.38C517.437 410.856 514.354 424.322 514.354 424.322C514.354 424.322 521.3 415.351 523.621 412.654C525.943 409.957 533.668 407.279 533.668 407.279L532.889 422.524L542.174 404.582C544.568 407.165 547.151 409.563 549.9 411.755C555.34 416.25 569.214 436.87 569.214 436.87C566.806 431.324 564.741 425.632 563.03 419.827C561.76 414.654 552.638 405.151 549.464 402.087C580.965 417.038 589.362 454.683 590.813 463.379H577.756L580.639 489.063H603.635L606.5 463.379H592.989C594.882 451.225 598.69 439.456 604.269 428.523C603.889 430.009 603.653 430.981 603.653 430.981C603.653 430.981 610.617 422.01 612.938 419.332C615.259 416.653 622.985 413.938 622.985 413.938L622.205 429.183L631.472 411.26C633.873 413.837 636.455 416.234 639.198 418.433C644.639 422.909 658.53 443.529 658.53 443.529C656.121 437.99 654.056 432.304 652.346 426.505C650.805 420.212 637.657 407.664 637.657 407.664C637.657 407.664 650.805 411.333 660.072 413.938C669.339 416.543 676.303 424.707 676.303 424.707C676.303 424.707 668.632 412.232 660.852 406.838ZM592.935 455.179C593.511 441.287 595.118 427.458 597.741 413.81C599.192 412.691 607.044 406.673 609.837 405.059C612.938 403.224 621.426 403.224 621.426 403.224C617.545 406.21 613.906 409.504 610.544 413.076C608.597 415.824 607.113 418.88 606.156 422.12C599.91 432.287 595.455 443.472 592.989 455.179H592.935Z" fill="white"/>
<path opacity="0.4" d="M660.852 406.838C653.108 401.463 641.519 400.564 641.519 400.564C652.665 399.107 663.988 400.026 674.762 403.261C674.762 403.261 663.88 395.189 656.209 395.189C648.538 395.189 636.115 394.29 636.115 394.29C640.758 388.915 657.751 382.641 657.751 382.641C651.815 382.611 645.881 382.911 639.978 383.54C634.537 384.439 633.032 390.713 633.032 390.713C633.032 390.713 631.473 387.044 619.884 384.439C608.296 381.834 605.213 390.713 605.213 390.713H616.094C619.957 390.713 625.361 396.088 625.361 396.088C625.361 396.088 613.011 396.088 608.368 398.785C604.378 401.096 599.3 410.691 597.904 413.333C601.08 396.806 605.593 380.57 611.397 364.791L611.705 364.552C615.54 361.883 619.177 358.934 622.586 355.728L635.644 377.743L634.556 359.012C634.556 359.012 645.437 362.332 648.719 365.635C652.002 368.937 661.795 379.944 661.795 379.944C661.795 379.944 657.442 363.433 651.984 357.929C647.219 353.498 642.119 349.45 636.732 345.821C636.732 345.821 648.719 345.821 653.054 348.023C657.388 350.224 670.482 359.03 670.482 359.03C670.482 359.03 661.777 343.62 655.23 340.299C648.683 336.979 631.273 336.997 631.273 336.997C631.273 336.997 638.908 330.393 644.349 330.393H659.6C659.6 330.393 655.23 319.386 638.908 322.688C622.586 325.99 620.392 330.393 620.392 330.393C620.392 330.393 618.197 322.688 610.581 321.569C602.964 320.45 585.536 320.468 585.536 320.468C585.536 320.468 609.492 328.191 616.021 334.796C616.021 334.796 598.593 335.897 587.712 335.897C576.831 335.897 561.579 345.821 561.579 345.821C561.579 345.821 584.447 339.199 608.404 342.519C608.404 342.519 592.082 343.62 581.201 350.224C570.32 356.829 559.439 372.239 559.439 372.239C565.916 366.047 573.763 361.512 582.326 359.012C595.383 355.71 613.899 351.307 613.899 351.307C613.899 351.307 595.383 366.735 593.207 374.44C590.781 381.611 587.873 388.605 584.502 395.373C584.502 395.373 600.116 375.193 608.894 366.937C598.4 396.01 592.459 426.563 591.285 457.49C588.056 444.116 578.59 416.451 553.998 402.601C558.659 403.885 565.387 405.756 570.81 407.334C580.095 410.031 587.041 418.084 587.041 418.084C587.041 418.084 579.315 405.536 571.59 400.161C563.864 394.785 552.275 393.887 552.275 393.887C563.414 392.42 574.734 393.339 585.499 396.583C585.499 396.583 574.618 388.511 566.947 388.511C559.276 388.511 546.853 387.612 546.853 387.612C551.496 382.237 568.506 375.963 568.506 375.963C562.565 375.934 556.626 376.228 550.716 376.844C545.275 377.743 543.77 384.017 543.77 384.017C543.77 384.017 542.228 380.439 530.64 377.743C519.051 375.046 515.95 384.017 515.95 384.017H526.831C530.712 384.017 536.117 389.41 536.117 389.41C536.117 389.41 523.748 389.41 519.106 392.089C514.463 394.767 508.225 407.334 508.225 407.334C508.225 407.334 517.492 400.161 520.593 398.363C523.694 396.565 532.181 396.528 532.181 396.528C528.3 399.512 524.661 402.807 521.3 406.38C517.437 410.856 514.354 424.322 514.354 424.322C514.354 424.322 521.3 415.351 523.621 412.654C525.943 409.957 533.668 407.279 533.668 407.279L532.889 422.524L542.174 404.582C544.568 407.165 547.151 409.563 549.9 411.755C555.34 416.25 569.214 436.87 569.214 436.87C566.806 431.324 564.741 425.632 563.03 419.827C561.76 414.654 552.638 405.151 549.464 402.087C580.965 417.038 589.362 454.683 590.813 463.379H577.756L580.639 489.063H603.635L606.5 463.379H592.989C594.882 451.225 598.69 439.456 604.269 428.523C603.889 430.009 603.653 430.981 603.653 430.981C603.653 430.981 610.617 422.01 612.938 419.332C615.259 416.653 622.985 413.938 622.985 413.938L622.205 429.183L631.472 411.26C633.873 413.837 636.455 416.234 639.198 418.433C644.639 422.909 658.53 443.529 658.53 443.529C656.121 437.99 654.056 432.304 652.346 426.505C650.805 420.212 637.657 407.664 637.657 407.664C637.657 407.664 650.805 411.333 660.072 413.938C669.339 416.543 676.303 424.707 676.303 424.707C676.303 424.707 668.632 412.232 660.852 406.838ZM592.935 455.179C593.511 441.287 595.118 427.458 597.741 413.81C599.192 412.691 607.044 406.673 609.837 405.059C612.938 403.224 621.426 403.224 621.426 403.224C617.545 406.21 613.906 409.504 610.544 413.076C608.597 415.824 607.113 418.88 606.156 422.12C599.91 432.287 595.455 443.472 592.989 455.179H592.935Z" fill="white"/>
<path d="M155.963 406.838C148.219 401.463 136.631 400.564 136.631 400.564C147.776 399.107 159.1 400.026 169.873 403.261C169.873 403.261 158.992 395.189 151.321 395.189C143.649 395.189 131.227 394.29 131.227 394.29C135.869 388.915 152.862 382.641 152.862 382.641C146.926 382.611 140.993 382.911 135.089 383.54C129.649 384.439 128.144 390.713 128.144 390.713C128.144 390.713 126.584 387.044 114.995 384.439C103.407 381.834 100.306 390.713 100.306 390.713H111.187C115.05 390.713 120.454 396.088 120.454 396.088C120.454 396.088 108.104 396.088 103.461 398.785C99.4716 401.096 94.3937 410.691 92.9973 413.333C96.1652 396.804 100.678 380.568 106.49 364.791L106.798 364.552C110.628 361.877 114.265 358.928 117.68 355.728L130.737 377.743L129.649 359.012C129.649 359.012 140.53 362.332 143.813 365.635C147.095 368.937 156.888 379.944 156.888 379.944C156.888 379.944 152.518 363.433 147.077 357.929C142.312 353.498 137.213 349.45 131.825 345.821C131.825 345.821 143.813 345.821 148.147 348.023C152.481 350.224 165.575 359.03 165.575 359.03C165.575 359.03 156.87 343.62 150.323 340.299C143.776 336.979 126.366 336.997 126.366 336.997C126.366 336.997 133.983 330.393 139.442 330.393H154.694C154.694 330.393 150.323 319.386 133.983 322.688C117.643 325.99 115.485 330.393 115.485 330.393C115.485 330.393 113.291 322.688 105.674 321.569C98.057 320.45 80.6289 320.468 80.6289 320.468C80.6289 320.468 104.586 328.191 111.114 334.796C111.114 334.796 93.6864 335.897 82.8052 335.897C71.924 335.897 56.654 345.821 56.654 345.821C56.654 345.821 79.5408 339.199 103.498 342.519C103.498 342.519 87.1758 343.62 76.2946 350.224C65.4134 356.829 54.5322 372.239 54.5322 372.239C61.0096 366.047 68.8567 361.512 77.419 359.012C90.4764 355.71 108.993 351.307 108.993 351.307C108.993 351.307 90.4764 366.735 88.3002 374.44C85.8746 381.611 82.9662 388.605 79.5952 395.373C79.5952 395.373 95.2098 375.193 103.987 366.937C93.4812 396.008 87.5275 426.561 86.3416 457.49C83.1135 444.116 73.6468 416.451 49.0553 402.601C53.7161 403.885 60.4443 405.756 65.8668 407.334C75.1521 410.031 82.1886 418.084 82.1886 418.084C82.1886 418.084 74.4629 405.536 66.7373 400.161C59.0116 394.785 47.4231 393.887 47.4231 393.887C58.5256 392.462 69.8 393.406 80.5201 396.657C80.5201 396.657 69.6389 388.585 61.9676 388.585C54.2964 388.585 41.9099 387.777 41.9099 387.777C46.5526 382.402 63.5454 376.128 63.5454 376.128C57.6099 376.099 51.6771 376.393 45.7728 377.009C40.3684 377.816 38.8088 384.108 38.8088 384.108C38.8088 384.108 37.2673 380.531 25.6607 377.834C14.054 375.137 11.0073 384.108 11.0073 384.108H21.8885C25.7513 384.108 31.1738 389.502 31.1738 389.502C31.1738 389.502 18.8055 389.502 14.1628 392.18C9.52018 394.859 3.28162 407.425 3.28162 407.425C3.28162 407.425 12.5488 400.252 15.6499 398.455C18.7511 396.657 27.2384 396.62 27.2384 396.62C23.3568 399.604 19.718 402.899 16.3572 406.472C12.4944 410.948 9.41136 424.413 9.41136 424.413C9.41136 424.413 16.3572 415.442 18.6785 412.746C20.9999 410.049 28.7255 407.37 28.7255 407.37L27.9276 422.634L37.2129 404.692C39.601 407.281 42.184 409.68 44.9385 411.865C50.3791 416.36 64.2527 436.98 64.2527 436.98C61.8448 431.434 59.7795 425.742 58.0686 419.937C56.7991 414.764 47.677 405.261 44.4852 402.197C76.0044 417.149 84.383 454.793 85.8519 463.489H72.7945L75.678 489.173H98.6736L101.539 463.489H88.0282C89.9208 451.335 93.7293 439.566 99.3084 428.633C98.9275 430.119 98.6918 431.091 98.6918 431.091C98.6918 431.091 105.656 422.12 107.977 419.442C110.298 416.763 118.024 414.048 118.024 414.048L117.244 429.293L126.511 411.37C128.912 413.947 131.494 416.344 134.237 418.543C139.678 423.019 153.569 443.639 153.569 443.639C151.16 438.1 149.095 432.414 147.385 426.615C145.844 420.322 132.696 407.774 132.696 407.774C132.696 407.774 145.844 411.443 155.111 414.048C164.378 416.653 171.433 424.817 171.433 424.817C171.433 424.817 163.689 412.232 155.963 406.838ZM88.0463 455.179C88.6227 441.287 90.2292 427.458 92.8522 413.81C94.303 412.691 102.156 406.673 104.948 405.059C108.05 403.224 116.537 403.224 116.537 403.224C112.657 406.21 109.018 409.504 105.656 413.076C103.708 415.824 102.225 418.88 101.267 422.12C95.0026 432.283 90.5293 443.468 88.0463 455.179Z" fill="white"/>
<path opacity="0.4" d="M155.963 406.838C148.219 401.463 136.631 400.564 136.631 400.564C147.776 399.107 159.1 400.026 169.873 403.261C169.873 403.261 158.992 395.189 151.321 395.189C143.649 395.189 131.227 394.29 131.227 394.29C135.869 388.915 152.862 382.641 152.862 382.641C146.926 382.611 140.993 382.911 135.089 383.54C129.649 384.439 128.144 390.713 128.144 390.713C128.144 390.713 126.584 387.044 114.995 384.439C103.407 381.834 100.306 390.713 100.306 390.713H111.187C115.05 390.713 120.454 396.088 120.454 396.088C120.454 396.088 108.104 396.088 103.461 398.785C99.4716 401.096 94.3937 410.691 92.9973 413.333C96.1652 396.804 100.678 380.568 106.49 364.791L106.798 364.552C110.628 361.877 114.265 358.928 117.68 355.728L130.737 377.743L129.649 359.012C129.649 359.012 140.53 362.332 143.813 365.635C147.095 368.937 156.888 379.944 156.888 379.944C156.888 379.944 152.518 363.433 147.077 357.929C142.312 353.498 137.213 349.45 131.825 345.821C131.825 345.821 143.813 345.821 148.147 348.023C152.481 350.224 165.575 359.03 165.575 359.03C165.575 359.03 156.87 343.62 150.323 340.299C143.776 336.979 126.366 336.997 126.366 336.997C126.366 336.997 133.983 330.393 139.442 330.393H154.694C154.694 330.393 150.323 319.386 133.983 322.688C117.643 325.99 115.485 330.393 115.485 330.393C115.485 330.393 113.291 322.688 105.674 321.569C98.057 320.45 80.6289 320.468 80.6289 320.468C80.6289 320.468 104.586 328.191 111.114 334.796C111.114 334.796 93.6864 335.897 82.8052 335.897C71.924 335.897 56.654 345.821 56.654 345.821C56.654 345.821 79.5408 339.199 103.498 342.519C103.498 342.519 87.1758 343.62 76.2946 350.224C65.4134 356.829 54.5322 372.239 54.5322 372.239C61.0096 366.047 68.8567 361.512 77.419 359.012C90.4764 355.71 108.993 351.307 108.993 351.307C108.993 351.307 90.4764 366.735 88.3002 374.44C85.8746 381.611 82.9662 388.605 79.5952 395.373C79.5952 395.373 95.2098 375.193 103.987 366.937C93.4812 396.008 87.5275 426.561 86.3416 457.49C83.1135 444.116 73.6468 416.451 49.0553 402.601C53.7161 403.885 60.4443 405.756 65.8668 407.334C75.1521 410.031 82.1886 418.084 82.1886 418.084C82.1886 418.084 74.4629 405.536 66.7373 400.161C59.0116 394.785 47.4231 393.887 47.4231 393.887C58.5256 392.462 69.8 393.406 80.5201 396.657C80.5201 396.657 69.6389 388.585 61.9676 388.585C54.2964 388.585 41.9099 387.777 41.9099 387.777C46.5526 382.402 63.5454 376.128 63.5454 376.128C57.6099 376.099 51.6771 376.393 45.7728 377.009C40.3684 377.816 38.8088 384.108 38.8088 384.108C38.8088 384.108 37.2673 380.531 25.6607 377.834C14.054 375.137 11.0073 384.108 11.0073 384.108H21.8885C25.7513 384.108 31.1738 389.502 31.1738 389.502C31.1738 389.502 18.8055 389.502 14.1628 392.18C9.52018 394.859 3.28162 407.425 3.28162 407.425C3.28162 407.425 12.5488 400.252 15.6499 398.455C18.7511 396.657 27.2384 396.62 27.2384 396.62C23.3568 399.604 19.718 402.899 16.3572 406.472C12.4944 410.948 9.41136 424.413 9.41136 424.413C9.41136 424.413 16.3572 415.442 18.6785 412.746C20.9999 410.049 28.7255 407.37 28.7255 407.37L27.9276 422.634L37.2129 404.692C39.601 407.281 42.184 409.68 44.9385 411.865C50.3791 416.36 64.2527 436.98 64.2527 436.98C61.8448 431.434 59.7795 425.742 58.0686 419.937C56.7991 414.764 47.677 405.261 44.4852 402.197C76.0044 417.149 84.383 454.793 85.8519 463.489H72.7945L75.678 489.173H98.6736L101.539 463.489H88.0282C89.9208 451.335 93.7293 439.566 99.3084 428.633C98.9275 430.119 98.6918 431.091 98.6918 431.091C98.6918 431.091 105.656 422.12 107.977 419.442C110.298 416.763 118.024 414.048 118.024 414.048L117.244 429.293L126.511 411.37C128.912 413.947 131.494 416.344 134.237 418.543C139.678 423.019 153.569 443.639 153.569 443.639C151.16 438.1 149.095 432.414 147.385 426.615C145.844 420.322 132.696 407.774 132.696 407.774C132.696 407.774 145.844 411.443 155.111 414.048C164.378 416.653 171.433 424.817 171.433 424.817C171.433 424.817 163.689 412.232 155.963 406.838ZM88.0463 455.179C88.6227 441.287 90.2292 427.458 92.8522 413.81C94.303 412.691 102.156 406.673 104.948 405.059C108.05 403.224 116.537 403.224 116.537 403.224C112.657 406.21 109.018 409.504 105.656 413.076C103.708 415.824 102.225 418.88 101.267 422.12C95.0026 432.283 90.5293 443.468 88.0463 455.179Z" fill="white"/>
<path d="M119.203 540.32C147.578 540.32 170.58 531.137 170.58 519.81C170.58 508.482 147.578 499.299 119.203 499.299C90.8278 499.299 67.8253 508.482 67.8253 519.81C67.8253 531.137 90.8278 540.32 119.203 540.32Z" fill="white"/>
<path opacity="0.5" d="M119.203 540.32C147.578 540.32 170.58 531.137 170.58 519.81C170.58 508.482 147.578 499.299 119.203 499.299C90.8278 499.299 67.8253 508.482 67.8253 519.81C67.8253 531.137 90.8278 540.32 119.203 540.32Z" fill="white"/>
<path d="M82.4424 188.179C80.0423 189.664 78.0278 191.709 76.5666 194.141C74.608 197.81 63.1645 231.144 59.5737 238.739C55.9829 246.334 54.3508 248.976 58.9209 251.581C63.491 254.186 69.385 250.26 73.3022 242.995C77.2194 235.73 84.4011 215.569 85.7068 210.946C87.0125 206.322 91.5827 188.839 82.4424 188.179Z" fill="white" stroke="#263238" stroke-linecap="round" stroke-linejoin="round"/>
<path d="M153.152 488.035L155.854 507.61L154.041 508.509L148.655 498.052L153.152 488.035Z" fill="#263238" stroke="#263238" stroke-linecap="round" stroke-linejoin="round"/>
<path d="M97.3678 369.744C97.3678 369.744 103.226 397.941 109.065 416.139C114.905 434.338 133.802 476.679 135.162 484.017C136.522 491.356 134.709 491.356 134.709 497.208C134.709 503.06 126.62 509.499 126.167 512.673C125.713 515.847 132.006 516.342 137.864 514.508C143.722 512.673 147.748 507.683 147.748 503.5C147.748 499.318 153.188 492.126 153.188 488.035C153.188 483.944 146.442 483.485 145.934 475.744C145.427 468.002 142.779 440.264 138.281 423.881C133.784 407.499 129.214 398.858 125.695 394.308C122.177 389.759 117.607 379.283 118.441 375.651C119.275 372.018 97.3678 369.744 97.3678 369.744Z" fill="white" stroke="#263238" stroke-linecap="round" stroke-linejoin="round"/>
<path d="M147.748 503.5C147.748 499.409 153.188 492.126 153.188 488.035C153.188 486.311 151.992 485.228 150.559 483.981C148.564 489.393 144.502 498.767 138.336 503.959C134.509 507.206 131.988 507.151 130.392 506.216C128.397 508.802 126.421 511.077 126.203 512.6C125.75 515.792 132.043 516.269 137.9 514.434C143.758 512.6 147.748 507.61 147.748 503.5Z" fill="#263238" stroke="#263238" stroke-linecap="round" stroke-linejoin="round"/>
<path d="M107.723 376.11C107.723 376.11 105.91 391.116 105.91 400.674C105.91 410.232 100.469 473.249 98.6554 485.302C96.9688 497.006 93.7045 502.143 91.9091 508.509C90.1136 514.875 88.282 521.718 85.1627 523.534C82.0434 525.35 85.1627 527.203 90.6033 526.708C96.0439 526.212 101.485 523.534 101.847 518.525C102.21 513.517 106.581 509.114 109.5 507.151C114.941 503.482 108.158 492.585 115.793 468.919C119.167 458.536 127.491 444.813 129.286 428.89C131.081 412.966 127.944 398.399 127.944 394.767C127.944 391.135 131.1 377.467 131.1 377.467L107.723 376.11Z" fill="white" stroke="#263238" stroke-linecap="round" stroke-linejoin="round"/>
<path d="M110.897 507.922C116.736 505.665 112.493 500.583 112.003 495.08C107.306 499.685 101.031 511.591 97.3679 515.26C96.3293 516.278 95.0274 516.978 93.6123 517.28C92.1973 517.582 90.7267 517.473 89.3701 516.966C88.2458 520.011 86.94 522.47 85.2353 523.46C82.0797 525.295 85.2353 527.129 90.6759 526.634C96.1165 526.139 101.557 523.46 101.92 518.452C102.283 513.444 107.614 509.187 110.897 507.922Z" fill="#263238" stroke="#263238" stroke-linecap="round" stroke-linejoin="round"/>
<path d="M111.767 503.5L113.164 523.534H109.537L106.381 509.885C106.381 509.885 109.537 503.06 111.767 503.5Z" fill="#263238" stroke="#263238" stroke-linecap="round" stroke-linejoin="round"/>
<path d="M103.661 184.877L89.9505 190.16C89.9505 190.16 82.4424 208.34 79.8309 221.549C77.2194 234.758 80.8102 248.315 83.458 256.571C86.1058 264.826 89.3339 312.414 90.7121 330.576C92.0904 348.738 94.5206 374.935 94.5206 374.935C94.5206 374.935 100.396 379.577 112.166 381.888C123.936 384.2 140.584 380.568 140.584 380.568C140.584 380.568 150.378 351.82 152.336 334.961C154.295 318.101 137.955 290.693 132.732 278.805C127.509 266.917 125.478 247.746 126.529 242.114C127.581 236.482 139.913 193.884 135.597 191.885C131.281 189.885 116.084 184.143 103.661 184.877Z" fill="#263238" stroke="#263238" stroke-linecap="round" stroke-linejoin="round"/>
<path d="M103.661 173.319C103.661 173.319 102.355 182.492 101.376 186.528C100.396 190.564 92.8884 204.378 95.8263 210.377C98.7643 216.376 108.521 216.321 112.819 206.084C115.461 199.018 116.694 191.492 116.446 183.941L118.078 174.035C118.078 174.035 107.596 177.612 103.661 173.319Z" fill="white" stroke="#263238" stroke-linecap="round" stroke-linejoin="round"/>
<path d="M143.522 158.789C142.751 157.467 141.563 156.445 140.149 155.886C138.736 155.327 137.177 155.264 135.724 155.707C141.636 150.772 145.372 142.774 139.587 131.363C132.333 117.145 115.431 120.466 115.431 120.466C112.247 120.32 109.082 121.039 106.266 122.549C103.45 124.059 101.085 126.304 99.4171 129.051C93.5413 138.628 96.8057 151.837 101.702 155.487C106.236 158.826 120.454 162.44 129.05 159.615C124.027 164.88 120.781 172.457 125.423 179.061C126.339 180.519 127.582 181.738 129.05 182.621C130.518 183.503 132.171 184.023 133.875 184.139C135.579 184.255 137.286 183.964 138.858 183.289C140.43 182.614 141.823 181.574 142.924 180.254C148.745 173.319 147.113 165.064 143.522 158.789Z" fill="#263238" stroke="#263238" stroke-linecap="round" stroke-linejoin="round"/>
<path d="M102.863 156.221C102.863 156.221 98.9275 149.653 97.93 154.185C96.9326 158.716 98.8187 162.128 100.124 162.972C100.887 163.469 101.806 163.659 102.7 163.504" fill="white"/>
<path d="M102.863 156.221C102.863 156.221 98.9275 149.653 97.93 154.185C96.9326 158.716 98.8187 162.128 100.124 162.972C100.887 163.469 101.806 163.659 102.7 163.504" stroke="#263238" stroke-linecap="round" stroke-linejoin="round"/>
<path d="M102.663 144.535C102.663 144.535 96.7694 168.989 104.948 177.557C113.127 186.124 122.25 172.273 129.758 161.706L132.043 154.772C130.193 151.33 128.121 148.014 125.84 144.847C123.485 141.741 121.613 138.289 120.291 134.61C120.291 134.61 111.804 145.617 102.663 144.535Z" fill="white" stroke="#263238" stroke-linecap="round" stroke-linejoin="round"/>
<path d="M127.781 161.853C127.781 161.853 134.582 158.423 133.022 162.789C131.462 167.155 128.089 169.045 126.548 169.045C125.635 169.047 124.752 168.715 124.063 168.109" fill="white"/>
<path d="M127.781 161.853C127.781 161.853 134.582 158.423 133.022 162.789C131.462 167.155 128.089 169.045 126.548 169.045C125.635 169.047 124.752 168.715 124.063 168.109" stroke="#263238" stroke-linecap="round" stroke-linejoin="round"/>
<path d="M116.356 153.414C117.62 152.4 119.172 151.822 120.784 151.766C122.397 151.71 123.984 152.178 125.314 153.102" stroke="#263238" stroke-width="0.5" stroke-miterlimit="10"/>
<path d="M111.713 149.984C111.713 149.984 108.322 146.315 104.622 147.801" stroke="#263238" stroke-width="0.5" stroke-miterlimit="10"/>
<path d="M110.48 165.596L112.638 166.55" stroke="#263238" stroke-width="0.5" stroke-miterlimit="10"/>
<path d="M107.088 169.045C108.279 169.781 109.602 170.271 110.981 170.485C112.361 170.699 113.768 170.634 115.122 170.292" stroke="#263238" stroke-width="0.5" stroke-miterlimit="10"/>
<path d="M111.931 157.047C111.61 158.109 110.98 159.048 110.122 159.741C109.265 160.435 108.22 160.849 107.125 160.93C106.03 161.012 104.937 160.756 103.988 160.197C103.04 159.638 102.28 158.802 101.81 157.799C101.34 156.795 101.181 155.671 101.354 154.575C101.527 153.478 102.023 152.46 102.779 151.654C103.534 150.849 104.513 150.293 105.586 150.06C106.66 149.827 107.778 149.929 108.793 150.35C110.086 150.819 111.142 151.787 111.73 153.042C112.318 154.298 112.39 155.738 111.931 157.047V157.047Z" stroke="#263238" stroke-width="0.5" stroke-miterlimit="10"/>
<path d="M124.589 160.496C124.267 161.558 123.636 162.497 122.777 163.189C121.917 163.881 120.871 164.294 119.776 164.373C118.681 164.453 117.587 164.195 116.639 163.634C115.691 163.073 114.934 162.235 114.465 161.23C113.997 160.225 113.841 159.1 114.016 158.004C114.192 156.907 114.692 155.89 115.45 155.086C116.207 154.282 117.188 153.729 118.263 153.499C119.337 153.269 120.455 153.374 121.47 153.799C122.759 154.272 123.811 155.241 124.396 156.496C124.98 157.751 125.05 159.189 124.589 160.496V160.496Z" stroke="#263238" stroke-width="0.5" stroke-miterlimit="10"/>
<path d="M112.021 155.597L114.596 156.35" stroke="#263238" stroke-width="0.5" stroke-miterlimit="10"/>
<path d="M124.698 159.358L129.939 159.982" stroke="#263238" stroke-width="0.5" stroke-miterlimit="10"/>
<path d="M101.376 186.528C96.1959 197.273 92.2412 208.579 89.5878 220.228C86.3234 236.739 86.6498 267.486 87.3027 279.374C87.9556 291.262 87.3027 325.238 87.3027 325.238L72.2866 318.633C72.2866 318.633 72.9395 297.151 75.551 283.282C77.692 270.406 78.5667 257.348 78.1625 244.298C77.836 236.703 74.5354 225.787 76.5303 215.55C78.5252 205.313 81.4268 189.114 82.4062 188.032C83.3855 186.95 101.376 186.528 101.376 186.528Z" fill="white" stroke="#263238" stroke-linecap="round" stroke-linejoin="round"/>
<path d="M116.41 185.867C116.41 185.867 110.534 209.331 106.943 230.814C103.352 252.296 112.166 324.375 112.166 324.375C118.52 324.014 124.844 323.242 131.1 322.064C145.481 319.752 152.336 315.46 152.336 315.46C152.336 315.46 143.849 293.647 138.281 282.438C132.714 271.229 128.488 262.258 128.488 262.258C127.42 253.669 127.974 244.954 130.12 236.574C133.747 223.017 143.522 195.278 139.587 191.958C135.652 188.637 116.41 185.867 116.41 185.867Z" fill="white" stroke="#263238" stroke-linecap="round" stroke-linejoin="round"/>
<path d="M130.12 202.727C130.12 202.727 126.493 219.238 125.224 226.833C123.954 234.428 121.307 245.673 121.307 245.673C121.307 245.673 98.4378 246.664 92.8884 246.334C87.339 246.004 81.4631 246.004 81.4631 246.004L83.4218 256.571C83.4218 256.571 101.702 263.175 113.146 265.156C124.589 267.138 130.773 270.128 132.732 266.496C134.69 262.863 141.237 225.512 143.613 211.312C145.989 197.113 147.53 193.811 137.719 191.132" stroke="#263238" stroke-linecap="round" stroke-linejoin="round"/>
<path d="M107.596 237.088C107.596 237.088 120.001 235.437 120.98 235.106C121.959 234.776 134.69 240.39 134.69 240.39C134.69 240.39 134.038 242.041 133.058 242.371C132.079 242.702 124.244 238.702 124.244 238.702L122.939 239.032L132.732 245.637C132.732 245.637 134.038 247.288 132.732 247.948C131.426 248.609 120.98 241.674 120.98 241.674L130.048 250.59C129.514 250.96 128.882 251.158 128.234 251.158C127.587 251.158 126.955 250.96 126.421 250.59C124.788 249.269 121.198 245.637 121.198 245.637C121.198 245.637 125.115 250.26 123.156 250.59C121.198 250.92 117.607 245.307 117.607 245.307L111.731 244.316L105.529 243.655L107.596 237.088Z" fill="white" stroke="#263238" stroke-linecap="round" stroke-linejoin="round"/>
<path d="M88.6629 237.345C88.6629 237.345 80.4294 227.805 79.9216 226.906C79.4138 226.007 66.175 221.696 66.175 221.696C65.8803 222.532 65.8803 223.446 66.175 224.283C66.701 225.182 75.2427 227.456 75.2427 227.456L76.0044 228.576L64.3252 226.979C64.3252 226.979 62.2759 227.346 62.82 228.704C63.364 230.061 75.7505 231.859 75.7505 231.859L63.0558 232.446C63.2173 233.074 63.5611 233.639 64.0427 234.067C64.5243 234.495 65.1217 234.768 65.7579 234.85C67.8435 234.941 72.9033 234.63 72.9033 234.63C72.9033 234.63 66.9367 235.473 68.2062 237.033C69.4757 238.592 75.8231 236.776 75.8231 236.776L80.8828 239.968L85.9607 243.637L88.6629 237.345Z" fill="white" stroke="#263238" stroke-linecap="round" stroke-linejoin="round"/>
<path d="M65.4496 235.767C65.4496 235.767 97.4585 236.758 101.72 236.758C103.691 236.699 105.662 236.81 107.614 237.088L105.329 253.268C97.2985 254.095 89.2254 254.426 81.1548 254.259C63.8355 254.259 56.0011 255.25 56.6539 248.645C57.3068 242.041 65.4496 235.767 65.4496 235.767Z" fill="white" stroke="#263238" stroke-linecap="round" stroke-linejoin="round"/>
<path d="M211.131 553.987C239.506 553.987 262.508 544.804 262.508 533.477C262.508 522.149 239.506 512.967 211.131 512.967C182.756 512.967 159.754 522.149 159.754 533.477C159.754 544.804 182.756 553.987 211.131 553.987Z" fill="white"/>
<path opacity="0.5" d="M211.131 553.987C239.506 553.987 262.508 544.804 262.508 533.477C262.508 522.149 239.506 512.967 211.131 512.967C182.756 512.967 159.754 522.149 159.754 533.477C159.754 544.804 182.756 553.987 211.131 553.987Z" fill="white"/>
<path d="M199.216 114.43C199.216 114.43 188.552 115.109 181.697 128.189C174.842 141.27 178.07 164.88 180.537 172.218C183.003 179.557 194.265 214.321 200.739 238.629C207.214 262.937 218.875 284.584 239.749 283.814C260.622 283.043 288.714 273.228 279.646 237.638C270.579 202.048 250.884 187.408 247.003 178.327C243.122 169.246 242.288 159.854 240.565 140.096C238.842 120.337 225.476 109.422 212.092 105.478C198.708 101.533 199.216 114.43 199.216 114.43Z" fill="#263238" stroke="#263238" stroke-linecap="round" stroke-linejoin="round"/>
<path d="M238.497 171.503C241.907 174.695 243.249 174.787 243.249 174.787" stroke="white" stroke-width="0.5" stroke-linecap="round" stroke-linejoin="round"/>
<path d="M208.338 116.907C208.338 116.907 208.628 131.088 223.499 152.791C227.228 158.382 231.33 163.708 235.777 168.733" stroke="white" stroke-width="0.5" stroke-linecap="round" stroke-linejoin="round"/>
<path d="M211.766 126.446C211.766 126.446 225.222 158.276 240.674 167.247" stroke="white" stroke-width="0.5" stroke-linecap="round" stroke-linejoin="round"/>
<path d="M251.827 207.185C251.827 207.185 273.843 232.868 274.133 251.214C274.423 269.559 262.98 277.264 261.837 277.264" stroke="white" stroke-width="0.5" stroke-linecap="round" stroke-linejoin="round"/>
<path d="M262.889 211.001C269.001 222.962 275.765 239.436 274.133 251.177" stroke="white" stroke-width="0.5" stroke-linecap="round" stroke-linejoin="round"/>
<path d="M254.112 195.609C254.112 195.609 256.288 198.948 259.226 204.158" stroke="white" stroke-width="0.5" stroke-linecap="round" stroke-linejoin="round"/>
<path d="M188.027 142.664C188.027 142.664 179.63 159.964 180.537 172.145" stroke="white" stroke-width="0.5" stroke-linecap="round" stroke-linejoin="round"/>
<path d="M184.019 152.791C184.019 152.791 183.747 163.486 186.884 169.301" stroke="white" stroke-width="0.5" stroke-linecap="round" stroke-linejoin="round"/>
<path d="M259.806 316.542C259.806 316.542 255.744 325.715 255.744 328.338C255.744 330.962 256.252 342.189 257.775 340.134C259.299 338.08 257.775 330.393 259.806 329.879C261.837 329.365 263.433 330.906 261.33 337.052C259.226 343.198 257.703 349.362 261.837 346.225C265.972 343.088 265.882 339.034 267.405 329.806C268.331 324.354 268.159 318.769 266.897 313.387L259.806 316.542Z" fill="white" stroke="#263238" stroke-linecap="round" stroke-linejoin="round"/>
<path d="M246.622 181.153L254.728 256.534L269.436 313.974L256.741 319.624C256.741 319.624 240.021 272.44 235.958 263.725C231.896 255.011 230.373 247.82 230.373 244.224C230.373 240.629 246.622 181.153 246.622 181.153Z" fill="white" stroke="#263238" stroke-linecap="round" stroke-linejoin="round"/>
<path d="M173.119 391.447C173.119 391.447 175.132 401.702 175.64 406.82C176.148 411.938 174.624 430.412 177.163 447.859C179.702 465.305 192.959 516.563 192.959 516.563C192.959 516.563 179.775 528.34 179.775 533.991C179.775 539.641 183.837 538.614 190.42 534.504C197.004 530.395 203.605 521.167 204.113 515.022C204.62 508.876 199.035 472.955 201.066 457.068C203.097 441.181 200.05 413.479 200.05 402.197V390.915L173.119 391.447Z" fill="white" stroke="#263238" stroke-linecap="round" stroke-linejoin="round"/>
<path d="M187.809 528.34C185.995 527.46 187.029 523.937 188.154 521.167C184.381 525.093 179.702 530.633 179.702 534.009C179.702 539.641 183.765 538.632 190.348 534.523C195.777 530.853 200.081 525.718 202.771 519.699C197.094 525.955 190.13 529.514 187.809 528.34Z" fill="#263238" stroke="#263238" stroke-linecap="round" stroke-linejoin="round"/>
<path d="M197.947 395.005C197.947 395.005 197.439 413.479 199.47 421.166C201.501 428.853 214.178 468.351 216.209 480.147C218.372 492.518 219.723 505.02 220.253 517.571C220.253 525.79 227.87 544.246 232.948 545.273C238.026 546.3 241.072 546.3 239.549 538.1C238.026 529.9 228.396 517.058 228.396 517.058C228.396 517.058 233.437 464.828 231.406 448.317C229.375 431.806 223.789 415.516 223.789 413.993C223.789 412.47 226.328 393.464 226.328 393.464L197.947 395.005Z" fill="white" stroke="#263238" stroke-linecap="round" stroke-linejoin="round"/>
<path d="M235.777 528.67C235.16 531.257 233.963 533.477 231.914 533.477C226.854 533.477 221.776 524.763 221.776 524.763L221.523 525.203C223.898 533.917 229.121 544.503 232.93 545.273C238.008 546.3 241.054 546.3 239.531 538.1C238.74 534.789 237.475 531.612 235.777 528.67Z" fill="#263238" stroke="#263238" stroke-linecap="round" stroke-linejoin="round"/>
<path d="M195.426 171.925C195.426 171.925 159.427 179.612 158.919 181.666C158.411 183.721 170.58 247.82 170.58 250.388C170.58 252.957 156.38 286.29 155.365 306.801C154.349 327.311 161.966 395.519 161.966 395.519C161.966 395.519 177.163 402.197 191.871 402.197C206.579 402.197 231.406 398.528 231.406 398.528C231.406 398.528 243.575 359.03 244.591 325.696C245.606 292.363 230.899 250.829 230.899 250.829C230.899 250.829 246.622 183.648 246.622 181.116C246.622 178.584 213.162 169.87 195.426 171.925Z" fill="#263238" stroke="#263238" stroke-linecap="round" stroke-linejoin="round"/>
<path d="M230.899 250.902C230.899 250.902 246.622 183.721 246.622 181.189C246.622 178.658 213.162 169.907 195.426 172.017C195.426 172.017 159.427 179.703 158.919 181.758C158.411 183.813 170.58 247.912 170.58 250.48C170.58 252.315 163.326 269.761 158.865 287.061C165.51 290.61 172.491 293.474 179.702 295.61C195.426 300.233 201.465 293.555 201.465 293.555C201.465 293.555 199.941 297.224 209.064 298.178C217.152 299.077 230.826 298.765 241.562 292.271C239.006 278.238 235.442 264.411 230.899 250.902Z" fill="white" stroke="#263238" stroke-linecap="round" stroke-linejoin="round"/>
<path d="M202.335 277.558C201.61 282.585 201.066 285.923 201.066 285.923" stroke="#263238" stroke-linecap="round" stroke-linejoin="round"/>
<path d="M205.128 209.827C206.386 222.013 206.713 234.28 206.107 246.517C205.618 252.682 204.747 260.001 203.859 266.697" stroke="#263238" stroke-linecap="round" stroke-linejoin="round"/>
<path d="M199.688 167.962C199.688 167.962 189.913 171.264 185.56 175.117C181.208 178.97 174.153 185.556 174.153 185.556L192.089 186.656L205.128 209.827L214.359 187.298H225.24C228.273 187.331 231.254 188.086 233.945 189.5C233.945 189.5 221.45 172.457 214.377 169.155C209.732 167.18 204.584 166.762 199.688 167.962Z" fill="white" stroke="#263238" stroke-linecap="round" stroke-linejoin="round"/>
<path d="M193.721 161.376C193.721 161.376 195.353 184.455 199.688 190.509C204.022 196.563 210.007 180.621 210.007 173.466C210.007 166.311 210.551 156.423 210.551 156.423L193.721 161.376Z" fill="white" stroke="#263238" stroke-linecap="round" stroke-linejoin="round"/>
<path d="M158.919 181.666C158.919 181.666 137.157 255.048 137.157 260.13C137.157 265.211 143.232 270.898 149.326 267.303C155.419 263.707 167.57 229.364 167.57 229.364L158.919 181.666Z" fill="white" stroke="#263238" stroke-linecap="round" stroke-linejoin="round"/>
<path d="M130.519 228.337L154.857 276.035L188.317 279.613L168.549 221.678L130.519 228.337Z" fill="white" stroke="#263238" stroke-linecap="round" stroke-linejoin="round"/>
<path d="M159.935 258.589L169.003 241.674L179.648 238.005L181.171 240.06L175.078 243.729C175.078 243.729 182.695 244.224 184.726 244.224C186.757 244.224 186.231 247.306 186.231 247.306L185.234 249.361C185.234 249.361 186.231 256.02 186.231 258.075C186.231 260.13 163.925 266.789 163.925 266.789L159.935 258.589Z" fill="white" stroke="#263238" stroke-linecap="round" stroke-linejoin="round"/>
<path d="M160.842 253.525L167.715 272.311C167.715 272.311 154.803 278.42 145.517 278.42C136.232 278.42 131.408 266.184 135.035 260.075C138.662 253.966 160.842 253.525 160.842 253.525Z" fill="white" stroke="#263238" stroke-linecap="round" stroke-linejoin="round"/>
<path d="M202.898 120.117L185.977 140.774C185.977 140.774 185.397 156.57 193.123 168.714C203.732 185.445 217.551 152.203 217.551 152.203L202.898 120.117Z" fill="white" stroke="#263238" stroke-linecap="round" stroke-linejoin="round"/>
<path d="M196.006 145.801C196.187 147.287 195.734 148.571 195.009 148.663C194.283 148.754 193.54 147.617 193.358 146.149C193.177 144.682 193.612 143.379 194.356 143.288C195.099 143.196 195.825 144.333 196.006 145.801Z" fill="#263238"/>
<path d="M205.654 146.59C205.654 148.076 205.038 149.287 204.294 149.287C203.55 149.287 202.988 148.057 202.988 146.571C202.988 145.085 203.605 143.875 204.33 143.875C205.056 143.875 205.654 145.104 205.654 146.59Z" fill="#263238"/>
<path d="M195.408 159.67C198.104 160.537 201.011 160.46 203.659 159.45" stroke="#263238" stroke-width="0.5" stroke-linecap="round" stroke-linejoin="round"/>
<path d="M201.338 140.114C202.306 139.354 203.511 138.969 204.735 139.03C205.959 139.09 207.121 139.592 208.012 140.444" stroke="#263238" stroke-width="0.5" stroke-linecap="round" stroke-linejoin="round"/>
<path d="M196.333 140.866C196.019 140.415 195.61 140.042 195.134 139.773C194.659 139.505 194.13 139.348 193.586 139.315C193.043 139.281 192.499 139.372 191.995 139.58C191.491 139.788 191.039 140.109 190.674 140.517" stroke="#263238" stroke-width="0.5" stroke-linecap="round" stroke-linejoin="round"/>
<path d="M198.001 144.26C198.413 145.831 198.299 147.495 197.675 148.993C196.677 152.057 195.335 153.744 196.333 154.497C197.272 154.952 198.302 155.184 199.343 155.175" stroke="#263238" stroke-width="0.5" stroke-linecap="round" stroke-linejoin="round"/>
<path d="M523.422 537.568C562.244 537.568 593.715 528.385 593.715 517.058C593.715 505.73 562.244 496.548 523.422 496.548C484.6 496.548 453.129 505.73 453.129 517.058C453.129 528.385 484.6 537.568 523.422 537.568Z" fill="white"/>
<path opacity="0.5" d="M523.422 537.568C562.244 537.568 593.715 528.385 593.715 517.058C593.715 505.73 562.244 496.548 523.422 496.548C484.6 496.548 453.129 505.73 453.129 517.058C453.129 528.385 484.6 537.568 523.422 537.568Z" fill="white"/>
<path d="M515.007 148.681C515.007 148.681 511.525 144.15 509.857 146.094C508.188 148.039 513.484 160.074 515.751 159.046C518.018 158.019 515.007 148.681 515.007 148.681Z" fill="white" stroke="#263238" stroke-linecap="round" stroke-linejoin="round"/>
<path d="M542.845 149.287C542.845 149.287 546.146 144.884 547.887 146.902C549.628 148.92 544.894 160.752 542.537 159.633C540.179 158.514 542.845 149.287 542.845 149.287Z" fill="white" stroke="#263238" stroke-linecap="round" stroke-linejoin="round"/>
<path d="M519.069 178.107C519.069 178.107 513.139 180.712 512.468 185.299C511.797 189.885 514.282 288.033 514.282 288.033L554.959 290.253L553.146 184.033C548.275 180.551 542.7 178.207 536.824 177.172C530.901 176.338 524.875 176.656 519.069 178.107Z" fill="white" stroke="#263238" stroke-linecap="round" stroke-linejoin="round"/>
<path d="M498.522 284.162L560.817 286.419C560.817 286.419 566.457 333.181 569.141 363.763C571.825 394.345 575.851 422.615 575.434 443.878C575.017 465.14 575.525 496.97 575.634 498.089C575.743 499.208 582.235 503.849 586.352 507.426C590.468 511.004 599.173 514.398 596.29 516.434C593.406 518.47 589.67 519.021 583.087 517.828C576.504 516.636 568.869 512.086 566.874 511.041L564.861 509.995L564.752 513.04L557.244 509.995C557.244 509.995 555.975 508.546 554.959 501.372C553.944 494.199 552.366 471.928 551.55 462.48C550.734 453.032 542.083 385.191 538.855 369.432C535.627 353.673 528.971 326.284 528.971 326.284C528.971 326.284 503.582 415.149 500.426 426.303C497.271 437.457 483.851 497.648 483.633 499.556C483.415 501.464 480.006 505.812 480.097 506.894C480.187 507.977 476.723 511.995 473.985 515.535C471.246 519.076 459.731 522.305 456.684 522.451C453.637 522.598 452.331 516.214 458.389 511.444C462.479 508.087 466.361 504.478 470.013 500.639C470.013 500.639 472.879 455.362 472.752 440.961C472.625 426.56 481.04 379.118 482.599 375.248C484.159 371.377 492.828 318.23 492.828 318.23L498.522 284.162Z" fill="#263238" stroke="#263238" stroke-linecap="round" stroke-linejoin="round"/>
<path d="M518.689 189.298C518.689 189.298 525.29 230.062 526.052 234.373C526.813 238.684 516.585 323.954 516.585 323.954C511.323 324.727 505.952 324.147 500.97 322.266C491.903 319.129 483.706 315.698 483.706 315.698L501.007 261.689L485.374 189.371C489.479 187.013 493.851 185.165 498.395 183.868C505.098 181.907 511.936 180.453 518.852 179.52L518.689 189.298Z" fill="white" stroke="#263238" stroke-linecap="round" stroke-linejoin="round"/>
<path d="M525.29 197.425L529.733 203.846L523.875 281.135L533.07 291.739L537.568 281.484L533.215 204.983L537.785 196.636L531.293 186.803L525.29 197.425Z" fill="#263238" stroke="#263238" stroke-linecap="round" stroke-linejoin="round"/>
<path d="M542.392 178.346C542.392 178.346 538.021 211.092 538.13 213.661C538.239 216.229 537.132 237.785 537.223 239.803C537.314 241.821 546.291 323.898 546.291 323.898C551.996 324.967 557.839 325.054 563.574 324.155C573.584 322.688 584.248 316.065 584.248 316.065L564.118 262.129L571.825 186.418C571.825 186.418 548.213 179.483 542.392 178.346Z" fill="white" stroke="#263238" stroke-linecap="round" stroke-linejoin="round"/>
<path d="M530.93 193.004L522.624 201.076C522.624 201.076 517.183 182.418 517.183 179.538C517.087 177.89 517.432 176.247 518.182 174.781C518.933 173.315 520.06 172.081 521.445 171.209C524.546 169.485 536.969 170.897 539.925 172.328C542.881 173.759 545.166 180.639 545.166 180.639L538.529 202.488L530.93 193.004Z" fill="white" stroke="#263238" stroke-linecap="round" stroke-linejoin="round"/>
<path d="M520.538 164.898C520.538 164.898 521.536 175.227 524.057 180.4C526.578 185.574 530.096 193.591 530.93 193.004C531.764 192.417 538.511 181.519 538.692 179.208C538.873 176.896 539.363 167.724 539.363 167.724L520.538 164.898Z" fill="white" stroke="#263238" stroke-linecap="round" stroke-linejoin="round"/>
<path d="M521.082 130.482C521.082 130.482 515.442 133.876 514.644 137.068C513.846 140.261 514.39 156.643 517.782 163.761C521.173 170.879 527.484 176.731 530.585 176.768C533.687 176.805 540.85 171.906 541.847 164.678C542.967 158.167 543.495 151.566 543.425 144.957C543.063 140.114 546.962 142.279 541.031 135.931C535.101 129.583 524.546 127.382 521.082 130.482Z" fill="white" stroke="#263238" stroke-linecap="round" stroke-linejoin="round"/>
<path d="M525.399 153.066C525.399 154.203 524.927 155.139 524.365 155.139C523.803 155.139 523.349 154.203 523.349 153.066C523.349 151.928 523.803 151.011 524.365 151.011C524.927 151.011 525.399 151.928 525.399 153.066Z" fill="#263238"/>
<path d="M535.065 153.066C535.065 154.203 534.611 155.139 534.049 155.139C533.487 155.139 533.034 154.203 533.034 153.066C533.034 151.928 533.487 151.011 534.049 151.011C534.611 151.011 535.065 151.928 535.065 153.066Z" fill="#263238"/>
<path d="M520.81 149.727C521.049 149.356 521.362 149.04 521.728 148.798C522.094 148.556 522.506 148.394 522.937 148.321C523.369 148.249 523.81 148.268 524.234 148.377C524.658 148.486 525.054 148.684 525.399 148.956" stroke="#263238" stroke-width="0.5" stroke-linecap="round" stroke-linejoin="round"/>
<path d="M531.764 149.287C531.764 149.287 533.795 145.929 537.368 149.8" stroke="#263238" stroke-width="0.5" stroke-linecap="round" stroke-linejoin="round"/>
<path d="M531.003 152.809L531.51 161.835L527.43 161.321" stroke="#263238" stroke-width="0.5" stroke-linecap="round" stroke-linejoin="round"/>
<path d="M526.16 164.678C529.109 165.746 532.348 165.648 535.228 164.403" stroke="#263238" stroke-width="0.5" stroke-linecap="round" stroke-linejoin="round"/>
<path d="M517.056 130.171C517.056 130.171 511.507 128.171 510.582 133.84C509.657 139.508 514.427 149.91 514.427 149.91C514.427 149.91 515.189 147.324 516.494 144.168C517.8 141.013 520.611 139.27 519.541 134.684C518.471 130.097 517.056 130.171 517.056 130.171Z" fill="#263238" stroke="#263238" stroke-linecap="round" stroke-linejoin="round"/>
<path d="M518.054 133.601C518.054 133.601 520.847 138.206 528.663 139.325C536.479 140.444 540.469 139.325 541.358 140.738C542.246 142.15 542.337 150.204 542.337 150.204C542.337 150.204 544.949 151.066 545.112 147.911C545.407 145.411 546.525 143.085 548.286 141.306C549.12 140.444 553.327 137.839 548.703 130.666C544.078 123.493 538.239 121.218 528.155 121.236C518.072 121.255 511.997 126.446 518.054 133.601Z" fill="#263238" stroke="#263238" stroke-linecap="round" stroke-linejoin="round"/>
<path d="M571.771 186.418C571.771 186.418 586.279 237.07 587.204 242.371C588.129 247.673 582.235 250.719 576.069 248.462C569.903 246.206 565.859 213.606 565.859 213.606L571.771 186.418Z" fill="white" stroke="#263238" stroke-linecap="round" stroke-linejoin="round"/>
<path d="M581.056 231.401C581.056 231.401 557.716 227.273 551.641 227.291C545.565 227.31 516.404 230.007 516.404 230.007L515.315 240.243C515.315 240.243 559.82 250.388 568.597 251.507C577.375 252.627 586.098 252.223 587.005 246.536C587.911 240.849 585.88 238.207 585.88 238.207" fill="white"/>
<path d="M581.056 231.401C581.056 231.401 557.716 227.273 551.641 227.291C545.565 227.31 516.404 230.007 516.404 230.007L515.315 240.243C515.315 240.243 559.82 250.388 568.597 251.507C577.375 252.627 586.098 252.223 587.005 246.536C587.911 240.849 585.88 238.207 585.88 238.207" stroke="#263238" stroke-linecap="round" stroke-linejoin="round"/>
<path d="M485.374 189.371C485.374 189.371 485.972 218.724 486.643 234.556C487.314 250.388 491.685 256.204 499.665 256.185C507.644 256.167 501.17 210.689 501.17 210.689" fill="white"/>
<path d="M485.374 189.371C485.374 189.371 485.972 218.724 486.643 234.556C487.314 250.388 491.685 256.204 499.665 256.185C507.644 256.167 501.17 210.689 501.17 210.689" stroke="#263238" stroke-linecap="round" stroke-linejoin="round"/>
<path d="M516.404 230.007C516.404 230.007 510.582 226.998 507.173 226.998C503.763 226.998 493.771 233.474 493.807 234.611C493.843 235.749 499.248 237.253 506.048 236.446C509.703 235.97 513.402 235.97 517.056 236.446L516.404 230.007Z" fill="white" stroke="#263238" stroke-linecap="round" stroke-linejoin="round"/>
<path d="M555.667 222.356C558.52 221.694 561.428 221.307 564.354 221.201C568.144 221.201 572.641 228.759 572.641 228.759L557.879 229.933L555.667 222.356Z" fill="white" stroke="#263238" stroke-linecap="round" stroke-linejoin="round"/>
<path d="M495.076 237.638L552.493 220.834C552.493 220.834 553.581 219.696 555.594 222.338C556.945 224.638 557.705 227.242 557.807 229.915C557.807 229.915 523.912 245.894 513.466 250.462C503.02 255.03 499.538 262.24 493.934 255.433C488.33 248.627 491.885 242.922 491.885 242.922" fill="white"/>
<path d="M495.076 237.638L552.493 220.834C552.493 220.834 553.581 219.696 555.594 222.338C556.945 224.638 557.705 227.242 557.807 229.915C557.807 229.915 523.912 245.894 513.466 250.462C503.02 255.03 499.538 262.24 493.934 255.433C488.33 248.627 491.885 242.922 491.885 242.922" stroke="#263238" stroke-linecap="round" stroke-linejoin="round"/>
<path d="M450.427 555.363C478.802 555.363 501.805 546.18 501.805 534.853C501.805 523.525 478.802 514.343 450.427 514.343C422.052 514.343 399.05 523.525 399.05 534.853C399.05 546.18 422.052 555.363 450.427 555.363Z" fill="white"/>
<path opacity="0.5" d="M450.427 555.363C478.802 555.363 501.805 546.18 501.805 534.853C501.805 523.525 478.802 514.343 450.427 514.343C422.052 514.343 399.05 523.525 399.05 534.853C399.05 546.18 422.052 555.363 450.427 555.363Z" fill="white"/>
<path d="M470.521 137.692C474.496 133.438 477.069 128.041 477.884 122.245C478.7 113.403 468.617 108.725 461.798 109C457.541 109.256 453.457 110.789 450.064 113.403C450.064 113.403 434.16 112.596 422.245 121.768C410.33 130.941 411.871 158.202 412.687 168.402C413.095 176.226 412.913 184.07 412.143 191.866C420.567 195.279 429.356 197.686 438.331 199.039C452.241 200.966 471.065 197.663 472.969 197.205C474.874 196.746 467.529 194.985 466.423 184.235C465.316 173.484 468.055 161.046 469.161 155.249C470.267 149.452 468.345 138.151 468.345 138.151L470.521 137.692Z" fill="#263238" stroke="#263238" stroke-linecap="round" stroke-linejoin="round"/>
<path d="M469.07 113.421C469.07 113.421 466.296 123.107 464.754 126.868" stroke="white" stroke-width="0.5" stroke-linecap="round" stroke-linejoin="round"/>
<path d="M457.736 117.494C457.736 117.494 460.202 125.602 451.551 139.673C442.901 153.744 425.31 168.733 424.693 179.043" stroke="white" stroke-width="0.5" stroke-linecap="round" stroke-linejoin="round"/>
<path d="M428.61 155.597C428.61 155.597 417.729 174.035 422.444 185.28" stroke="white" stroke-width="0.5" stroke-linecap="round" stroke-linejoin="round"/>
<path d="M455.523 187.353C455.523 187.353 470.249 195.077 472.425 195.902C474.602 196.728 476.524 198.672 478.156 203.626C479.788 208.579 488.802 244.463 489.618 248.334C490.434 252.205 482.799 256.057 477.884 256.332C472.969 256.607 466.695 252.204 466.695 248.884C466.695 245.563 455.523 187.353 455.523 187.353Z" fill="white" stroke="#263238" stroke-linecap="round" stroke-linejoin="round"/>
<path d="M461.526 245.857C464.527 241.853 467.805 238.071 471.337 234.538C474.602 231.786 481.42 229.566 485.519 231.786C489.618 234.006 488.802 237.84 487.151 238.409C485.501 238.977 481.42 238.959 478.7 240.61C475.98 242.261 471.609 245.307 468.617 246.114C466.263 246.55 463.843 246.463 461.526 245.857Z" fill="white" stroke="#263238" stroke-linecap="round" stroke-linejoin="round"/>
<path d="M417.203 517.351L416.949 532.211H418.672L420.866 522.048L417.203 517.351Z" fill="#263238" stroke="#263238" stroke-linecap="round" stroke-linejoin="round"/>
<path d="M473.405 391.245C473.405 391.245 470.702 428.174 463.612 452.115C456.521 476.056 442.321 513.297 441.976 519.112C441.976 519.112 450.772 527.661 453.8 529.368C456.829 531.074 459.241 530.743 457.192 532.45C455.142 534.156 449.412 535.183 445.023 533.477C440.634 531.771 437.243 526.634 434.885 525.277C432.527 523.919 429.445 522.194 429.136 519.112C428.828 516.03 433.525 511.591 433.525 511.591C433.525 511.591 444.678 486.292 443.336 470.222C441.994 454.151 445.349 436.044 448.777 429.532C450.957 425.254 452.777 420.799 454.217 416.213L444.678 393.281C444.678 393.281 463.938 387.484 473.405 391.245Z" fill="white" stroke="#263238" stroke-linecap="round" stroke-linejoin="round"/>
<path d="M453.8 529.368C453.312 529.076 452.84 528.757 452.386 528.414C450.572 529.258 446.111 530.982 442.647 528.01C438.766 524.671 434.613 518.672 430.66 514.966C429.703 516.135 429.167 517.596 429.136 519.113C429.463 522.195 432.509 523.901 434.885 525.277C437.261 526.653 440.616 531.771 445.023 533.477C449.43 535.183 455.16 534.156 457.192 532.45C459.223 530.744 456.847 531.092 453.8 529.368Z" fill="#263238" stroke="#263238" stroke-linecap="round" stroke-linejoin="round"/>
<path d="M468.617 387.777C468.617 387.777 475.218 407.774 475.218 412.911C475.218 418.048 443.282 490.861 440.235 498.034C437.188 505.207 432.618 518.544 432.618 518.544C433.596 522.485 435.938 525.941 439.219 528.285C444.787 532.395 446.818 535.99 444.279 537.018C441.74 538.045 430.097 539.072 427.051 534.963C424.004 530.854 420.975 522.121 417.983 519.571C414.991 517.021 417.983 511.371 420.014 509.83C422.043 507.949 423.906 505.893 425.582 503.684C425.582 503.684 433.18 487.265 433.18 472.9C433.18 458.536 435.719 444.703 443.336 432.907C447.521 426.693 450.927 419.976 453.474 412.911L445.349 395.978C445.349 395.978 458.534 386.805 468.617 387.777Z" fill="white" stroke="#263238" stroke-linecap="round" stroke-linejoin="round"/>
<path d="M439.6 528.597C436.644 530.046 434.559 531.129 428.121 523.735C424.706 519.84 421.51 515.755 418.545 511.499C416.913 513.847 415.625 517.645 417.983 519.626C421.03 522.194 424.058 530.909 427.051 535.018C430.043 539.127 441.758 538.1 444.279 537.073C446.8 536.045 444.914 532.596 439.6 528.597Z" fill="#263238" stroke="#263238" stroke-linecap="round" stroke-linejoin="round"/>
<path d="M441.414 184.143C441.414 184.143 407.863 189.371 406.757 191.316C405.651 193.261 417.131 256.974 418.219 261.946C419.307 266.918 411.672 279.888 407.337 304.984C403.003 330.081 408.19 336.172 415.553 354.077C422.916 371.982 443.518 398.785 443.518 398.785L475.708 392.987C475.708 392.987 483.071 334.777 479.516 306.635C477.482 289.941 472.688 273.712 465.334 258.625L466.151 243.711C466.151 243.711 475.218 238.06 475.563 230.869C475.907 223.677 470.793 213.349 466.151 203.974C461.508 194.6 448.668 184.143 441.414 184.143Z" fill="white" stroke="#263238" stroke-linecap="round" stroke-linejoin="round"/>
<path d="M443.79 179.905C443.79 179.905 436.699 180.731 435.611 182.106C434.522 183.482 431.24 202.488 431.24 202.488C431.24 202.488 444.062 198.636 445.422 198.636C446.782 198.636 457.971 211.881 457.971 211.881V200.287L467.783 207.735C465.884 202.204 463.511 196.851 460.692 191.738C456.339 184.143 449.792 180.18 443.79 179.905Z" fill="white" stroke="#263238" stroke-linecap="round" stroke-linejoin="round"/>
<path d="M444.334 163.357C444.334 163.357 442.157 184.602 443.518 187.078C444.878 189.555 454.145 203.919 454.145 203.919C454.145 203.919 453.057 192.912 453.057 185.977C453.437 179.997 454.446 174.075 456.067 168.311L444.334 163.357Z" fill="white" stroke="#263238" stroke-linecap="round" stroke-linejoin="round"/>
<path d="M463.43 128.299C463.43 128.299 458.243 141.269 453.057 145.966C450.164 148.646 446.961 150.962 443.518 152.864C443.518 152.864 442.973 162.037 444.334 163.357C445.694 164.678 456.883 176.309 460.655 174.658C464.428 173.007 470.213 162.238 470.757 153.689C470.838 147.166 470.014 140.663 468.309 134.372L463.43 128.299Z" fill="white" stroke="#263238" stroke-linecap="round" stroke-linejoin="round"/>
<path d="M467.221 144.352C466.511 144.664 465.92 145.197 465.531 145.874C465.143 146.55 464.979 147.335 465.062 148.112C465.062 151.231 467.837 153.726 467.837 155.285C467.837 156.845 464.446 157.799 464.446 157.799" stroke="#263238" stroke-width="0.5" stroke-linecap="round" stroke-linejoin="round"/>
<path d="M462.288 145.911C462.288 145.911 460.728 142.242 455.795 143.416" stroke="#263238" stroke-width="0.5" stroke-linecap="round" stroke-linejoin="round"/>
<path d="M463.521 162.789C462.441 163.034 461.32 163.02 460.246 162.749C459.173 162.479 458.176 161.958 457.337 161.229" stroke="#263238" stroke-width="0.5" stroke-linecap="round" stroke-linejoin="round"/>
<path d="M459.186 148.259C459.186 149.562 458.842 150.607 458.425 150.607C458.008 150.607 457.645 149.562 457.645 148.259C457.645 146.957 457.99 145.911 458.425 145.911C458.86 145.911 459.186 146.975 459.186 148.259Z" fill="#263238"/>
<path d="M467.221 149.287C467.221 150.571 466.876 151.635 466.441 151.635C466.005 151.635 465.679 150.571 465.679 149.287C465.679 148.002 466.024 146.938 466.441 146.938C466.858 146.938 467.221 148.057 467.221 149.287Z" fill="#263238"/>
<path d="M412.959 190.674C409.76 190.565 406.602 191.428 403.892 193.15C400.065 195.902 400.899 206.671 402.804 218.265C404.708 229.86 415.081 262.129 417.53 267.651C418.699 270.282 420.568 272.533 422.928 274.153C425.288 275.772 428.046 276.697 430.895 276.824C436.082 276.824 470.176 258.332 470.176 258.332L467.166 249.783C467.166 249.783 438.059 257.158 435.973 257.525C433.888 257.892 424.24 208.414 424.24 208.414" fill="white"/>
<path d="M412.959 190.674C409.76 190.565 406.602 191.428 403.892 193.15C400.065 195.902 400.899 206.671 402.804 218.265C404.708 229.86 415.081 262.129 417.53 267.651C418.699 270.282 420.568 272.533 422.928 274.153C425.288 275.772 428.046 276.697 430.895 276.824C436.082 276.824 470.176 258.332 470.176 258.332L467.166 249.783C467.166 249.783 438.059 257.158 435.973 257.525C433.888 257.892 424.24 208.414 424.24 208.414" stroke="#263238" stroke-linecap="round" stroke-linejoin="round"/>
<path d="M444.062 251.654C444.062 251.654 432.872 251.361 431.24 251.361C429.608 251.361 421.973 260.203 420.05 262.368C418.128 264.533 420.322 265.12 421.157 265.413C421.991 265.707 427.141 263.469 427.141 263.469C427.141 263.469 422.517 272.641 423.605 274.237C424.693 275.833 427.413 276.989 428.52 275.888C430.002 274.625 431.783 273.772 433.688 273.412C434.725 273.459 435.759 273.258 436.704 272.825C437.65 272.391 438.481 271.737 439.129 270.917C441.323 268.44 444.86 258.515 444.86 258.515L450.3 256.846V252.755L444.062 251.654Z" fill="white" stroke="#263238" stroke-linecap="round" stroke-linejoin="round"/>
<path d="M442.973 251.361L445.966 269.853C445.966 269.853 483.343 259.378 487.967 257.158C492.592 254.938 489.89 243.087 486.335 240.06C482.781 237.033 442.973 251.361 442.973 251.361Z" fill="white" stroke="#263238" stroke-linecap="round" stroke-linejoin="round"/>
<path d="M443.518 398.785L475.708 392.987C475.708 392.987 483.071 334.777 479.516 306.635C478.778 300.862 477.719 295.135 476.343 289.482C468.385 292.746 459.994 294.804 451.443 295.591C430.315 297.958 416.188 291.812 410.801 288.859C409.532 293.573 408.299 298.912 407.174 304.966C402.822 330.081 408.027 336.153 415.39 354.058C422.753 371.964 443.518 398.785 443.518 398.785Z" fill="#263238" stroke="#263238" stroke-linecap="round" stroke-linejoin="round"/>
<path d="M449.158 330.631C454.618 340.047 458.687 350.22 461.236 360.828" stroke="white" stroke-width="0.75" stroke-linecap="round" stroke-linejoin="round"/>
<path d="M439.274 316.707C441.551 319.261 443.636 321.984 445.512 324.853" stroke="white" stroke-width="0.75" stroke-linecap="round" stroke-linejoin="round"/>
<path d="M335.848 564.921C381.58 564.921 418.654 555.738 418.654 544.411C418.654 533.083 381.58 523.901 335.848 523.901C290.115 523.901 253.042 533.083 253.042 544.411C253.042 555.738 290.115 564.921 335.848 564.921Z" fill="white"/>
<path opacity="0.5" d="M335.848 564.921C381.58 564.921 418.654 555.738 418.654 544.411C418.654 533.083 381.58 523.901 335.848 523.901C290.115 523.901 253.042 533.083 253.042 544.411C253.042 555.738 290.115 564.921 335.848 564.921Z" fill="white"/>
<path d="M329.573 125.162C329.573 125.162 326.526 119.53 324.296 121.493C322.065 123.456 325.692 137.821 328.467 136.977C331.242 136.133 329.573 125.162 329.573 125.162Z" fill="white" stroke="#263238" stroke-linecap="round" stroke-linejoin="round"/>
<path d="M273.136 320.138C290.154 327.376 308.119 332.079 326.472 334.099C355.942 337.107 390.272 315.606 390.272 315.606C390.272 315.606 355.942 262.019 355.579 260.882C355.217 259.745 314.176 258.24 314.176 258.24L273.136 320.138Z" fill="#263238" stroke="#263238" stroke-linecap="round" stroke-linejoin="round"/>
<path d="M298.145 275.522C298.145 275.522 284.452 334.502 284.452 355.526C284.452 376.55 284.452 393.464 283.437 410.397C282.421 427.33 276.854 460.132 278.885 477.065C280.916 493.998 283.437 527.331 283.437 527.331C283.437 527.331 265.7 541.677 265.7 546.814C265.7 551.951 276.346 550.483 285.468 544.759C294.59 539.036 297.129 535.018 297.129 535.018L299.16 537.073L302.207 533.991L303.222 522.708L313.36 430.394L327.56 338.667L352.387 448.923L374.15 525.35L379.228 527.405L380.243 532.009L385.303 535.091L390.381 535.605L395.441 540.21C395.441 540.21 411.672 545.346 414.719 544.319C417.765 543.292 417.747 539.201 409.641 533.037C401.534 526.873 387.878 523.295 387.878 523.295C387.878 523.295 386.355 471.488 382.819 441.236C379.282 410.984 374.694 385.337 374.694 363.8C374.694 342.262 367.621 279.539 367.621 279.539L298.145 275.522Z" fill="#263238" stroke="#263238" stroke-linecap="round" stroke-linejoin="round"/>
<path d="M333.146 160.129L295.297 174.805L298.326 280.108C298.326 280.108 311.184 286.602 333.817 286.272C356.45 285.942 371.901 284.988 371.901 284.988L380.878 170.017L344.372 161.468C344.372 161.468 337.535 159.101 333.146 160.129Z" fill="white" stroke="#263238" stroke-linecap="round" stroke-linejoin="round"/>
<path d="M333.49 178.584L337.535 189.188L326.055 271.577L332.13 285.263L342.268 269.541L340.926 189.867L345.659 179.263L340.237 168.329L333.49 178.584Z" fill="#263238" stroke="#263238" stroke-linecap="round" stroke-linejoin="round"/>
<path d="M333.2 155.304L327.07 162.642L328.195 185.464L340.998 175.044L351.299 190.252C351.299 190.252 355.47 170.255 353.802 164.055C352.133 157.854 346.294 153.91 343.229 154.478C340.164 155.047 333.2 155.304 333.2 155.304Z" fill="white" stroke="#263238" stroke-linecap="round" stroke-linejoin="round"/>
<path d="M331.532 144.608C331.532 144.608 331.532 145.049 331.641 145.801C331.985 149.562 333.055 161.119 333.762 164.88C334.597 169.393 340.436 174.456 342.667 173.613C344.897 172.769 350.193 165.999 350.737 163.761C351.281 161.523 353.53 151.084 353.53 151.084C353.53 151.084 346.276 154.46 343.229 154.46C340.182 154.46 331.532 144.608 331.532 144.608Z" fill="white" stroke="#263238" stroke-linecap="round" stroke-linejoin="round"/>
<path d="M360.675 129.895C360.675 129.895 365.209 125.382 366.769 127.914C368.328 130.446 360.82 143.159 358.39 141.545C355.96 139.93 360.675 129.895 360.675 129.895Z" fill="white" stroke="#263238" stroke-linecap="round" stroke-linejoin="round"/>
<path d="M339.856 105.459C339.856 105.459 332.91 108.468 331.405 111.99C329.9 115.513 327.433 134.005 329.918 142.627C332.402 151.249 338.369 158.698 341.833 159.138C345.296 159.578 354.255 155.12 356.74 147.085C359.224 139.05 361.691 130.574 362.18 125.071C362.67 119.567 366.642 122.557 361.183 114.522C355.724 106.487 344.263 102.451 339.856 105.459Z" fill="white" stroke="#263238" stroke-linecap="round" stroke-linejoin="round"/>
<path d="M342.032 129.107C342.032 130.483 341.542 131.602 340.871 131.62C340.2 131.638 339.602 130.538 339.566 129.162C339.529 127.786 340.055 126.667 340.744 126.648C341.434 126.63 341.996 127.676 342.032 129.107Z" fill="#263238"/>
<path d="M351.698 129.712C351.698 131.088 351.209 132.225 350.538 132.244C349.867 132.262 349.268 131.161 349.232 129.785C349.196 128.409 349.721 127.272 350.392 127.254C351.063 127.235 351.662 128.336 351.698 129.712Z" fill="#263238"/>
<path d="M337.063 122.832C337.701 121.88 338.652 121.186 339.747 120.874C340.842 120.562 342.011 120.651 343.048 121.126" stroke="#263238" stroke-width="0.5" stroke-linecap="round" stroke-linejoin="round"/>
<path d="M348.379 122.099C348.379 122.099 351.535 120.558 355.053 124.704" stroke="#263238" stroke-width="0.5" stroke-linecap="round" stroke-linejoin="round"/>
<path d="M340.092 142.645C342.458 143.783 345.133 144.087 347.69 143.508" stroke="#263238" stroke-width="0.5" stroke-linecap="round" stroke-linejoin="round"/>
<path d="M347.273 125.566C347.273 125.566 348.96 137.472 347.69 138.114C346.421 138.756 343.701 137.252 343.701 137.252" stroke="#263238" stroke-width="0.5" stroke-linecap="round" stroke-linejoin="round"/>
<path d="M332.366 99.7538C332.366 99.7538 322.899 101.717 323.171 106.78C323.443 111.843 326.798 120.869 326.798 120.869C326.798 120.869 330.135 122.832 329.573 125.089C329.011 127.345 329.301 132.133 331.26 130.446C333.218 128.758 332.094 122.557 332.928 121.713C333.884 121.108 334.685 120.282 335.265 119.303C335.845 118.324 336.188 117.22 336.265 116.081C336.265 112.706 334.306 109.605 334.869 108.743C335.431 107.881 345.17 109.018 349.903 111.275C354.636 113.531 361.038 117.182 359.37 120.851C358.842 121.723 358.611 122.746 358.713 123.763C358.814 124.78 359.243 125.735 359.932 126.483C359.932 126.483 357.973 131.84 359.37 133.253C360.766 134.665 362.434 128.464 362.434 128.464C363.371 128.273 364.224 127.789 364.874 127.082C365.525 126.374 365.94 125.479 366.061 124.52C367.29 120.028 367.666 115.34 367.168 110.706C366.333 106.211 357.139 98.598 347.128 98.3228C337.117 98.0476 332.366 99.7538 332.366 99.7538Z" fill="#263238" stroke="#263238" stroke-linecap="round" stroke-linejoin="round"/>
<path d="M333.472 104.615C333.472 104.615 344.897 114.742 354.636 118.686C364.375 122.631 376.906 115.311 377.469 109.679C378.031 104.047 368.564 95.8829 366.061 95.5894C363.559 95.2959 367.44 91.9203 358.263 89.1134C349.087 86.3066 328.739 87.9944 327.633 93.6264C326.526 99.2585 333.472 104.615 333.472 104.615Z" fill="#263238" stroke="#263238" stroke-linecap="round" stroke-linejoin="round"/>
<path d="M328.412 161.835C328.412 161.835 327.07 226.796 319.345 249.012C311.619 271.229 301.772 293.463 293.32 301.334C284.869 309.204 269.998 334.154 269.998 334.154C269.998 334.154 264.921 324.229 264.921 321.165C264.921 318.101 288.497 296.197 290.618 294.142C292.74 292.088 293.665 281.502 293.665 265.78C293.665 250.058 289.947 176.199 289.947 174.823C289.947 173.447 321.993 160.129 328.412 161.835Z" fill="white" stroke="#263238" stroke-linecap="round" stroke-linejoin="round"/>
<path d="M289.893 174.823L289.149 175.961C284.528 184.612 280.428 193.538 276.872 202.69C270.597 218.137 254.057 243.729 257.612 248.847C261.166 253.966 270.307 257.048 275.856 250.902C281.406 244.756 295.116 218.596 295.116 218.596C295.116 218.596 293.266 180.29 289.893 174.823Z" fill="white" stroke="#263238" stroke-linecap="round" stroke-linejoin="round"/>
<path d="M353.095 162.514C353.095 162.514 353.766 207.313 355.108 238.078C356.45 268.844 360.548 280.475 363.903 286.29C367.258 292.106 391.959 330.741 391.959 330.741C391.959 330.741 397.708 318.762 397.018 313.974C396.329 309.185 378.43 278.769 378.43 277.063C378.43 275.356 386.21 174.493 384.85 171.76C383.49 169.026 353.095 162.514 353.095 162.514Z" fill="white" stroke="#263238" stroke-linecap="round" stroke-linejoin="round"/>
<path d="M321.322 165.944L311.51 190.564L319.29 198.416L310.839 207.992L315.573 244.573" stroke="#263238" stroke-linecap="round" stroke-linejoin="round"/>
<path d="M357.81 166.274L366.95 188.161L356.812 194.306L366.95 210.395L357.139 236.372" stroke="#263238" stroke-linecap="round" stroke-linejoin="round"/>
<path d="M298.163 296.545L299.867 301.022L287.825 310.415L284.035 301.719L298.163 296.545Z" fill="white" stroke="#263238" stroke-linecap="round" stroke-linejoin="round"/>
<path d="M274.333 241.674L298.145 296.545L280.408 310.396C280.408 310.396 254.62 255.507 254.62 250.902C254.62 246.297 260.205 237.051 262.726 235.51" fill="white"/>
<path d="M274.333 241.674L298.145 296.545L280.408 310.396C280.408 310.396 254.62 255.507 254.62 250.902C254.62 246.297 260.205 237.051 262.726 235.51" stroke="#263238" stroke-linecap="round" stroke-linejoin="round"/>
<path d="M299.867 301.022L304.002 303.113L292.631 318.78L287.825 310.415L299.867 301.022Z" fill="white" stroke="#263238" stroke-linecap="round" stroke-linejoin="round"/>
<path d="M362.96 297.334L360.82 301.627L371.883 312.194L376.507 303.92L362.96 297.334Z" fill="white" stroke="#263238" stroke-linecap="round" stroke-linejoin="round"/>
<path d="M384.85 171.76C384.85 171.76 390.073 177.392 390.762 182.602C391.451 187.812 409.695 249.122 410.384 251.911C411.073 254.699 404.182 259.249 397.291 260.276C390.399 261.304 381.803 234.153 381.803 234.153L384.85 171.76Z" fill="white" stroke="#263238" stroke-linecap="round" stroke-linejoin="round"/>
<path d="M392.086 245.141L362.96 297.334L379.282 312.91C379.282 312.91 410.421 260.919 410.874 256.332C411.327 251.746 406.703 241.986 404.327 240.207" fill="white"/>
<path d="M392.086 245.141L362.96 297.334L379.282 312.91C379.282 312.91 410.421 260.919 410.874 256.332C411.327 251.746 406.703 241.986 404.327 240.207" stroke="#263238" stroke-linecap="round" stroke-linejoin="round"/>
<path d="M360.82 301.627L356.504 303.278L366.261 320.028L371.883 312.194L360.82 301.627Z" fill="white" stroke="#263238" stroke-linecap="round" stroke-linejoin="round"/>
</svg>
