<svg width="374" height="320" viewBox="0 0 374 320" fill="none" xmlns="http://www.w3.org/2000/svg">
<path d="M117.21 55.4766H49.552C47.3901 55.4766 45.3167 56.2603 43.788 57.6553C42.2593 59.0503 41.4004 60.9424 41.4004 62.9153V85.9752C41.4004 87.9481 42.2593 89.8402 43.788 91.2352C45.3167 92.6302 47.3901 93.4139 49.552 93.4139H116.803L125.362 103.828V62.9153C125.362 60.9424 124.503 59.0503 122.974 57.6553C121.446 56.2603 119.372 55.4766 117.21 55.4766Z" fill="#263238"/>
<path d="M56.1304 80.865H53.6849V66.7314H56.1304V72.7791H58.8856V66.7314H61.3311V80.865H58.8856V74.8173H56.1304V80.865Z" fill="white"/>
<path d="M63.1326 66.7537H65.5781V80.8872H63.1326V66.7537Z" fill="white"/>
<path d="M70.0451 66.7537H77.5527V68.7695H75.0094V80.8649H72.564V68.7695H70.0288L70.0451 66.7537Z" fill="white"/>
<path d="M81.0416 80.865H78.5961V66.7314H81.0416V72.7791H83.7887V66.7314H86.2342V80.865H83.7887V74.8173H81.0253L81.0416 80.865Z" fill="white"/>
<path d="M90.473 72.6973H93.807V74.7132H90.473V78.8491H94.6711V80.865H88.0438V66.7314H94.6711V68.7473H90.473V72.6973Z" fill="white"/>
<path d="M101.249 80.8648C101.05 80.3063 100.975 79.717 101.029 79.1316V76.9C101.029 75.5908 100.548 75.1073 99.399 75.1073H98.5838V80.85H96.1383V66.7164H99.8065C102.325 66.7164 103.41 67.7876 103.41 69.9597V71.0681C103.41 72.5186 102.896 73.4708 101.779 73.932C102.994 74.4006 103.41 75.4643 103.41 76.9074V79.087C103.365 79.6682 103.457 80.2514 103.679 80.7979L101.249 80.8648ZM98.6001 68.7695V73.1063H99.5538C100.459 73.1063 101.013 72.7418 101.013 71.6185V70.2201C101.013 69.2158 100.638 68.7323 99.7739 68.7323L98.6001 68.7695Z" fill="white"/>
<path d="M107.485 72.6973H110.819V74.7132H107.485V78.8491H111.675V80.865H105.048V66.7314H111.675V68.7473H107.485V72.6973Z" fill="white"/>
<path d="M113.493 77.7406L113.183 72.6377V66.7537H115.629V72.6377L115.319 77.7406H113.493ZM115.564 78.73V80.8649H113.224V78.73H115.564Z" fill="white"/>
<path d="M231.332 56.2205C231.332 56.2205 228.316 55.246 227.632 57.7082C226.947 60.1704 230.941 61.0854 231.43 61.0854C231.919 61.0854 232.694 60.468 232.205 59.0472C231.716 57.6264 231.332 56.2205 231.332 56.2205Z" fill="#263238" stroke="#263238" stroke-linecap="round" stroke-linejoin="round"/>
<path d="M248.451 50.1802C248.451 50.1802 248.157 53.7359 248.157 55.1567C248.157 56.5775 249.788 57.113 250.603 57.113C251.418 57.113 251.777 58.8016 251.287 60.5795C250.798 62.3573 249.144 63.4211 245.149 63.4211C241.155 63.4211 238.726 61.8217 238.628 60.6687C238.53 59.5157 239.5 54.5318 241.163 53.23C242.826 51.9283 248.451 50.1802 248.451 50.1802Z" fill="#263238" stroke="#263238" stroke-linecap="round" stroke-linejoin="round"/>
<path d="M233.868 61.1076V62.4838C233.868 62.7003 233.937 62.9122 234.065 63.0942C234.194 63.2761 234.377 63.4206 234.593 63.5103C235.293 63.7804 236.036 63.9438 236.794 63.9939C238.32 63.9941 239.828 63.6894 241.212 63.1012C241.404 63.0267 241.567 62.9022 241.681 62.7434C241.796 62.5847 241.857 62.3986 241.856 62.2086V60.7729C241.854 60.6854 241.829 60.5996 241.783 60.523C241.736 60.4464 241.67 60.3814 241.589 60.3337C241.509 60.286 241.417 60.257 241.321 60.2493C241.225 60.2416 241.129 60.2553 241.041 60.2894L240.723 60.4382C240.723 60.4382 235.914 60.9961 233.868 61.1076Z" fill="white" stroke="#263238" stroke-linecap="round" stroke-linejoin="round"/>
<path d="M231.732 49.4661C231.199 51.4202 230.839 53.4103 230.656 55.417C230.362 58.705 230.656 61.7251 232.115 61.8143C233.116 61.816 234.097 61.558 234.944 61.0705C234.944 61.0705 238.351 61.4275 239.517 60.8994L240.69 60.3638L241.563 55.1567C241.563 55.1567 241.66 47.0708 240.006 46.5352C238.351 45.9997 231.732 49.4661 231.732 49.4661Z" fill="white" stroke="#263238" stroke-linecap="round" stroke-linejoin="round"/>
<path d="M234.357 53.1111L233.582 54.9782C233.582 54.9782 232.017 55.3353 232.213 56.0419C232.408 56.7486 233.444 56.6445 233.444 56.6445" stroke="#263238" stroke-linecap="round" stroke-linejoin="round"/>
<path d="M236.859 53.922C236.704 54.3088 236.386 54.5617 236.166 54.4873C235.946 54.4129 235.881 54.0336 236.044 53.6393C236.207 53.2451 236.517 52.9921 236.745 53.074C236.973 53.1558 237.039 53.5575 236.859 53.922Z" fill="#263238"/>
<path d="M233.191 53.0218C233.028 53.4161 232.718 53.669 232.49 53.5946C232.262 53.5202 232.213 53.1334 232.368 52.7466C232.523 52.3598 232.84 52.0994 233.069 52.1738C233.297 52.2482 233.346 52.635 233.191 53.0218Z" fill="#263238"/>
<path d="M236.109 51.4225C236.109 51.4225 237.96 50.9762 238.155 52.583" stroke="#263238" stroke-linecap="round" stroke-linejoin="round"/>
<path d="M233.68 50.9761C233.68 50.9761 232.05 50.448 231.536 51.72" stroke="#263238" stroke-linecap="round" stroke-linejoin="round"/>
<path d="M234.944 61.1077L237.568 60.1332" stroke="#263238" stroke-linecap="round" stroke-linejoin="round"/>
<path d="M232.963 45.3748C232.963 45.3748 229.849 41.9976 227.509 44.4822C225.17 46.9667 225.879 50.7084 230.044 50.8869C234.21 51.0654 238.905 47.3312 238.905 47.3312C238.905 47.3312 238.416 52.2184 239.582 53.907C240.747 55.5956 241.628 56.7486 241.628 56.7486C241.628 56.7486 243.258 57.7231 246.013 55.7741C248.769 53.8252 249.421 49.0793 247.473 45.903C245.524 42.7266 242.117 40.9265 238.025 42.1836C233.933 43.4408 232.963 45.3748 232.963 45.3748Z" fill="#263238" stroke="#263238" stroke-linecap="round" stroke-linejoin="round"/>
<path d="M239.712 56.6668C239.712 56.6668 243.217 53.7359 243.217 55.4245C243.217 57.1131 241.587 58.6231 240.299 58.2661" fill="white"/>
<path d="M239.712 56.6668C239.712 56.6668 243.217 53.7359 243.217 55.4245C243.217 57.1131 241.587 58.6231 240.299 58.2661" stroke="#263238" stroke-linecap="round" stroke-linejoin="round"/>
<path d="M232.213 58.0205C232.673 58.3232 233.227 58.486 233.794 58.486C234.362 58.486 234.915 58.3232 235.376 58.0205" stroke="#263238" stroke-linecap="round" stroke-linejoin="round"/>
<path d="M250.302 63.6374C256.527 57.5929 256.203 48.0882 249.579 42.408C242.955 36.7278 232.54 37.0232 226.315 43.0677C220.091 49.1123 220.414 58.617 227.038 64.2972C233.662 69.9773 244.077 69.682 250.302 63.6374Z" stroke="#263238" stroke-linecap="round" stroke-linejoin="round"/>
<path d="M350.309 175.528C359.664 173.532 365.474 164.993 363.287 156.457C361.1 147.92 351.743 142.617 342.388 144.613C333.033 146.609 327.222 155.148 329.41 163.685C331.597 172.222 340.954 177.524 350.309 175.528Z" stroke="#263238" stroke-linecap="round" stroke-linejoin="round"/>
<path d="M352.286 164.751C352.286 165.796 351.946 166.817 351.31 167.685C350.674 168.554 349.77 169.231 348.713 169.631C347.655 170.03 346.492 170.135 345.369 169.931C344.246 169.727 343.215 169.224 342.405 168.486C341.596 167.747 341.045 166.806 340.822 165.781C340.598 164.757 340.713 163.695 341.151 162.73C341.589 161.765 342.331 160.94 343.283 160.36C344.234 159.779 345.353 159.47 346.498 159.47C348.033 159.47 349.505 160.026 350.59 161.017C351.676 162.007 352.286 163.35 352.286 164.751Z" fill="white" stroke="#263238" stroke-linecap="round" stroke-linejoin="round"/>
<path d="M354.772 168.27C356.02 166.847 356.803 165.132 357.03 163.322C357.257 161.512 356.919 159.68 356.055 158.037C355.191 156.394 353.835 155.008 352.145 154.038C350.455 153.067 348.499 152.552 346.502 152.552C344.505 152.552 342.549 153.067 340.859 154.038C339.169 155.008 337.813 156.394 336.949 158.037C336.085 159.68 335.747 161.512 335.974 163.322C336.201 165.132 336.984 166.847 338.232 168.27H354.772Z" fill="white" stroke="#263238" stroke-linecap="round" stroke-linejoin="round"/>
<path d="M350.631 165.532H342.104C341.605 165.532 341.111 165.442 340.651 165.268C340.19 165.094 339.771 164.839 339.418 164.517C339.065 164.195 338.786 163.813 338.595 163.392C338.404 162.972 338.306 162.521 338.306 162.066C338.305 161.61 338.402 161.159 338.593 160.738C338.783 160.317 339.063 159.934 339.416 159.612C339.769 159.29 340.188 159.035 340.649 158.861C341.111 158.687 341.605 158.598 342.104 158.599H350.631C351.13 158.598 351.624 158.687 352.086 158.861C352.547 159.035 352.966 159.29 353.319 159.612C353.672 159.934 353.952 160.317 354.143 160.738C354.333 161.159 354.431 161.61 354.429 162.066C354.429 162.985 354.029 163.867 353.317 164.517C352.604 165.167 351.638 165.532 350.631 165.532Z" fill="white" stroke="#263238" stroke-linecap="round" stroke-linejoin="round"/>
<path d="M340.05 161.783C340.225 161.337 340.543 160.949 340.964 160.671C341.384 160.392 341.887 160.237 342.406 160.224C342.925 160.211 343.437 160.341 343.873 160.598C344.309 160.856 344.65 161.227 344.851 161.664" stroke="#263238" stroke-width="2" stroke-linecap="round" stroke-linejoin="round"/>
<path d="M348.022 161.783C348.197 161.337 348.515 160.949 348.936 160.671C349.356 160.392 349.859 160.237 350.378 160.224C350.898 160.211 351.409 160.341 351.845 160.598C352.282 160.856 352.623 161.227 352.824 161.664" stroke="#263238" stroke-width="2" stroke-linecap="round" stroke-linejoin="round"/>
<path d="M345.104 163.39C345.142 163.717 345.311 164.019 345.579 164.239C345.847 164.459 346.195 164.581 346.555 164.581C346.915 164.581 347.263 164.459 347.531 164.239C347.799 164.019 347.968 163.717 348.006 163.39H345.104Z" fill="white" stroke="#263238" stroke-linecap="round" stroke-linejoin="round"/>
<path d="M360.201 163.94C360.055 163.94 359.911 163.914 359.777 163.863C359.642 163.812 359.52 163.738 359.417 163.644C359.314 163.55 359.232 163.439 359.177 163.316C359.121 163.193 359.092 163.061 359.092 162.929V160.63C359.092 160.497 359.121 160.366 359.177 160.243C359.232 160.12 359.314 160.009 359.417 159.915C359.52 159.821 359.642 159.746 359.777 159.695C359.911 159.645 360.055 159.618 360.201 159.618C360.346 159.618 360.491 159.645 360.625 159.695C360.76 159.746 360.882 159.821 360.985 159.915C361.088 160.009 361.169 160.12 361.225 160.243C361.281 160.366 361.309 160.497 361.309 160.63V162.906C361.313 163.041 361.286 163.175 361.232 163.3C361.178 163.426 361.097 163.54 360.993 163.636C360.89 163.732 360.767 163.809 360.631 163.861C360.495 163.913 360.348 163.94 360.201 163.94Z" fill="#263238" stroke="#263238" stroke-linecap="round" stroke-linejoin="round"/>
<path d="M332.502 163.94C332.356 163.94 332.212 163.914 332.077 163.863C331.943 163.812 331.821 163.738 331.718 163.644C331.615 163.55 331.533 163.439 331.477 163.316C331.422 163.193 331.393 163.061 331.393 162.929V160.63C331.393 160.497 331.422 160.366 331.477 160.243C331.533 160.12 331.615 160.009 331.718 159.915C331.821 159.821 331.943 159.746 332.077 159.695C332.212 159.645 332.356 159.618 332.502 159.618C332.647 159.618 332.791 159.645 332.926 159.695C333.06 159.746 333.183 159.821 333.286 159.915C333.389 160.009 333.47 160.12 333.526 160.243C333.582 160.366 333.61 160.497 333.61 160.63V162.906C333.614 163.041 333.587 163.175 333.533 163.3C333.479 163.426 333.398 163.54 333.294 163.636C333.191 163.732 333.068 163.809 332.932 163.861C332.796 163.913 332.649 163.94 332.502 163.94Z" fill="#263238" stroke="#263238" stroke-linecap="round" stroke-linejoin="round"/>
<path d="M334.548 160.771C334.24 160.769 333.946 160.656 333.729 160.457C333.512 160.258 333.39 159.988 333.39 159.708V158.041C333.387 156.236 333.977 154.471 335.086 152.976C335.165 152.848 335.273 152.737 335.402 152.649C335.531 152.562 335.678 152.499 335.834 152.466C335.991 152.433 336.153 152.429 336.311 152.456C336.47 152.483 336.62 152.539 336.753 152.621C336.886 152.704 336.999 152.81 337.085 152.934C337.17 153.058 337.227 153.197 337.251 153.342C337.275 153.487 337.266 153.635 337.225 153.777C337.183 153.919 337.11 154.051 337.01 154.166C336.162 155.31 335.71 156.66 335.713 158.041V159.708C335.713 159.99 335.591 160.26 335.372 160.46C335.153 160.659 334.857 160.771 334.548 160.771Z" fill="#263238"/>
<path d="M357.062 154.106C356.967 154.107 356.873 154.085 356.789 154.043C356.705 154.002 356.633 153.942 356.581 153.868C355.834 152.851 354.823 152.019 353.639 151.444C352.454 150.869 351.133 150.57 349.791 150.573H343.319C341.977 150.57 340.656 150.869 339.471 151.444C338.287 152.019 337.276 152.851 336.529 153.868C336.441 153.986 336.306 154.066 336.153 154.093C336 154.119 335.842 154.089 335.713 154.01C335.649 153.971 335.594 153.92 335.551 153.862C335.508 153.803 335.478 153.737 335.464 153.667C335.449 153.598 335.45 153.527 335.467 153.458C335.483 153.389 335.514 153.323 335.559 153.266C336.413 152.106 337.567 151.156 338.919 150.5C340.271 149.843 341.779 149.501 343.311 149.502H349.783C351.316 149.501 352.826 149.844 354.18 150.502C355.533 151.16 356.688 152.112 357.543 153.273C357.587 153.331 357.618 153.397 357.634 153.466C357.649 153.536 357.65 153.607 357.634 153.677C357.619 153.746 357.589 153.812 357.545 153.87C357.502 153.929 357.446 153.979 357.38 154.017C357.286 154.074 357.176 154.105 357.062 154.106Z" fill="#263238"/>
<path d="M358.562 160.771C358.253 160.771 357.957 160.659 357.738 160.46C357.519 160.26 357.397 159.99 357.397 159.708V158.041C357.4 156.66 356.948 155.31 356.101 154.166C356.003 154.05 355.933 153.918 355.894 153.777C355.855 153.636 355.848 153.489 355.874 153.345C355.9 153.202 355.957 153.065 356.043 152.942C356.13 152.82 356.242 152.715 356.375 152.634C356.507 152.553 356.656 152.497 356.813 152.471C356.97 152.444 357.131 152.448 357.287 152.481C357.442 152.513 357.588 152.575 357.717 152.661C357.845 152.748 357.952 152.857 358.032 152.983C359.138 154.477 359.726 156.239 359.72 158.041V159.708C359.72 159.988 359.598 160.258 359.381 160.457C359.164 160.656 358.87 160.769 358.562 160.771Z" fill="#263238"/>
<path d="M334.694 165.443C334.085 165.443 333.5 165.222 333.069 164.828C332.638 164.435 332.396 163.902 332.396 163.345V160.013C332.396 159.456 332.638 158.923 333.069 158.529C333.5 158.136 334.085 157.915 334.694 157.915C335.304 157.915 335.889 158.136 336.32 158.529C336.751 158.923 336.993 159.456 336.993 160.013V163.345C336.993 163.902 336.751 164.435 336.32 164.828C335.889 165.222 335.304 165.443 334.694 165.443Z" fill="white" stroke="#263238" stroke-linecap="round" stroke-linejoin="round"/>
<path d="M334.931 157.915H334.458V165.443H334.931V157.915Z" fill="white" stroke="#263238" stroke-linecap="round" stroke-linejoin="round"/>
<path d="M360.437 160.013C360.437 158.854 359.408 157.915 358.138 157.915C356.869 157.915 355.84 158.854 355.84 160.013V163.345C355.84 164.504 356.869 165.443 358.138 165.443C359.408 165.443 360.437 164.504 360.437 163.345V160.013Z" fill="white" stroke="#263238" stroke-linecap="round" stroke-linejoin="round"/>
<path d="M358.375 157.915H357.902V165.443H358.375V157.915Z" fill="white" stroke="#263238" stroke-linecap="round" stroke-linejoin="round"/>
<path d="M346.539 157.231C347.349 157.228 348.145 157.041 348.856 156.688C349.568 156.335 350.172 155.826 350.615 155.207L351.617 153.786C350.028 152.984 348.239 152.569 346.422 152.582C344.606 152.595 342.824 153.035 341.248 153.861L342.748 155.572C343.205 156.088 343.783 156.505 344.438 156.792C345.094 157.079 345.812 157.229 346.539 157.231Z" fill="white" stroke="#263238" stroke-linecap="round" stroke-linejoin="round"/>
<path d="M346.62 166.388C346.715 166.388 346.791 166.318 346.791 166.231C346.791 166.145 346.715 166.075 346.62 166.075C346.526 166.075 346.449 166.145 346.449 166.231C346.449 166.318 346.526 166.388 346.62 166.388Z" fill="#263238"/>
<path d="M346.791 166.774C346.789 166.734 346.77 166.696 346.739 166.669C346.707 166.641 346.664 166.626 346.62 166.626C346.598 166.625 346.576 166.628 346.555 166.635C346.535 166.642 346.516 166.652 346.5 166.666C346.484 166.68 346.471 166.697 346.462 166.716C346.454 166.734 346.449 166.754 346.449 166.774C346.449 166.816 346.467 166.855 346.499 166.885C346.531 166.914 346.575 166.931 346.62 166.931C346.666 166.931 346.709 166.914 346.741 166.885C346.773 166.855 346.791 166.816 346.791 166.774Z" fill="#263238"/>
<path d="M346.115 166.693C346.158 166.68 346.194 166.653 346.215 166.617C346.237 166.581 346.242 166.539 346.229 166.499C346.212 166.46 346.181 166.428 346.14 166.409C346.1 166.39 346.053 166.385 346.009 166.395C345.966 166.407 345.93 166.434 345.908 166.47C345.887 166.506 345.882 166.549 345.895 166.588C345.911 166.627 345.943 166.659 345.983 166.678C346.024 166.698 346.071 166.703 346.115 166.693Z" fill="#263238"/>
<path d="M347.183 166.693C347.226 166.681 347.262 166.653 347.283 166.617C347.305 166.581 347.31 166.539 347.297 166.499C347.282 166.459 347.251 166.426 347.21 166.407C347.169 166.387 347.121 166.383 347.077 166.395C347.055 166.401 347.036 166.411 347.019 166.424C347.002 166.437 346.988 166.453 346.978 166.471C346.968 166.489 346.962 166.509 346.961 166.529C346.96 166.549 346.963 166.569 346.971 166.588C346.984 166.628 347.014 166.661 347.053 166.68C347.093 166.7 347.139 166.704 347.183 166.693Z" fill="#263238"/>
<path d="M324.978 78.9605H260.116V52.5903V45.5979L267.786 52.5903H324.978V78.9605Z" fill="#D6D6D6" stroke="#263238" stroke-linecap="round" stroke-linejoin="round"/>
<path d="M324.978 117.158H260.116V90.7956V83.8032L267.786 90.7956H324.978V117.158Z" fill="#D6D6D6" stroke="#263238" stroke-linecap="round" stroke-linejoin="round"/>
<path d="M303.425 61.6656H318.693" stroke="#263238" stroke-linecap="round" stroke-linejoin="round"/>
<path d="M282.06 61.6656H299.504" stroke="#263238" stroke-linecap="round" stroke-linejoin="round"/>
<path d="M268.976 61.6656H279.003" stroke="#263238" stroke-linecap="round" stroke-linejoin="round"/>
<path d="M296.447 66.0471H318.693" stroke="#263238" stroke-linecap="round" stroke-linejoin="round"/>
<path d="M268.976 66.0471H292.526" stroke="#263238" stroke-linecap="round" stroke-linejoin="round"/>
<path d="M314.332 70.4209H318.693" stroke="#263238" stroke-linecap="round" stroke-linejoin="round"/>
<path d="M289.91 70.4209H310.843" stroke="#263238" stroke-linecap="round" stroke-linejoin="round"/>
<path d="M268.976 70.4209H286.421" stroke="#263238" stroke-linecap="round" stroke-linejoin="round"/>
<path d="M303.425 98.6731H318.693" stroke="#263238" stroke-linecap="round" stroke-linejoin="round"/>
<path d="M282.06 98.6731H299.504" stroke="#263238" stroke-linecap="round" stroke-linejoin="round"/>
<path d="M268.976 98.6731H279.003" stroke="#263238" stroke-linecap="round" stroke-linejoin="round"/>
<path d="M296.447 103.054H318.693" stroke="#263238" stroke-linecap="round" stroke-linejoin="round"/>
<path d="M268.976 103.054H292.526" stroke="#263238" stroke-linecap="round" stroke-linejoin="round"/>
<path d="M314.332 107.428H318.693" stroke="#263238" stroke-linecap="round" stroke-linejoin="round"/>
<path d="M289.91 107.428H310.843" stroke="#263238" stroke-linecap="round" stroke-linejoin="round"/>
<path d="M268.976 107.428H286.421" stroke="#263238" stroke-linecap="round" stroke-linejoin="round"/>
<path d="M260.116 224.581H324.978V160.809V153.816L317.307 160.809H260.116V224.581Z" fill="white" stroke="#263238" stroke-linecap="round" stroke-linejoin="round"/>
<path d="M303.425 169.512H318.693" stroke="#263238" stroke-linecap="round" stroke-linejoin="round"/>
<path d="M282.06 169.512H299.504" stroke="#263238" stroke-linecap="round" stroke-linejoin="round"/>
<path d="M268.976 169.512H279.003" stroke="#263238" stroke-linecap="round" stroke-linejoin="round"/>
<path d="M296.447 173.886H318.693" stroke="#263238" stroke-linecap="round" stroke-linejoin="round"/>
<path d="M268.976 173.886H292.526" stroke="#263238" stroke-linecap="round" stroke-linejoin="round"/>
<path d="M314.332 178.267H318.693" stroke="#263238" stroke-linecap="round" stroke-linejoin="round"/>
<path d="M289.91 178.267H310.843" stroke="#263238" stroke-linecap="round" stroke-linejoin="round"/>
<path d="M268.976 178.267H286.421" stroke="#263238" stroke-linecap="round" stroke-linejoin="round"/>
<path d="M303.425 181.845H318.693" stroke="#263238" stroke-linecap="round" stroke-linejoin="round"/>
<path d="M282.06 181.845H299.504" stroke="#263238" stroke-linecap="round" stroke-linejoin="round"/>
<path d="M268.976 181.845H279.003" stroke="#263238" stroke-linecap="round" stroke-linejoin="round"/>
<path d="M296.447 186.227H318.693" stroke="#263238" stroke-linecap="round" stroke-linejoin="round"/>
<path d="M268.976 186.227H292.526" stroke="#263238" stroke-linecap="round" stroke-linejoin="round"/>
<path d="M314.332 190.6H318.693" stroke="#263238" stroke-linecap="round" stroke-linejoin="round"/>
<path d="M289.91 190.6H310.843" stroke="#263238" stroke-linecap="round" stroke-linejoin="round"/>
<path d="M268.976 190.6H286.421" stroke="#263238" stroke-linecap="round" stroke-linejoin="round"/>
<path d="M303.425 194.186H318.693" stroke="#263238" stroke-linecap="round" stroke-linejoin="round"/>
<path d="M282.06 194.186H299.504" stroke="#263238" stroke-linecap="round" stroke-linejoin="round"/>
<path d="M268.976 194.186H279.003" stroke="#263238" stroke-linecap="round" stroke-linejoin="round"/>
<path d="M296.447 198.56H318.693" stroke="#263238" stroke-linecap="round" stroke-linejoin="round"/>
<path d="M268.976 198.56H292.526" stroke="#263238" stroke-linecap="round" stroke-linejoin="round"/>
<path d="M314.332 202.941H318.693" stroke="#263238" stroke-linecap="round" stroke-linejoin="round"/>
<path d="M289.91 202.941H310.843" stroke="#263238" stroke-linecap="round" stroke-linejoin="round"/>
<path d="M268.976 202.941H286.421" stroke="#263238" stroke-linecap="round" stroke-linejoin="round"/>
<path d="M303.425 206.519H318.693" stroke="#263238" stroke-linecap="round" stroke-linejoin="round"/>
<path d="M282.06 206.519H299.504" stroke="#263238" stroke-linecap="round" stroke-linejoin="round"/>
<path d="M268.976 206.519H279.003" stroke="#263238" stroke-linecap="round" stroke-linejoin="round"/>
<path d="M296.447 210.901H318.693" stroke="#263238" stroke-linecap="round" stroke-linejoin="round"/>
<path d="M268.976 210.901H292.526" stroke="#263238" stroke-linecap="round" stroke-linejoin="round"/>
<path d="M314.332 215.275H318.693" stroke="#263238" stroke-linecap="round" stroke-linejoin="round"/>
<path d="M289.91 215.275H310.843" stroke="#263238" stroke-linecap="round" stroke-linejoin="round"/>
<path d="M268.976 215.275H286.421" stroke="#263238" stroke-linecap="round" stroke-linejoin="round"/>
<path d="M346.351 260.041C355.958 260.041 363.747 252.934 363.747 244.167C363.747 235.4 355.958 228.292 346.351 228.292C336.744 228.292 328.956 235.4 328.956 244.167C328.956 252.934 336.744 260.041 346.351 260.041Z" stroke="#263238" stroke-linecap="round" stroke-linejoin="round"/>
<path d="M352.286 248.846C352.287 249.89 351.949 250.912 351.314 251.782C350.679 252.651 349.776 253.329 348.718 253.73C347.661 254.131 346.497 254.237 345.374 254.034C344.251 253.831 343.219 253.329 342.408 252.59C341.598 251.852 341.046 250.911 340.822 249.886C340.598 248.861 340.712 247.799 341.15 246.834C341.588 245.868 342.33 245.043 343.282 244.462C344.234 243.881 345.353 243.572 346.498 243.572C348.032 243.572 349.502 244.127 350.588 245.116C351.673 246.105 352.283 247.446 352.286 248.846Z" fill="white" stroke="#263238" stroke-linecap="round" stroke-linejoin="round"/>
<path d="M354.772 252.364C356.02 250.942 356.803 249.227 357.03 247.417C357.257 245.606 356.919 243.774 356.055 242.131C355.191 240.489 353.835 239.102 352.145 238.132C350.455 237.162 348.499 236.647 346.502 236.647C344.505 236.647 342.549 237.162 340.859 238.132C339.169 239.102 337.813 240.489 336.949 242.131C336.085 243.774 335.747 245.606 335.974 247.417C336.201 249.227 336.984 250.942 338.232 252.364H354.772Z" fill="white" stroke="#263238" stroke-linecap="round" stroke-linejoin="round"/>
<path d="M350.631 249.627H342.104C341.605 249.627 341.111 249.537 340.651 249.363C340.19 249.189 339.771 248.933 339.418 248.611C339.065 248.29 338.786 247.907 338.595 247.487C338.404 247.066 338.306 246.616 338.306 246.16C338.306 245.705 338.404 245.254 338.595 244.834C338.786 244.413 339.065 244.031 339.418 243.709C339.771 243.387 340.19 243.132 340.651 242.958C341.111 242.783 341.605 242.694 342.104 242.694H350.631C351.13 242.694 351.624 242.783 352.084 242.958C352.545 243.132 352.964 243.387 353.317 243.709C353.67 244.031 353.949 244.413 354.14 244.834C354.331 245.254 354.429 245.705 354.429 246.16C354.429 247.08 354.029 247.961 353.317 248.611C352.604 249.261 351.638 249.627 350.631 249.627Z" fill="white" stroke="#263238" stroke-linecap="round" stroke-linejoin="round"/>
<path d="M340.05 245.878C340.225 245.431 340.543 245.043 340.964 244.765C341.384 244.487 341.887 244.331 342.406 244.318C342.925 244.305 343.437 244.436 343.873 244.693C344.309 244.95 344.65 245.321 344.851 245.759" stroke="#263238" stroke-width="2" stroke-linecap="round" stroke-linejoin="round"/>
<path d="M348.022 245.878C348.197 245.431 348.515 245.043 348.936 244.765C349.356 244.487 349.859 244.331 350.378 244.318C350.898 244.305 351.409 244.436 351.845 244.693C352.282 244.95 352.623 245.321 352.824 245.759" stroke="#263238" stroke-width="2" stroke-linecap="round" stroke-linejoin="round"/>
<path d="M345.104 247.484C345.142 247.811 345.311 248.114 345.579 248.334C345.847 248.554 346.195 248.675 346.555 248.675C346.915 248.675 347.263 248.554 347.531 248.334C347.799 248.114 347.968 247.811 348.006 247.484H345.104Z" fill="white" stroke="#263238" stroke-linecap="round" stroke-linejoin="round"/>
<path d="M360.201 248.035C359.907 248.035 359.625 247.928 359.417 247.738C359.209 247.549 359.092 247.291 359.092 247.023V244.732C359.092 244.464 359.209 244.206 359.417 244.017C359.625 243.827 359.907 243.72 360.201 243.72C360.495 243.72 360.777 243.827 360.985 244.017C361.193 244.206 361.309 244.464 361.309 244.732V247.031C361.307 247.298 361.189 247.553 360.982 247.741C360.774 247.929 360.493 248.035 360.201 248.035Z" fill="#263238" stroke="#263238" stroke-linecap="round" stroke-linejoin="round"/>
<path d="M332.502 248.035C332.208 248.035 331.926 247.928 331.718 247.738C331.51 247.549 331.393 247.291 331.393 247.023V244.732C331.393 244.464 331.51 244.206 331.718 244.017C331.926 243.827 332.208 243.72 332.502 243.72C332.796 243.72 333.078 243.827 333.286 244.017C333.494 244.206 333.61 244.464 333.61 244.732V247.031C333.608 247.298 333.49 247.553 333.283 247.741C333.075 247.929 332.794 248.035 332.502 248.035Z" fill="#263238" stroke="#263238" stroke-linecap="round" stroke-linejoin="round"/>
<path d="M334.548 244.873C334.24 244.871 333.946 244.758 333.729 244.559C333.512 244.36 333.39 244.09 333.39 243.809V242.136C333.388 240.33 333.978 238.566 335.086 237.07C335.269 236.861 335.532 236.722 335.822 236.682C336.112 236.642 336.408 236.703 336.651 236.853C336.893 237.004 337.065 237.232 337.132 237.493C337.198 237.753 337.155 238.027 337.01 238.26C336.162 239.404 335.71 240.755 335.713 242.136V243.809C335.713 244.092 335.591 244.362 335.372 244.562C335.153 244.761 334.857 244.873 334.548 244.873Z" fill="#263238"/>
<path d="M357.062 238.201C356.968 238.201 356.875 238.18 356.791 238.139C356.707 238.099 356.635 238.041 356.581 237.97C355.835 236.952 354.825 236.118 353.64 235.542C352.456 234.966 351.134 234.665 349.791 234.667H343.319C341.978 234.668 340.658 234.969 339.474 235.544C338.29 236.118 337.279 236.949 336.529 237.963C336.486 238.02 336.431 238.07 336.367 238.108C336.303 238.146 336.232 238.173 336.157 238.186C336.082 238.199 336.005 238.199 335.93 238.185C335.856 238.171 335.785 238.143 335.722 238.104C335.658 238.065 335.604 238.015 335.562 237.957C335.52 237.899 335.491 237.834 335.477 237.765C335.463 237.697 335.463 237.627 335.479 237.558C335.494 237.49 335.524 237.425 335.567 237.368C336.421 236.208 337.576 235.258 338.927 234.602C340.279 233.945 341.788 233.603 343.319 233.604H349.791C351.324 233.604 352.834 233.948 354.187 234.606C355.54 235.264 356.696 236.215 357.552 237.375C357.596 237.433 357.626 237.499 357.642 237.568C357.658 237.638 357.658 237.709 357.643 237.779C357.627 237.848 357.597 237.914 357.553 237.972C357.51 238.031 357.454 238.081 357.389 238.119C357.291 238.175 357.178 238.203 357.062 238.201Z" fill="#263238"/>
<path d="M358.562 244.873C358.253 244.873 357.957 244.761 357.738 244.562C357.519 244.362 357.397 244.092 357.397 243.81V242.136C357.399 240.757 356.947 239.41 356.101 238.268C356.012 238.152 355.949 238.021 355.916 237.883C355.883 237.745 355.88 237.603 355.908 237.464C355.936 237.325 355.995 237.192 356.079 237.074C356.164 236.956 356.274 236.854 356.402 236.775C356.531 236.696 356.675 236.641 356.827 236.613C356.979 236.586 357.135 236.586 357.287 236.614C357.439 236.642 357.583 236.698 357.711 236.777C357.839 236.857 357.948 236.959 358.032 237.078C359.137 238.571 359.725 240.334 359.72 242.136V243.81C359.72 244.09 359.598 244.36 359.381 244.559C359.164 244.758 358.87 244.871 358.562 244.873Z" fill="#263238"/>
<path d="M334.694 249.545C334.085 249.545 333.5 249.324 333.069 248.93C332.638 248.537 332.396 248.003 332.396 247.447V244.107C332.396 243.551 332.638 243.017 333.069 242.624C333.5 242.23 334.085 242.009 334.694 242.009C335.304 242.009 335.889 242.23 336.32 242.624C336.751 243.017 336.993 243.551 336.993 244.107V247.447C336.991 248.003 336.748 248.535 336.318 248.928C335.887 249.321 335.303 249.543 334.694 249.545Z" fill="white" stroke="#263238" stroke-linecap="round" stroke-linejoin="round"/>
<path d="M334.931 242.009H334.458V249.537H334.931V242.009Z" fill="white" stroke="#263238" stroke-linecap="round" stroke-linejoin="round"/>
<path d="M360.437 244.107C360.437 242.949 359.408 242.009 358.138 242.009C356.869 242.009 355.84 242.949 355.84 244.107V247.44C355.84 248.598 356.869 249.537 358.138 249.537C359.408 249.537 360.437 248.598 360.437 247.44V244.107Z" fill="white" stroke="#263238" stroke-linecap="round" stroke-linejoin="round"/>
<path d="M358.375 242.009H357.902V249.537H358.375V242.009Z" fill="white" stroke="#263238" stroke-linecap="round" stroke-linejoin="round"/>
<path d="M346.539 241.325C347.349 241.322 348.145 241.136 348.856 240.783C349.568 240.429 350.172 239.921 350.615 239.302L351.617 237.888C350.027 237.088 348.239 236.674 346.423 236.686C344.608 236.697 342.826 237.135 341.248 237.955L342.748 239.666C343.205 240.183 343.783 240.599 344.438 240.886C345.094 241.173 345.812 241.323 346.539 241.325Z" fill="white" stroke="#263238" stroke-linecap="round" stroke-linejoin="round"/>
<path d="M346.62 250.482C346.715 250.482 346.791 250.412 346.791 250.326C346.791 250.239 346.715 250.17 346.62 250.17C346.526 250.17 346.449 250.239 346.449 250.326C346.449 250.412 346.526 250.482 346.62 250.482Z" fill="#263238"/>
<path d="M346.62 251.033C346.715 251.033 346.791 250.963 346.791 250.876C346.791 250.79 346.715 250.72 346.62 250.72C346.526 250.72 346.449 250.79 346.449 250.876C346.449 250.963 346.526 251.033 346.62 251.033Z" fill="#263238"/>
<path d="M346.115 250.787C346.158 250.775 346.194 250.748 346.215 250.712C346.237 250.676 346.242 250.633 346.229 250.594C346.212 250.555 346.181 250.523 346.14 250.504C346.1 250.485 346.053 250.48 346.009 250.49C345.967 250.503 345.932 250.53 345.911 250.566C345.89 250.602 345.884 250.644 345.895 250.683C345.901 250.703 345.912 250.722 345.927 250.739C345.942 250.755 345.96 250.768 345.98 250.778C346.001 250.788 346.023 250.794 346.047 250.795C346.07 250.797 346.093 250.794 346.115 250.787Z" fill="#263238"/>
<path d="M347.183 250.787C347.226 250.775 347.262 250.748 347.283 250.712C347.305 250.675 347.31 250.633 347.297 250.594C347.282 250.554 347.251 250.521 347.21 250.501C347.169 250.482 347.121 250.478 347.077 250.489C347.055 250.495 347.036 250.505 347.019 250.518C347.002 250.531 346.988 250.547 346.978 250.565C346.968 250.583 346.962 250.603 346.961 250.623C346.96 250.644 346.963 250.664 346.971 250.683C346.976 250.703 346.986 250.722 347 250.738C347.014 250.754 347.032 250.768 347.052 250.778C347.072 250.787 347.093 250.793 347.116 250.795C347.139 250.796 347.161 250.794 347.183 250.787Z" fill="#263238"/>
<path d="M260.116 282.543H324.978V244.903V237.911L317.307 244.903H260.116V282.543Z" fill="white" stroke="#263238" stroke-linecap="round" stroke-linejoin="round"/>
<path d="M303.425 253.606H318.693" stroke="#263238" stroke-linecap="round" stroke-linejoin="round"/>
<path d="M282.06 253.606H299.504" stroke="#263238" stroke-linecap="round" stroke-linejoin="round"/>
<path d="M268.976 253.606H279.003" stroke="#263238" stroke-linecap="round" stroke-linejoin="round"/>
<path d="M296.447 257.988H318.693" stroke="#263238" stroke-linecap="round" stroke-linejoin="round"/>
<path d="M268.976 257.988H292.526" stroke="#263238" stroke-linecap="round" stroke-linejoin="round"/>
<path d="M314.332 262.362H318.693" stroke="#263238" stroke-linecap="round" stroke-linejoin="round"/>
<path d="M289.91 262.362H310.843" stroke="#263238" stroke-linecap="round" stroke-linejoin="round"/>
<path d="M268.976 262.362H286.421" stroke="#263238" stroke-linecap="round" stroke-linejoin="round"/>
<path d="M303.425 265.947H318.693" stroke="#263238" stroke-linecap="round" stroke-linejoin="round"/>
<path d="M282.06 265.947H299.504" stroke="#263238" stroke-linecap="round" stroke-linejoin="round"/>
<path d="M268.976 265.947H279.003" stroke="#263238" stroke-linecap="round" stroke-linejoin="round"/>
<path d="M296.447 270.321H318.693" stroke="#263238" stroke-linecap="round" stroke-linejoin="round"/>
<path d="M268.976 270.321H292.526" stroke="#263238" stroke-linecap="round" stroke-linejoin="round"/>
<path d="M314.332 274.695H318.693" stroke="#263238" stroke-linecap="round" stroke-linejoin="round"/>
<path d="M289.91 274.695H310.843" stroke="#263238" stroke-linecap="round" stroke-linejoin="round"/>
<path d="M268.976 274.695H286.421" stroke="#263238" stroke-linecap="round" stroke-linejoin="round"/>
<path d="M357.682 17.5392H324.032C323.679 19.2398 322.688 20.7749 321.228 21.8802C319.769 22.9854 317.932 23.5916 316.035 23.5943H267.86C265.963 23.5916 264.127 22.9854 262.667 21.8802C261.207 20.7749 260.216 19.2398 259.863 17.5392H226.254C223.443 17.5392 220.748 18.558 218.761 20.3716C216.773 22.1851 215.657 24.6448 215.657 27.2095V286.82C215.657 289.385 216.773 291.845 218.761 293.658C220.748 295.472 223.443 296.49 226.254 296.49H357.682C360.492 296.49 363.188 295.472 365.175 293.658C367.163 291.845 368.279 289.385 368.279 286.82V27.2095C368.279 24.6448 367.163 22.1851 365.175 20.3716C363.188 18.558 360.492 17.5392 357.682 17.5392V17.5392Z" stroke="#263238" stroke-width="2" stroke-linecap="round" stroke-linejoin="round"/>
<path d="M368.279 35.0573V27.2169C368.279 24.6522 367.163 22.1925 365.175 20.379C363.188 18.5655 360.492 17.5466 357.682 17.5466H324.032C323.679 19.2473 322.688 20.7824 321.228 21.8876C319.769 22.9929 317.932 23.599 316.035 23.6017H267.86C265.962 23.5987 264.125 22.9915 262.665 21.8848C261.205 20.778 260.214 19.2412 259.863 17.5392H226.254C223.443 17.5392 220.748 18.558 218.761 20.3716C216.773 22.1851 215.657 24.6448 215.657 27.2095V35.0573H368.279Z" stroke="#263238" stroke-width="2" stroke-linecap="round" stroke-linejoin="round"/>
<path d="M229.637 24.5465C229.637 26.4508 227.289 27.1351 227.281 28.5857V28.6824H229.555V29.3295H226.523V28.7865C226.523 26.7781 228.887 26.3466 228.887 24.5465C228.887 23.8919 228.651 23.5497 228.072 23.5497C227.493 23.5497 227.257 23.9216 227.257 24.4795V25.0374H226.539V24.5465C226.539 23.5794 227.02 22.9397 228.088 22.9397C229.156 22.9397 229.637 23.5794 229.637 24.5465Z" fill="#263238"/>
<path d="M233.419 24.5465V24.7101C233.454 24.9772 233.394 25.2474 233.247 25.4806C233.1 25.7138 232.874 25.8975 232.604 26.0045C232.877 26.1121 233.105 26.2982 233.252 26.5344C233.399 26.7707 233.458 27.0442 233.419 27.3137V27.7972C233.419 28.7642 232.922 29.3965 231.862 29.3965C230.803 29.3965 230.305 28.7642 230.305 27.7972V27.3657H231.031V27.8418C231.031 28.4146 231.283 28.7568 231.846 28.7568C232.408 28.7568 232.661 28.422 232.661 27.7823V27.2988C232.661 26.6739 232.368 26.3764 231.789 26.3541H231.332V25.7292H231.789C231.909 25.7308 232.027 25.7083 232.136 25.6633C232.246 25.6183 232.343 25.5518 232.42 25.4687C232.498 25.3856 232.555 25.2879 232.587 25.1825C232.619 25.0771 232.624 24.9666 232.604 24.8589V24.5465C232.604 23.8993 232.351 23.5646 231.789 23.5646C231.226 23.5646 230.974 23.9142 230.974 24.487V24.8143H230.248V24.5465C230.248 23.5794 230.745 22.9546 231.805 22.9546C232.865 22.9546 233.419 23.572 233.419 24.5465Z" fill="#263238"/>
<path d="M234.911 25.0151V25.8929H234.169V25.0151H234.911ZM234.911 28.4518V29.3296H234.169V28.4518H234.911Z" fill="#263238"/>
<path d="M236.476 25.5804C236.577 25.4151 236.727 25.2788 236.908 25.1868C237.09 25.0948 237.296 25.0508 237.503 25.0597C238.392 25.0597 238.791 25.6548 238.791 26.5474V27.7822C238.791 28.7493 238.286 29.3816 237.226 29.3816C236.166 29.3816 235.677 28.7493 235.677 27.7822V27.3582H236.394V27.8269C236.394 28.3997 236.655 28.7418 237.21 28.7418C237.764 28.7418 238.025 28.3997 238.025 27.8269V26.6144C238.025 26.0416 237.772 25.6994 237.21 25.6994C237.106 25.69 237.002 25.7006 236.903 25.7304C236.805 25.7602 236.714 25.8085 236.637 25.8724C236.56 25.9362 236.499 26.014 236.457 26.1008C236.415 26.1877 236.394 26.2815 236.394 26.3763V26.5177H235.669L235.856 23.014H238.587V23.6463H236.549L236.476 25.5804Z" fill="#263238"/>
<path d="M242.63 24.5464V24.658H241.929V24.4944C241.929 23.929 241.669 23.5943 241.114 23.5943C240.56 23.5943 240.299 23.9365 240.299 24.6134V26.0342C240.379 25.8255 240.531 25.6464 240.733 25.5242C240.934 25.402 241.174 25.3433 241.416 25.3572C242.304 25.3572 242.704 25.9375 242.704 26.845V27.7971C242.704 28.7642 242.182 29.3965 241.122 29.3965C240.063 29.3965 239.484 28.7567 239.484 27.7897V24.5464C239.484 23.5422 239.973 22.9174 241.074 22.9174C242.174 22.9174 242.63 23.5645 242.63 24.5464ZM240.25 26.9045V27.8492C240.25 28.422 240.511 28.7642 241.065 28.7642C241.62 28.7642 241.881 28.422 241.881 27.8492V26.8896C241.881 26.3243 241.612 25.9821 241.065 25.9821C240.519 25.9821 240.25 26.3243 240.25 26.8896V26.9045Z" fill="#263238"/>
<path d="M328.067 24.8068H326.111V29.2625H328.067V24.8068Z" fill="#263238"/>
<path d="M330.676 23.9142H328.719V29.2626H330.676V23.9142Z" fill="#263238"/>
<path d="M333.276 23.2819H331.32V29.2626H333.276V23.2819Z" fill="#263238"/>
<path d="M335.885 22.1736H333.928V29.2627H335.885V22.1736Z" fill="#263238"/>
<path d="M360.054 29.136H348.332V22.6049H360.054V29.136ZM348.984 28.5484H359.402V23.2H348.984V28.5484Z" fill="#263238"/>
<path d="M356.149 23.8472H349.962V27.9013H356.149V23.8472Z" fill="#263238"/>
<path d="M361.122 25.1044H359.646V26.6442H361.122V25.1044Z" fill="#263238"/>
<path d="M344.036 27.7153C343.959 27.7166 343.883 27.6986 343.816 27.6632C341.428 26.3689 339.854 27.5665 339.789 27.6186C339.747 27.6579 339.696 27.6889 339.64 27.7094C339.584 27.73 339.523 27.7398 339.463 27.7382C339.402 27.7365 339.343 27.7236 339.288 27.7C339.233 27.6765 339.185 27.6429 339.145 27.6014C339.105 27.5599 339.075 27.5113 339.056 27.4587C339.038 27.4061 339.032 27.3506 339.038 27.2957C339.044 27.2407 339.063 27.1876 339.092 27.1395C339.122 27.0913 339.162 27.0493 339.21 27.0161C339.292 26.9491 341.314 25.3721 344.264 26.9714C344.362 27.0282 344.432 27.1172 344.459 27.2197C344.486 27.3223 344.469 27.4306 344.411 27.5219C344.373 27.5813 344.318 27.6304 344.252 27.6643C344.186 27.6982 344.112 27.7158 344.036 27.7153Z" fill="#263238"/>
<path d="M344.917 26.3763C344.839 26.3749 344.763 26.3544 344.696 26.3168C341.248 24.4497 338.925 26.2573 338.901 26.2722C338.858 26.3063 338.808 26.3325 338.754 26.3491C338.7 26.3658 338.643 26.3726 338.587 26.3691C338.53 26.3657 338.474 26.352 338.423 26.329C338.372 26.306 338.327 26.274 338.289 26.235C338.252 26.1959 338.223 26.1505 338.205 26.1013C338.187 26.0521 338.179 26.0001 338.183 25.9483C338.187 25.8965 338.202 25.8459 338.227 25.7993C338.252 25.7528 338.287 25.7112 338.33 25.6771C338.33 25.6771 341.151 23.4454 345.145 25.6324C345.244 25.6879 345.315 25.7769 345.343 25.88C345.37 25.9832 345.352 26.0921 345.292 26.1829C345.252 26.2417 345.197 26.2904 345.132 26.3243C345.066 26.3582 344.992 26.3761 344.917 26.3763Z" fill="#263238"/>
<path d="M345.724 24.8216C345.643 24.8202 345.564 24.7997 345.495 24.7621C341.126 22.3966 338.224 24.6282 338.102 24.7249C338.013 24.7861 337.902 24.8143 337.792 24.804C337.681 24.7936 337.579 24.7454 337.506 24.6691C337.432 24.5928 337.393 24.4941 337.397 24.3926C337.4 24.2912 337.445 24.1947 337.523 24.1224C337.564 24.1224 341.012 21.3998 345.944 24.0778C345.993 24.1046 346.037 24.1402 346.072 24.1824C346.106 24.2246 346.132 24.2726 346.146 24.3237C346.16 24.3748 346.164 24.428 346.156 24.4803C346.147 24.5325 346.128 24.5828 346.099 24.6282C346.059 24.6866 346.004 24.7349 345.938 24.7687C345.873 24.8025 345.799 24.8207 345.724 24.8216Z" fill="#263238"/>
<path d="M342.716 28.3848C342.717 28.584 342.654 28.7792 342.534 28.9455C342.413 29.1117 342.241 29.2416 342.04 29.3185C341.839 29.3954 341.617 29.416 341.403 29.3775C341.188 29.3389 340.991 29.2431 340.837 29.1023C340.683 28.9614 340.578 28.7818 340.535 28.5863C340.493 28.3908 340.516 28.1882 340.6 28.0044C340.684 27.8206 340.827 27.6639 341.009 27.5541C341.191 27.4443 341.405 27.3865 341.623 27.388C341.913 27.388 342.191 27.493 342.396 27.6799C342.601 27.8669 342.716 28.1204 342.716 28.3848Z" fill="#263238"/>
<path d="M356.052 308.34H373.17" stroke="#263238" stroke-linecap="round" stroke-linejoin="round"/>
<path d="M33.2489 308.34H350.346" stroke="#263238" stroke-linecap="round" stroke-linejoin="round"/>
<path d="M10.9543 308.34H22.6518" stroke="#263238" stroke-linecap="round" stroke-linejoin="round"/>
<path d="M128.362 208.163H115.906V306.949H128.362V208.163Z" fill="#263238" stroke="#263238" stroke-linecap="round" stroke-linejoin="round"/>
<path d="M29.597 243.936V250.884H79.2401V243.936H29.597Z" fill="#263238" stroke="#263238" stroke-linecap="round" stroke-linejoin="round"/>
<path d="M34.6999 219.954H27.0863V247.752H34.6999V219.954Z" fill="#263238" stroke="#263238" stroke-linecap="round" stroke-linejoin="round"/>
<path d="M37.8708 247.871C37.8708 248.707 37.6903 249.535 37.3395 250.307C36.9887 251.079 36.4746 251.78 35.8266 252.371C35.1785 252.962 34.4092 253.43 33.5627 253.749C32.7162 254.068 31.809 254.232 30.8931 254.231C30.6648 254.231 30.4366 254.231 30.2165 254.231C28.9468 254.117 27.7359 253.687 26.7154 252.988C25.6949 252.289 24.9038 251.349 24.4282 250.268C23.9526 249.188 23.8107 248.009 24.0179 246.861C24.2251 245.712 24.7734 244.637 25.6033 243.753C26.4333 242.868 27.513 242.209 28.725 241.845C29.9371 241.482 31.2352 241.429 32.4781 241.691C33.721 241.954 34.8611 242.523 35.7745 243.336C36.6879 244.149 37.3397 245.174 37.6589 246.302C37.7981 246.815 37.8692 247.342 37.8708 247.871Z" fill="white" stroke="#263238" stroke-linecap="round" stroke-linejoin="round"/>
<path d="M38.3844 224.238C38.38 225.925 37.6432 227.542 36.3354 228.734C35.0275 229.926 33.2551 230.596 31.4066 230.598C31.1784 230.598 30.9501 230.598 30.7219 230.598C29.4516 230.487 28.2391 230.06 27.2161 229.364C26.1932 228.668 25.3991 227.729 24.9201 226.65C24.4411 225.571 24.2957 224.392 24.4995 223.243C24.7034 222.093 25.2488 221.017 26.0764 220.13C26.904 219.244 27.9822 218.582 29.1935 218.215C30.4048 217.849 31.703 217.793 32.9468 218.053C34.1907 218.314 35.3325 218.88 36.248 219.691C37.1636 220.502 37.818 221.527 38.1398 222.654C38.2964 223.17 38.3786 223.703 38.3844 224.238Z" fill="white" stroke="#263238" stroke-linecap="round" stroke-linejoin="round"/>
<path d="M50.8782 206.98L40.7295 211.967L42.8319 215.53L52.9805 210.543L50.8782 206.98Z" fill="#263238" stroke="#263238" stroke-linecap="round" stroke-linejoin="round"/>
<path d="M54.6631 210.93L49.6662 213.385L46.4707 207.977L51.4758 205.515C51.8685 205.319 52.3003 205.196 52.7458 205.154C53.1913 205.112 53.6415 205.152 54.0699 205.271C54.4983 205.39 54.8962 205.586 55.2403 205.848C55.5843 206.11 55.8675 206.431 56.0733 206.794C56.4823 207.514 56.5637 208.353 56.2996 209.127C56.0356 209.901 55.4475 210.549 54.6631 210.93Z" fill="white" stroke="#263238" stroke-linecap="round" stroke-linejoin="round"/>
<path d="M32.7598 187.997L32.4011 206.861L27.9748 206.794L28.3253 187.93L32.7598 187.997Z" fill="#263238" stroke="#263238" stroke-linecap="round" stroke-linejoin="round"/>
<path d="M33.958 186.859L33.8684 192.066L27.1352 191.917L27.2248 186.71C27.2323 186.307 27.3267 185.908 27.5028 185.538C27.6789 185.168 27.9332 184.833 28.2511 184.553C28.569 184.272 28.9444 184.052 29.3557 183.904C29.7671 183.756 30.2064 183.683 30.6485 183.69C31.0952 183.696 31.5361 183.783 31.9455 183.946C32.3549 184.109 32.7245 184.345 33.0327 184.64C33.3409 184.935 33.5815 185.283 33.7404 185.664C33.8993 186.045 33.9733 186.452 33.958 186.859Z" fill="white" stroke="#263238" stroke-linecap="round" stroke-linejoin="round"/>
<path d="M49.3238 194.841L39.5989 211.488L35.6862 209.592L45.4029 192.944L49.3238 194.841Z" fill="#263238" stroke="#263238" stroke-linecap="round" stroke-linejoin="round"/>
<path d="M50.9541 194.327L48.2885 198.902L42.346 196.023L45.0035 191.441C45.4239 190.724 46.1382 190.188 46.9904 189.949C47.8425 189.711 48.7635 189.79 49.552 190.169C50.3415 190.552 50.9325 191.204 51.1954 191.984C51.4582 192.763 51.3715 193.606 50.9541 194.327Z" fill="white" stroke="#263238" stroke-linecap="round" stroke-linejoin="round"/>
<path d="M17.0435 194.766L26.6787 211.459L22.7578 213.348L13.1226 196.656L17.0435 194.766Z" fill="#263238" stroke="#263238" stroke-linecap="round" stroke-linejoin="round"/>
<path d="M26.0836 206.869C25.9407 206.097 25.5501 205.381 24.961 204.811C24.372 204.242 23.6112 203.845 22.7747 203.67C21.9383 203.496 21.0639 203.551 20.2622 203.83C19.4604 204.109 18.7674 204.599 18.2709 205.238C17.7743 205.876 17.4965 206.635 17.4726 207.418C17.4487 208.2 17.6797 208.972 18.1365 209.635C18.5933 210.298 19.2554 210.822 20.0388 211.141C20.8222 211.461 21.6919 211.561 22.5377 211.429C23.67 211.252 24.6794 210.673 25.3442 209.818C26.009 208.963 26.2749 207.903 26.0836 206.869Z" fill="white" stroke="#263238" stroke-linecap="round" stroke-linejoin="round"/>
<path d="M30.3224 207.39C32.7175 207.39 34.6591 205.618 34.6591 203.432C34.6591 201.247 32.7175 199.475 30.3224 199.475C27.9274 199.475 25.9858 201.247 25.9858 203.432C25.9858 205.618 27.9274 207.39 30.3224 207.39Z" fill="white" stroke="#263238" stroke-linecap="round" stroke-linejoin="round"/>
<path d="M44.4736 205.716C44.6041 204.942 44.4801 204.15 44.1174 203.441C43.7547 202.731 43.1694 202.136 42.4358 201.73C41.7022 201.324 40.8531 201.126 39.9959 201.16C39.1388 201.195 38.3122 201.461 37.6206 201.924C36.9291 202.388 36.4037 203.028 36.111 203.764C35.8183 204.5 35.7713 205.298 35.9761 206.059C36.181 206.819 36.6283 207.507 37.2616 208.035C37.8948 208.563 38.6856 208.908 39.5337 209.026C40.0964 209.105 40.6706 209.083 41.2235 208.959C41.7765 208.835 42.2973 208.614 42.7562 208.306C43.2151 207.999 43.6029 207.612 43.8976 207.167C44.1923 206.723 44.3881 206.229 44.4736 205.716Z" fill="white" stroke="#263238" stroke-linecap="round" stroke-linejoin="round"/>
<path d="M17.4919 193.241L20.1493 197.824L14.1986 200.702L11.5412 196.113C11.3336 195.756 11.2052 195.366 11.1634 194.964C11.1215 194.562 11.1671 194.157 11.2973 193.771C11.4276 193.386 11.6401 193.027 11.9225 192.717C12.205 192.406 12.5519 192.15 12.9433 191.962C13.7328 191.583 14.6545 191.505 15.5068 191.745C16.3592 191.985 17.0728 192.523 17.4919 193.241Z" fill="white" stroke="#263238" stroke-linecap="round" stroke-linejoin="round"/>
<path d="M43.6421 214.508C43.6421 217.468 42.3539 220.306 40.0608 222.398C37.7677 224.491 34.6577 225.667 31.4148 225.667C31.0072 225.667 30.5996 225.667 30.2165 225.622C27.9922 225.421 25.871 224.667 24.0833 223.443C22.2955 222.218 20.9098 220.57 20.0766 218.678C19.2434 216.785 18.9947 214.72 19.3574 212.707C19.7201 210.695 20.6805 208.811 22.1341 207.262C23.5876 205.712 25.4788 204.556 27.602 203.919C29.7253 203.282 31.9993 203.188 34.177 203.647C36.3547 204.106 38.3528 205.102 39.954 206.525C41.5552 207.948 42.6983 209.745 43.259 211.719C43.5118 212.631 43.6405 213.568 43.6421 214.508Z" fill="white" stroke="#263238" stroke-linecap="round" stroke-linejoin="round"/>
<path d="M43.6421 214.508C43.6421 217.468 42.3539 220.306 40.0608 222.398C37.7677 224.491 34.6577 225.667 31.4148 225.667C31.0072 225.667 30.5996 225.667 30.2165 225.622C29.748 223.971 29.7005 222.244 30.0775 220.574C30.4546 218.903 31.2462 217.334 32.3915 215.987C33.5368 214.639 35.0054 213.549 36.6844 212.8C38.3634 212.051 40.2082 211.664 42.077 211.667C42.4765 211.667 42.8922 211.667 43.2753 211.719C43.5226 212.632 43.6458 213.568 43.6421 214.508Z" fill="white" stroke="#263238" stroke-linecap="round" stroke-linejoin="round"/>
<path d="M105.212 248.072C107.288 239.976 101.778 231.876 92.9059 229.982C84.0335 228.087 75.158 233.115 73.0819 241.211C71.0058 249.308 76.5153 257.407 85.3877 259.302C94.2601 261.196 103.136 256.169 105.212 248.072Z" fill="white" stroke="#263238" stroke-linecap="round" stroke-linejoin="round"/>
<path d="M92.2122 251.375C96.2883 249.823 98.2145 245.55 96.5144 241.83C94.8143 238.111 90.1318 236.353 86.0556 237.904C81.9795 239.456 80.0533 243.729 81.7534 247.449C83.4535 251.168 88.136 252.926 92.2122 251.375Z" fill="#263238" stroke="#263238" stroke-linecap="round" stroke-linejoin="round"/>
<path d="M86.3075 308.34H159.509L160.56 303.817C160.982 302.011 160.603 300.125 159.507 298.573C158.41 297.02 156.685 295.926 154.707 295.531C144.331 293.403 121.865 292.637 121.865 292.637C116.452 292.793 101.388 293.381 91.011 295.538C89.0476 295.947 87.3396 297.045 86.2564 298.595C85.1733 300.144 84.8022 302.02 85.2234 303.817L86.3075 308.34Z" fill="white" stroke="#263238" stroke-linecap="round" stroke-linejoin="round"/>
<path d="M140.524 293.738C131.149 292.95 121.889 292.637 121.889 292.637C118.482 292.734 111.243 293.009 103.76 293.738C105.945 300.544 113.346 305.558 122.142 305.558C130.937 305.558 138.339 300.522 140.524 293.738Z" fill="white" stroke="#263238" stroke-linecap="round" stroke-linejoin="round"/>
<path d="M198.598 276.444L203.152 270.875L163.364 243.783L158.811 249.351L198.598 276.444Z" fill="#263238" stroke="#263238" stroke-linecap="round" stroke-linejoin="round"/>
<path d="M178.799 292.882L184.901 297.037L203.118 274.758L197.016 270.603L178.799 292.882Z" fill="#263238" stroke="#263238" stroke-linecap="round" stroke-linejoin="round"/>
<path d="M194.544 268.774C195.093 268.102 195.782 267.536 196.57 267.108C197.359 266.679 198.233 266.397 199.141 266.277C200.05 266.156 200.975 266.201 201.865 266.407C202.755 266.614 203.591 266.978 204.326 267.479L204.856 267.874C205.799 268.658 206.488 269.664 206.848 270.781C207.208 271.898 207.225 273.084 206.899 274.21C206.572 275.335 205.913 276.357 204.994 277.165C204.074 277.973 202.93 278.535 201.685 278.79C200.44 279.046 199.143 278.985 197.933 278.615C196.723 278.244 195.648 277.578 194.824 276.688C194.001 275.799 193.46 274.721 193.261 273.57C193.062 272.42 193.213 271.242 193.697 270.165C193.915 269.671 194.2 269.204 194.544 268.774Z" fill="white" stroke="#263238" stroke-linecap="round" stroke-linejoin="round"/>
<path d="M178.624 286.575C179.658 285.174 181.259 284.205 183.075 283.882C184.891 283.558 186.773 283.906 188.308 284.849C188.496 284.96 188.675 285.087 188.854 285.213C189.839 285.955 190.581 286.928 191.001 288.028C191.422 289.127 191.503 290.311 191.238 291.45C190.972 292.589 190.369 293.64 189.494 294.488C188.62 295.336 187.507 295.949 186.278 296.26C185.048 296.571 183.748 296.569 182.52 296.253C181.292 295.937 180.182 295.32 179.311 294.469C178.441 293.617 177.842 292.564 177.582 291.424C177.321 290.284 177.408 289.101 177.834 288.003C178.031 287.499 178.297 287.019 178.624 286.575Z" fill="white" stroke="#263238" stroke-linecap="round" stroke-linejoin="round"/>
<path d="M157.671 294.544L169.143 295.572L169.576 291.545L158.105 290.517L157.671 294.544Z" fill="#263238" stroke="#263238" stroke-linecap="round" stroke-linejoin="round"/>
<path d="M156.974 289.364L162.631 289.87L161.971 295.985L156.313 295.479C155.425 295.4 154.607 295.002 154.04 294.373C153.473 293.744 153.203 292.935 153.289 292.124C153.378 291.313 153.815 290.566 154.506 290.049C155.197 289.532 156.084 289.285 156.974 289.364Z" fill="white" stroke="#263238" stroke-linecap="round" stroke-linejoin="round"/>
<path d="M168.304 291.968C169.2 290.749 170.351 289.704 171.69 288.892C173.029 288.08 174.53 287.517 176.108 287.235C177.686 286.953 179.31 286.958 180.886 287.249C182.462 287.54 183.959 288.113 185.292 288.933C185.626 289.141 185.944 289.357 186.254 289.587C187.978 290.887 189.277 292.593 190.013 294.52C190.748 296.446 190.89 298.52 190.424 300.516C189.957 302.511 188.9 304.351 187.368 305.837C185.835 307.322 183.886 308.396 181.731 308.941C179.577 309.486 177.3 309.482 175.148 308.928C172.996 308.375 171.052 307.293 169.526 305.802C168.001 304.31 166.953 302.466 166.496 300.469C166.039 298.472 166.191 296.398 166.935 294.474C167.272 293.589 167.733 292.747 168.304 291.968Z" fill="white" stroke="#263238" stroke-linecap="round" stroke-linejoin="round"/>
<path d="M155.131 303.557L170.293 293.21L172.731 296.178L157.569 306.518L155.131 303.557Z" fill="#263238" stroke="#263238" stroke-linecap="round" stroke-linejoin="round"/>
<path d="M153.558 303.401L157.724 300.522L161.424 304.986L157.259 307.835C156.605 308.281 155.783 308.473 154.975 308.367C154.166 308.261 153.437 307.866 152.947 307.269C152.477 306.679 152.278 305.944 152.392 305.222C152.507 304.5 152.925 303.847 153.558 303.401Z" fill="white" stroke="#263238" stroke-linecap="round" stroke-linejoin="round"/>
<path d="M174.711 296.401C174.904 295.637 174.844 294.838 174.538 294.105C174.232 293.373 173.695 292.74 172.995 292.286C172.294 291.832 171.462 291.579 170.603 291.558C169.744 291.536 168.898 291.748 168.171 292.167C167.445 292.585 166.871 293.191 166.522 293.907C166.173 294.624 166.066 295.418 166.213 296.191C166.36 296.963 166.755 297.678 167.348 298.245C167.941 298.813 168.705 299.206 169.543 299.376C170.661 299.603 171.831 299.418 172.799 298.86C173.767 298.303 174.455 297.419 174.711 296.401Z" fill="white" stroke="#263238" stroke-linecap="round" stroke-linejoin="round"/>
<path d="M182.749 313.956L184.999 299.763L188.333 300.195L186.091 314.388L182.749 313.956Z" fill="#263238" stroke="#263238" stroke-linecap="round" stroke-linejoin="round"/>
<path d="M181.73 314.708L182.341 310.802L187.403 311.465L186.792 315.362C186.745 315.666 186.633 315.959 186.462 316.223C186.291 316.487 186.065 316.718 185.796 316.903C185.527 317.087 185.221 317.221 184.896 317.298C184.57 317.374 184.231 317.392 183.898 317.349C183.227 317.26 182.622 316.932 182.216 316.437C181.809 315.942 181.634 315.32 181.73 314.708Z" fill="white" stroke="#263238" stroke-linecap="round" stroke-linejoin="round"/>
<path d="M189.637 299.265C189.253 298.719 188.701 298.29 188.05 298.03C187.398 297.771 186.677 297.693 185.978 297.808C185.279 297.922 184.632 298.223 184.12 298.672C183.608 299.122 183.253 299.7 183.1 300.333C182.948 300.966 183.005 301.627 183.263 302.231C183.522 302.835 183.971 303.355 184.553 303.726C185.136 304.098 185.826 304.303 186.536 304.317C187.247 304.33 187.946 304.151 188.545 303.803C189.348 303.333 189.915 302.591 190.119 301.74C190.324 300.889 190.151 299.999 189.637 299.265Z" fill="white" stroke="#263238" stroke-linecap="round" stroke-linejoin="round"/>
<path d="M167.742 312.067L177.85 297.457L181.282 299.421L171.182 314.038L167.742 312.067Z" fill="#263238" stroke="#263238" stroke-linecap="round" stroke-linejoin="round"/>
<path d="M166.218 312.424L168.981 308.407L174.206 311.383L171.435 315.407C170.998 316.037 170.307 316.483 169.511 316.649C168.715 316.815 167.88 316.687 167.188 316.292C166.498 315.896 166.009 315.266 165.827 314.541C165.645 313.816 165.786 313.055 166.218 312.424Z" fill="white" stroke="#263238" stroke-linecap="round" stroke-linejoin="round"/>
<path d="M183.238 298.99C183.117 298.215 182.747 297.491 182.174 296.908C181.601 296.326 180.852 295.912 180.021 295.719C179.19 295.526 178.315 295.562 177.507 295.824C176.699 296.085 175.994 296.559 175.482 297.187C174.969 297.814 174.673 298.566 174.63 299.348C174.587 300.129 174.799 300.905 175.239 301.576C175.68 302.247 176.329 302.784 177.104 303.118C177.88 303.452 178.746 303.569 179.594 303.453C180.725 303.3 181.744 302.745 182.427 301.908C183.11 301.072 183.401 300.022 183.238 298.99Z" fill="white" stroke="#263238" stroke-linecap="round" stroke-linejoin="round"/>
<path d="M164.512 257.563C172.174 253.062 174.387 243.746 169.455 236.754C164.523 229.762 154.314 227.743 146.652 232.243C138.99 236.744 136.777 246.061 141.709 253.052C146.641 260.044 156.851 262.064 164.512 257.563Z" fill="white" stroke="#263238" stroke-linecap="round" stroke-linejoin="round"/>
<path d="M162.857 247.951C164.699 244.288 162.937 239.956 158.923 238.276C154.908 236.596 150.162 238.203 148.32 241.866C146.479 245.53 148.241 249.861 152.255 251.542C156.269 253.222 161.016 251.614 162.857 247.951Z" fill="#263238" stroke="#263238" stroke-linecap="round" stroke-linejoin="round"/>
<path d="M122.134 215.066C136.77 215.066 148.635 204.239 148.635 190.883C148.635 177.527 136.77 166.7 122.134 166.7C107.498 166.7 95.6329 177.527 95.6329 190.883C95.6329 204.239 107.498 215.066 122.134 215.066Z" fill="white" stroke="#263238" stroke-linecap="round" stroke-linejoin="round"/>
<path d="M160.022 206.988C165.714 200.477 169.275 192.632 170.298 184.355C171.32 176.079 169.762 167.707 165.802 160.203C161.843 152.699 155.642 146.367 147.914 141.935C140.186 137.504 131.245 135.153 122.117 135.153C112.99 135.153 104.049 137.504 96.3206 141.935C88.5926 146.367 82.3922 152.699 78.4325 160.203C74.4727 167.707 72.9145 176.079 73.9371 184.355C74.9596 192.632 78.5213 200.477 84.2126 206.988H160.022Z" fill="white" stroke="#263238" stroke-linecap="round" stroke-linejoin="round"/>
<path d="M151.789 162.698H91.2556C87.5729 162.698 84.5876 165.422 84.5876 168.783V188.362C84.5876 191.722 87.5729 194.446 91.2556 194.446H151.789C155.472 194.446 158.457 191.722 158.457 188.362V168.783C158.457 165.422 155.472 162.698 151.789 162.698Z" fill="white" stroke="#263238" stroke-linecap="round" stroke-linejoin="round"/>
<path d="M92.5761 177.285C93.3767 175.24 94.8358 173.463 96.7621 172.187C98.6885 170.911 100.992 170.196 103.372 170.136C105.751 170.076 108.095 170.673 110.096 171.849C112.097 173.025 113.662 174.725 114.585 176.727" stroke="#263238" stroke-width="5" stroke-linecap="round" stroke-linejoin="round"/>
<path d="M129.087 177.285C129.888 175.24 131.347 173.463 133.273 172.187C135.199 170.911 137.503 170.196 139.883 170.136C142.262 170.076 144.606 170.673 146.607 171.849C148.608 173.025 150.173 174.725 151.096 176.727" stroke="#263238" stroke-width="5" stroke-linecap="round" stroke-linejoin="round"/>
<path d="M115.743 184.642C115.948 186.117 116.735 187.474 117.957 188.457C119.18 189.44 120.753 189.982 122.382 189.982C124.012 189.982 125.585 189.44 126.808 188.457C128.03 187.474 128.817 186.117 129.022 184.642H115.743Z" fill="white" stroke="#263238" stroke-linecap="round" stroke-linejoin="round"/>
<path d="M184.868 187.156C183.524 187.156 182.234 186.669 181.283 185.801C180.332 184.933 179.798 183.757 179.798 182.529V172.004C179.797 171.395 179.927 170.793 180.182 170.231C180.436 169.669 180.809 169.158 181.28 168.727C181.751 168.297 182.31 167.955 182.926 167.722C183.542 167.489 184.202 167.369 184.868 167.369C185.535 167.368 186.195 167.487 186.811 167.719C187.427 167.952 187.987 168.292 188.459 168.722C188.931 169.152 189.305 169.662 189.56 170.224C189.815 170.786 189.947 171.388 189.947 171.996V182.522C189.948 183.131 189.817 183.734 189.562 184.297C189.308 184.859 188.934 185.371 188.462 185.801C187.99 186.232 187.43 186.573 186.813 186.806C186.196 187.038 185.536 187.157 184.868 187.156Z" fill="#263238" stroke="#263238" stroke-linecap="round" stroke-linejoin="round"/>
<path d="M58.0134 187.156C57.3469 187.157 56.6867 187.038 56.0706 186.806C55.4545 186.574 54.8946 186.234 54.4229 185.804C53.9512 185.374 53.577 184.864 53.3217 184.302C53.0664 183.74 52.9349 183.138 52.9349 182.529V172.004C52.9339 171.395 53.0645 170.792 53.3193 170.229C53.5742 169.666 53.9482 169.155 54.42 168.725C54.8918 168.294 55.452 167.953 56.0687 167.72C56.6853 167.488 57.3462 167.368 58.0134 167.369C58.6792 167.369 59.3385 167.489 59.9537 167.722C60.5689 167.954 61.1278 168.295 61.5986 168.725C62.0694 169.154 62.4429 169.664 62.6977 170.226C62.9525 170.787 63.0837 171.389 63.0837 171.996V182.522C63.0847 183.13 62.9544 183.733 62.7001 184.295C62.4457 184.857 62.0724 185.368 61.6015 185.799C61.1306 186.229 60.5713 186.57 59.9556 186.803C59.3399 187.036 58.6799 187.156 58.0134 187.156Z" fill="#263238" stroke="#263238" stroke-linecap="round" stroke-linejoin="round"/>
<path d="M74.2676 139.66C69.7828 145.708 67.3916 152.845 67.404 160.147V167.794" stroke="#263238" stroke-width="14" stroke-linecap="round" stroke-linejoin="round"/>
<path d="M170.522 139.69C166.851 134.7 161.892 130.611 156.08 127.785C150.268 124.958 143.784 123.48 137.198 123.481H107.567C100.99 123.477 94.5136 124.948 88.7068 127.766C82.9001 130.583 77.9415 134.66 74.2676 139.638" stroke="#263238" stroke-width="7" stroke-linecap="round" stroke-linejoin="round"/>
<path d="M177.353 167.793V160.146C177.365 152.858 174.986 145.733 170.522 139.69" stroke="#263238" stroke-width="14" stroke-linecap="round" stroke-linejoin="round"/>
<path d="M71.4472 159.559H64.6488C60.714 159.559 57.5243 162.47 57.5243 166.06V187.551C57.5243 191.141 60.714 194.052 64.6488 194.052H71.4472C75.3819 194.052 78.5717 191.141 78.5717 187.551V166.06C78.5717 162.47 75.3819 159.559 71.4472 159.559Z" fill="white" stroke="#263238" stroke-linecap="round" stroke-linejoin="round"/>
<path d="M69.124 159.559H66.9801V194.052H69.124V159.559Z" fill="white" stroke="#263238" stroke-linecap="round" stroke-linejoin="round"/>
<path d="M178.82 159.559H172.021C168.087 159.559 164.897 162.47 164.897 166.06V187.551C164.897 191.141 168.087 194.052 172.021 194.052H178.82C182.755 194.052 185.944 191.141 185.944 187.551V166.06C185.944 162.47 182.755 159.559 178.82 159.559Z" fill="white" stroke="#263238" stroke-linecap="round" stroke-linejoin="round"/>
<path d="M176.497 159.559H174.353V194.052H176.497V159.559Z" fill="white" stroke="#263238" stroke-linecap="round" stroke-linejoin="round"/>
<path d="M122.305 156.427C126.018 156.428 129.673 155.58 132.935 153.961C136.197 152.342 138.963 150.003 140.98 147.159L145.578 140.665C138.292 136.993 130.094 135.095 121.772 135.154C113.45 135.213 105.284 137.226 98.0621 140.999L104.983 148.84C107.065 151.206 109.702 153.116 112.7 154.429C115.697 155.742 118.98 156.425 122.305 156.427Z" fill="white" stroke="#263238" stroke-linecap="round" stroke-linejoin="round"/>
<path d="M123.454 197.66C123.454 197.513 123.407 197.369 123.317 197.246C123.227 197.124 123.1 197.029 122.951 196.973C122.802 196.916 122.638 196.901 122.48 196.93C122.322 196.959 122.177 197.03 122.063 197.134C121.949 197.238 121.871 197.37 121.84 197.515C121.808 197.659 121.824 197.809 121.886 197.944C121.948 198.08 122.052 198.197 122.186 198.278C122.32 198.36 122.478 198.404 122.639 198.404C122.855 198.404 123.063 198.325 123.216 198.186C123.368 198.046 123.454 197.857 123.454 197.66Z" fill="#263238"/>
<path d="M123.454 200.159C123.454 200.012 123.407 199.868 123.317 199.746C123.227 199.624 123.1 199.528 122.951 199.472C122.802 199.416 122.638 199.401 122.48 199.43C122.322 199.458 122.177 199.529 122.063 199.633C121.949 199.737 121.871 199.87 121.84 200.014C121.808 200.158 121.824 200.308 121.886 200.444C121.948 200.58 122.052 200.696 122.186 200.778C122.32 200.86 122.478 200.903 122.639 200.903C122.855 200.903 123.063 200.825 123.216 200.685C123.368 200.546 123.454 200.357 123.454 200.159Z" fill="#263238"/>
<path d="M120.349 199.772C120.497 199.685 120.611 199.555 120.672 199.403C120.733 199.251 120.738 199.086 120.686 198.931C120.635 198.776 120.529 198.641 120.386 198.546C120.243 198.451 120.069 198.401 119.892 198.404C119.743 198.491 119.63 198.621 119.569 198.773C119.508 198.925 119.503 199.091 119.554 199.245C119.606 199.4 119.711 199.535 119.855 199.63C119.998 199.725 120.171 199.775 120.349 199.772Z" fill="#263238"/>
<path d="M125.248 199.773C125.374 199.771 125.498 199.742 125.61 199.689C125.721 199.636 125.818 199.559 125.892 199.466C125.967 199.373 126.016 199.266 126.037 199.152C126.058 199.039 126.05 198.922 126.013 198.812C125.976 198.702 125.912 198.601 125.825 198.518C125.739 198.434 125.632 198.37 125.514 198.33C125.395 198.291 125.268 198.277 125.143 198.289C125.018 198.302 124.897 198.341 124.791 198.404C124.665 198.406 124.541 198.435 124.429 198.488C124.317 198.541 124.221 198.617 124.146 198.71C124.072 198.803 124.023 198.911 124.002 199.024C123.981 199.138 123.989 199.254 124.026 199.364C124.062 199.474 124.127 199.575 124.213 199.659C124.3 199.742 124.407 199.806 124.525 199.846C124.644 199.886 124.771 199.9 124.896 199.887C125.021 199.874 125.142 199.835 125.248 199.773Z" fill="#263238"/>
<path d="M154.707 225.57C144.331 223.435 121.865 222.669 121.865 222.669C116.452 222.825 101.388 223.412 91.011 225.577C89.0465 225.984 87.3371 227.082 86.2536 228.632C85.1702 230.182 84.8 232.059 85.2234 233.856L94.8341 274.888C95.3062 276.878 96.5094 278.66 98.2441 279.94C99.9788 281.22 102.141 281.92 104.371 281.925H141.42C143.651 281.92 145.813 281.22 147.548 279.94C149.282 278.66 150.486 276.878 150.958 274.888L160.56 233.856C160.982 232.05 160.603 230.164 159.507 228.612C158.41 227.059 156.685 225.965 154.707 225.57Z" fill="white" stroke="#263238" stroke-linecap="round" stroke-linejoin="round"/>
<path d="M149.98 224.781C138.722 223.249 121.889 222.669 121.889 222.669C113.647 222.884 105.424 223.505 97.2551 224.528L108.146 281.925H137.744L149.98 224.781Z" fill="white" stroke="#263238" stroke-linecap="round" stroke-linejoin="round"/>
<path d="M131.606 235.143H113.575C109.892 235.143 106.907 237.868 106.907 241.228V249.262C106.907 252.623 109.892 255.347 113.575 255.347H131.606C135.289 255.347 138.274 252.623 138.274 249.262V241.228C138.274 237.868 135.289 235.143 131.606 235.143Z" fill="white" stroke="#263238" stroke-linecap="round" stroke-linejoin="round"/>
<path d="M117.324 243.467H112.246V248.102H117.324V243.467Z" fill="white" stroke="#263238" stroke-linecap="round" stroke-linejoin="round"/>
<path d="M125.125 243.467H120.047V248.102H125.125V243.467Z" fill="white" stroke="#263238" stroke-linecap="round" stroke-linejoin="round"/>
<path d="M132.935 243.467H127.856V248.102H132.935V243.467Z" fill="white" stroke="#263238" stroke-linecap="round" stroke-linejoin="round"/>
<path d="M51.2312 268.953H141.583C142.664 268.953 143.701 269.344 144.465 270.042C145.23 270.739 145.659 271.685 145.659 272.672V318.993H47.1555V272.672C47.1555 271.685 47.5849 270.739 48.3492 270.042C49.1136 269.344 50.1503 268.953 51.2312 268.953Z" fill="white" stroke="#263238" stroke-linecap="round" stroke-linejoin="round"/>
<path d="M145.659 285.6C133.285 288.464 120.585 295.754 96.9209 306.019C74.0964 315.928 55.413 315.757 47.1555 314.991V318.993H145.659V285.6Z" fill="#263238" stroke="#263238" stroke-linecap="round" stroke-linejoin="round"/>
<path d="M145.659 316.218H47.1555V319H145.659V316.218Z" fill="white" stroke="#263238" stroke-linecap="round" stroke-linejoin="round"/>
<path d="M101.486 293.976C101.486 294.893 101.188 295.789 100.63 296.551C100.072 297.313 99.2788 297.907 98.3508 298.258C97.4228 298.609 96.4017 298.7 95.4166 298.521C94.4315 298.343 93.5266 297.901 92.8164 297.253C92.1061 296.605 91.6225 295.779 91.4265 294.88C91.2305 293.981 91.3311 293.05 91.7155 292.203C92.0999 291.356 92.7508 290.632 93.5859 290.123C94.4211 289.614 95.4029 289.342 96.4074 289.342C97.7542 289.342 99.046 289.83 99.9984 290.699C100.951 291.568 101.486 292.747 101.486 293.976Z" fill="white" stroke="#263238" stroke-linecap="round" stroke-linejoin="round"/>
</svg>
