<svg width="343" height="278" viewBox="0 0 343 278" fill="none" xmlns="http://www.w3.org/2000/svg">
<path d="M155.944 234.593L98.0256 257.766L30.8279 190.568L74.8531 184.199L155.944 234.593Z" fill="white"/>
<path opacity="0.5" d="M155.944 234.593L98.0256 257.766L30.8279 190.568L74.8531 184.199L155.944 234.593Z" fill="white"/>
<path d="M227.19 265.299C234.868 265.299 241.092 261.148 241.092 256.028C241.092 250.908 234.868 246.758 227.19 246.758C219.513 246.758 213.289 250.908 213.289 256.028C213.289 261.148 219.513 265.299 227.19 265.299Z" fill="white"/>
<path opacity="0.5" d="M227.19 265.299C234.868 265.299 241.092 261.148 241.092 256.028C241.092 250.908 234.868 246.758 227.19 246.758C219.513 246.758 213.289 250.908 213.289 256.028C213.289 261.148 219.513 265.299 227.19 265.299Z" fill="white"/>
<path d="M172.748 203.393L257.618 210.118L238.781 200.421L172.748 203.393Z" fill="white"/>
<path opacity="0.5" d="M172.748 203.393L257.618 210.118L238.781 200.421L172.748 203.393Z" fill="white"/>
<path d="M191.862 177.249L166.683 175.189L169.846 171.453H184.329L191.862 177.249Z" fill="white"/>
<path opacity="0.5" d="M191.862 177.249L166.683 175.189L169.846 171.453H184.329L191.862 177.249Z" fill="white"/>
<path d="M273.509 277.75C283.265 277.75 291.173 272.953 291.173 267.037C291.173 261.12 283.265 256.324 273.509 256.324C263.754 256.324 255.845 261.12 255.845 267.037C255.845 272.953 263.754 277.75 273.509 277.75Z" fill="white"/>
<path opacity="0.5" d="M273.509 277.75C283.265 277.75 291.173 272.953 291.173 267.037C291.173 261.12 283.265 256.324 273.509 256.324C263.754 256.324 255.845 261.12 255.845 267.037C255.845 272.953 263.754 277.75 273.509 277.75Z" fill="white"/>
<path d="M168.838 242.161L159.324 257.792L180.394 261.876L188.552 246.245L168.838 242.161Z" fill="white" stroke="#263238" stroke-linecap="round" stroke-linejoin="round"/>
<path d="M185.155 224.497L175.641 238.764L195.347 244.881L203.505 230.614L185.155 224.497Z" fill="white"/>
<path opacity="0.5" d="M185.155 224.497L175.641 238.764L195.347 244.881L203.505 230.614L185.155 224.497Z" fill="white" stroke="#263238" stroke-miterlimit="10"/>
<path d="M185.155 224.497L175.641 238.764L195.347 244.881L203.505 230.614L185.155 224.497Z" stroke="#263238" stroke-linecap="round" stroke-linejoin="round"/>
<path d="M206.225 251.684L189.23 256.437L196.024 267.315L215.739 262.553L206.225 251.684Z" fill="white" stroke="#263238" stroke-linecap="round" stroke-linejoin="round"/>
<path d="M254.707 248.895L256.445 262.093C256.445 267.558 263.092 271.998 271.294 271.998C279.496 271.998 286.151 267.558 286.151 262.093L287.941 248.895H254.707Z" fill="white" stroke="#263238" stroke-linecap="round" stroke-linejoin="round"/>
<path d="M271.311 259.99C280.5 259.99 287.95 255.023 287.95 248.895C287.95 242.767 280.5 237.8 271.311 237.8C262.122 237.8 254.672 242.767 254.672 248.895C254.672 255.023 262.122 259.99 271.311 259.99Z" fill="white" stroke="#263238" stroke-linecap="round" stroke-linejoin="round"/>
<path d="M271.311 258.331C279.128 258.331 285.465 254.106 285.465 248.895C285.465 243.684 279.128 239.459 271.311 239.459C263.494 239.459 257.157 243.684 257.157 248.895C257.157 254.106 263.494 258.331 271.311 258.331Z" fill="white" stroke="#263238" stroke-linecap="round" stroke-linejoin="round"/>
<path d="M271.311 258.339C278.994 258.339 285.221 254.877 285.221 250.606C285.221 246.336 278.994 242.874 271.311 242.874C263.628 242.874 257.401 246.336 257.401 250.606C257.401 254.877 263.628 258.339 271.311 258.339Z" fill="#263238" stroke="#263238" stroke-linecap="round" stroke-linejoin="round"/>
<path d="M276.324 223.568C273.909 222.012 270.242 222.151 268.774 225.027C266.602 229.215 268.157 236.974 267.375 238.06C266.593 239.146 264.273 239.459 263.187 237.13C262.101 234.802 262.101 231.7 260.702 231.544C259.303 231.387 257.444 232.013 257.131 235.584C256.818 239.155 257.444 243.186 259.929 245.046C262.414 246.905 265.203 246.288 266.011 247.07C266.819 247.852 266.011 249.069 266.011 249.868C266.011 253.343 270.555 255.081 273.431 254.212C277.619 252.97 277.158 248.773 277.775 247.07C278.392 245.367 281.816 245.202 283.058 242.569C284.3 239.937 286.16 234.645 283.519 232.63C280.877 230.614 278.861 231.544 278.557 233.716C278.196 235.441 277.612 237.111 276.82 238.686C278.679 235.01 280.504 226.261 276.324 223.568Z" fill="white"/>
<path opacity="0.2" d="M276.324 223.568C273.909 222.012 270.242 222.151 268.774 225.027C266.602 229.215 268.157 236.974 267.375 238.06C266.593 239.146 264.273 239.459 263.187 237.13C262.101 234.802 262.101 231.7 260.702 231.544C259.303 231.387 257.444 232.013 257.131 235.584C256.818 239.155 257.444 243.186 259.929 245.046C262.414 246.905 265.203 246.288 266.011 247.07C266.819 247.852 266.011 249.069 266.011 249.868C266.011 253.343 270.555 255.081 273.431 254.212C277.619 252.97 277.158 248.773 277.775 247.07C278.392 245.367 281.816 245.202 283.058 242.569C284.3 239.937 286.16 234.645 283.519 232.63C280.877 230.614 278.861 231.544 278.557 233.716C278.196 235.441 277.612 237.111 276.82 238.686C278.679 235.01 280.504 226.261 276.324 223.568Z" fill="black"/>
<path d="M276.324 223.568C273.909 222.012 270.242 222.151 268.774 225.027C266.602 229.215 268.157 236.974 267.375 238.06C266.593 239.146 264.273 239.459 263.187 237.13C262.101 234.802 262.101 231.7 260.702 231.544C259.303 231.387 257.444 232.013 257.131 235.584C256.818 239.155 257.444 243.186 259.929 245.046C262.414 246.905 265.203 246.288 266.011 247.07C266.819 247.852 266.011 249.069 266.011 249.868C266.011 253.343 270.555 255.081 273.431 254.212C277.619 252.97 277.158 248.773 277.775 247.07C278.392 245.367 281.816 245.202 283.058 242.569C284.3 239.937 286.16 234.645 283.519 232.63C280.877 230.614 278.861 231.544 278.557 233.716C278.196 235.441 277.612 237.111 276.82 238.686C278.679 235.01 280.504 226.261 276.324 223.568Z" stroke="#263238" stroke-linecap="round" stroke-linejoin="round"/>
<path d="M272.501 224.715C271.797 225.178 271.207 225.797 270.776 226.522C270.346 227.248 270.086 228.062 270.016 228.903C269.86 231.7 270.016 240.545 268.93 241.788C267.844 243.03 264.273 242.717 261.979 240.545C259.686 238.373 260.702 233.725 260.702 233.725" stroke="#263238" stroke-width="0.5" stroke-linecap="round" stroke-linejoin="round"/>
<path d="M261.389 243.282C262.193 243.908 263.124 244.353 264.117 244.585C266.915 245.202 268.93 243.812 269.4 245.202C269.869 246.592 268.93 251.571 268.93 251.571" stroke="#263238" stroke-width="0.5" stroke-linecap="round" stroke-linejoin="round"/>
<path d="M259.773 241.631C260.062 242.039 260.394 242.415 260.763 242.752" stroke="#263238" stroke-width="0.5" stroke-linecap="round" stroke-linejoin="round"/>
<path d="M272.449 249.025C272.606 246.711 272.623 244.39 272.501 242.074C272.223 238.599 273.839 232.143 274.239 229.224" stroke="#263238" stroke-width="0.5" stroke-linecap="round" stroke-linejoin="round"/>
<path d="M272.189 252.657C272.189 252.657 272.275 251.71 272.371 250.32" stroke="#263238" stroke-width="0.5" stroke-linecap="round" stroke-linejoin="round"/>
<path d="M282.936 237.104C283.015 236.348 283.058 235.888 283.058 235.888" stroke="#263238" stroke-width="0.5" stroke-linecap="round" stroke-linejoin="round"/>
<path d="M275.603 249.859C275.603 249.859 276.229 244.742 277.471 243.777C278.714 242.813 282.276 242.222 282.589 239.894C282.641 239.529 282.684 239.181 282.728 238.86" stroke="#263238" stroke-width="0.5" stroke-linecap="round" stroke-linejoin="round"/>
<path d="M280.886 233.872C280.56 234.091 280.301 234.394 280.135 234.749C279.97 235.105 279.905 235.498 279.947 235.888C280.011 236.818 279.813 237.748 279.375 238.571C278.938 239.394 278.278 240.078 277.471 240.545" stroke="#263238" stroke-width="0.5" stroke-linecap="round" stroke-linejoin="round"/>
<path d="M274.413 227.451C274.459 226.582 274.442 225.711 274.361 224.845" stroke="#263238" stroke-width="0.5" stroke-linecap="round" stroke-linejoin="round"/>
<path d="M215.243 224.046L217.546 248.287V250.85C217.546 254.325 222.429 257.08 228.459 257.08C234.489 257.08 239.372 254.291 239.372 250.85V248.287L241.466 223.794L215.243 224.046Z" fill="white" stroke="#263238" stroke-linecap="round" stroke-linejoin="round"/>
<path d="M239.476 246.975L240.684 232.856C239.059 235.384 234.211 237.2 228.476 237.2C222.438 237.2 217.39 235.167 216.043 232.43L217.416 246.888C219.64 248.738 223.75 249.99 228.476 249.99C233.203 249.99 237.252 248.799 239.476 246.975Z" fill="white" stroke="#263238" stroke-linecap="round" stroke-linejoin="round"/>
<path d="M215.678 228.616V228.451L215.565 227.478L215.678 228.616Z" fill="white" stroke="#263238" stroke-linecap="round" stroke-linejoin="round"/>
<path d="M241.883 220.448C239.572 217.529 234.437 215.487 228.459 215.487C222.481 215.487 217.346 217.529 215.026 220.448H213.714V223.924C213.714 228.581 220.318 232.352 228.485 232.352C236.652 232.352 243.256 228.581 243.256 223.924V220.448H241.883Z" fill="white" stroke="#263238" stroke-linecap="round" stroke-linejoin="round"/>
<path opacity="0.2" d="M241.883 220.448C239.572 217.529 234.437 215.487 228.459 215.487C222.481 215.487 217.346 217.529 215.026 220.448H213.714V223.924C213.714 228.581 220.318 232.352 228.485 232.352C236.652 232.352 243.256 228.581 243.256 223.924V220.448H241.883Z" fill="black"/>
<path d="M228.459 228.876C236.602 228.876 243.203 225.103 243.203 220.448C243.203 215.794 236.602 212.021 228.459 212.021C220.316 212.021 213.714 215.794 213.714 220.448C213.714 225.103 220.316 228.876 228.459 228.876Z" fill="white" stroke="#263238" stroke-linecap="round" stroke-linejoin="round"/>
<path d="M240.188 215.748C238.164 213.193 233.681 211.404 228.459 211.404C223.237 211.404 218.754 213.185 216.729 215.748H215.608V218.772C215.608 222.838 221.369 226.131 228.485 226.131C235.601 226.131 241.361 222.838 241.361 218.772V215.748H240.188Z" fill="white" stroke="#263238" stroke-linecap="round" stroke-linejoin="round"/>
<path d="M228.459 223.107C235.57 223.107 241.335 219.812 241.335 215.748C241.335 211.684 235.57 208.389 228.459 208.389C221.347 208.389 215.582 211.684 215.582 215.748C215.582 219.812 221.347 223.107 228.459 223.107Z" fill="white" stroke="#263238" stroke-linecap="round" stroke-linejoin="round"/>
<path d="M98.4948 144.284C98.4948 144.284 99.5026 143.615 105.897 146.3C112.292 148.985 114.803 148.403 121.024 147.308C128.497 146.005 134.7 144.701 135.447 147.725C136.742 152.938 131.511 152.877 122.102 153.885C112.692 154.893 107.236 152.017 104.212 150.67C102.82 150.099 101.473 149.425 100.18 148.655L98.4948 144.284Z" fill="white" stroke="#263238" stroke-linecap="round" stroke-linejoin="round"/>
<path d="M84.0369 146.977C84.0369 146.977 92.4475 156.726 96.1402 154.033C99.8328 151.339 99.5026 142.607 96.1402 139.914C92.7777 137.22 83.3679 142.268 84.0369 146.977Z" fill="white" stroke="#263238" stroke-linecap="round" stroke-linejoin="round"/>
<path d="M109.608 120.078C109.608 120.078 109.946 129.157 107.592 135.205C105.237 141.252 100.867 145.292 100.198 148.655C99.5287 152.017 99.8589 156.726 96.4964 158.073C93.1339 159.42 93.1339 157.065 93.4728 154.372C93.8116 151.678 94.4806 141.599 94.4806 141.599L83.3679 148.316C83.3679 148.316 86.3916 156.726 80.0054 157.734C73.6193 158.742 65.8865 148.993 64.8786 141.625C63.8707 134.258 67.9022 117.749 74.9661 113.379C82.0299 109.008 91.1008 109.686 95.8187 109.686C100.537 109.686 107.574 113.023 109.608 120.078Z" fill="white" stroke="#263238" stroke-linecap="round" stroke-linejoin="round"/>
<path d="M82.8032 110.746C82.8032 110.746 81.0654 111.615 78.0331 116.385C75.0008 121.155 81.0654 125.265 84.3237 123.101C87.5819 120.938 84.7494 116.385 87.1388 114.213C88.5133 113.047 89.4357 111.436 89.7454 109.66L82.8032 110.746Z" fill="#263238"/>
<path d="M73.0546 117.462C72.2777 118.017 71.6253 118.728 71.139 119.549C70.6528 120.371 70.3434 121.285 70.2308 122.233C70.0136 125.265 75.4439 119.626 76.0869 117.019C76.7298 114.413 73.0546 117.462 73.0546 117.462Z" fill="#263238"/>
<path d="M92.4475 110.668C91.6764 112.069 91.3006 113.653 91.3603 115.25C91.42 116.848 91.9129 118.4 92.7864 119.739C95.81 124.448 102.535 126.464 105.22 123.101C107.905 119.739 108.921 118.062 107.913 116.385C106.905 114.708 97.1567 107.975 92.4475 110.668Z" fill="white" stroke="#263238" stroke-linecap="round" stroke-linejoin="round"/>
<path d="M117.323 94.1945C116.047 94.3331 114.756 94.1945 113.538 93.7881C112.32 93.3817 111.205 92.7171 110.268 91.8398C106.905 88.8162 103.873 82.0912 102.535 82.4214C101.197 82.7516 96.453 92.5089 96.453 92.5089C96.453 92.5089 88.3812 93.1866 87.7122 95.5325C87.0432 97.8784 90.7359 108.982 93.7942 113.692C95.2204 115.789 97.1191 117.523 99.3374 118.753C101.556 119.983 104.032 120.675 106.566 120.773C110.598 120.773 122.701 121.781 124.387 117.741C126.072 113.7 124.717 101.606 124.717 101.606C124.717 101.606 130.104 96.2276 127.749 95.2197C125.395 94.2118 117.323 94.1945 117.323 94.1945Z" fill="white" stroke="#263238" stroke-linecap="round" stroke-linejoin="round"/>
<path d="M115.69 111.015C115.281 110.485 114.89 109.947 114.508 109.391C113.874 108.452 112.37 107.019 109.477 107.931C105.359 109.226 102.526 113.144 107.096 116.385C111.397 119.469 120.034 116.689 115.69 111.015Z" fill="#263238"/>
<path d="M96.479 92.5088C96.479 92.5088 101.188 95.2022 103.873 94.1944C106.558 93.1865 104.881 81.7523 102.535 82.4213C100.189 83.0903 96.1402 88.1384 96.479 92.5088Z" fill="white" stroke="#263238" stroke-linecap="round" stroke-linejoin="round"/>
<path d="M127.749 95.2023C127.749 95.2023 123.405 94.8634 120.685 97.8871C117.966 100.911 119.678 103.969 123.379 104.612C127.08 105.255 129.087 95.2023 127.749 95.2023Z" fill="white" stroke="#263238" stroke-linecap="round" stroke-linejoin="round"/>
<path d="M101.527 114.03C101.527 114.03 97.1828 110.668 98.1646 113.353C99.1464 116.038 100.849 116.385 102.509 115.707C104.168 115.03 101.527 114.03 101.527 114.03Z" fill="white" stroke="#263238" stroke-linecap="round" stroke-linejoin="round"/>
<path d="M99.129 105.603C98.8771 106.471 98.1646 107.08 97.539 106.906C96.9134 106.732 96.6093 105.863 96.8613 104.968C97.1133 104.073 97.8257 103.491 98.4513 103.665C99.0769 103.839 99.381 104.716 99.129 105.603Z" fill="#263238"/>
<path d="M109.495 113.535C108.686 114.004 107.757 113.935 107.444 113.37C107.131 112.805 107.496 111.98 108.313 111.511C108.611 111.273 108.989 111.158 109.369 111.187C109.749 111.216 110.104 111.387 110.363 111.667C110.676 112.232 110.294 113.066 109.495 113.535Z" fill="white"/>
<path d="M79.3364 134.874C79.3364 134.874 78.3285 142.268 79.6666 145.301C81.0046 148.333 82.3601 159.759 85.0535 160.071C87.747 160.384 86.7304 153.989 86.7304 153.007C86.7304 152.026 87.0693 141.243 87.0693 141.243C87.0693 141.243 89.4239 136.195 90.7619 133.51" fill="white"/>
<path d="M79.3364 134.874C79.3364 134.874 78.3285 142.268 79.6666 145.301C81.0046 148.333 82.3601 159.759 85.0535 160.071C87.747 160.384 86.7304 153.989 86.7304 153.007C86.7304 152.026 87.0693 141.243 87.0693 141.243C87.0693 141.243 89.4239 136.195 90.7619 133.51" stroke="#263238" stroke-linecap="round" stroke-linejoin="round"/>
<path d="M68.2411 134.535C68.2411 134.535 77.3207 131.842 78.3286 141.929" stroke="#263238" stroke-linecap="round" stroke-linejoin="round"/>
<path d="M94.4633 141.625C94.4633 141.625 102.196 137.585 102.535 128.844" stroke="#263238" stroke-linecap="round" stroke-linejoin="round"/>
<path d="M1 155.38L6.72579 154.085" stroke="#263238" stroke-linecap="round" stroke-linejoin="round"/>
<path d="M48.7873 189.169L94.9585 176.076C96.4261 175.92 97.9024 176.276 99.1377 177.084L174.268 225.088C174.588 225.295 174.837 225.595 174.981 225.948C175.125 226.301 175.156 226.69 175.072 227.061C174.988 227.433 174.791 227.77 174.509 228.026C174.227 228.282 173.873 228.446 173.495 228.494L110.311 248.174L48.7873 189.169Z" fill="white" stroke="#263238" stroke-linecap="round" stroke-linejoin="round"/>
<path d="M75.7828 191.932L82.3253 196.442L89.8844 194.304L83.3505 189.804L75.7828 191.932Z" fill="#263238"/>
<path d="M79.8577 204.54L73.3239 200.03L65.7561 202.168L72.2986 206.677L79.8577 204.54Z" fill="#263238"/>
<path d="M92.2216 194.695L98.7554 199.196L106.315 197.059L99.7807 192.558L92.2216 194.695Z" fill="#263238"/>
<path d="M99.8415 199.943L106.375 204.444L113.934 202.307L107.401 197.806L99.8415 199.943Z" fill="#263238"/>
<path d="M83.4027 197.18L89.9365 201.69L97.4956 199.552L90.9618 195.052L83.4027 197.18Z" fill="#263238"/>
<path d="M66.9639 194.426L73.4977 198.935L81.0655 196.798L74.5229 192.289L66.9639 194.426Z" fill="#263238"/>
<path d="M119.139 223.038L112.596 218.528L105.046 220.666L111.58 225.175L119.139 223.038Z" fill="#263238"/>
<path d="M110.311 225.531L103.777 221.022L96.2184 223.159L102.761 227.66L110.311 225.531Z" fill="#263238"/>
<path d="M87.4689 209.787L80.9351 205.278L73.376 207.415L79.9099 211.916L87.4689 209.787Z" fill="#263238"/>
<path d="M126.75 228.285L120.216 223.785L112.657 225.913L119.191 230.423L126.75 228.285Z" fill="#263238"/>
<path d="M95.0888 215.035L88.5463 210.526L80.9872 212.663L87.5298 217.164L95.0888 215.035Z" fill="#263238"/>
<path d="M102.7 220.283L96.1662 215.774L88.6071 217.911L95.141 222.421L102.7 220.283Z" fill="#263238"/>
<path d="M107.453 205.191L113.987 209.692L121.546 207.554L115.012 203.054L107.453 205.191Z" fill="#263238"/>
<path d="M74.5837 199.674L81.1176 204.183L88.6766 202.046L82.1428 197.545L74.5837 199.674Z" fill="#263238"/>
<path d="M135.569 225.792L129.035 221.291L121.476 223.428L128.01 227.929L135.569 225.792Z" fill="#263238"/>
<path d="M112.727 210.048L106.193 205.547L98.6338 207.676L105.168 212.185L112.727 210.048Z" fill="#263238"/>
<path d="M96.2879 207.294L89.754 202.784L82.1949 204.922L88.7288 209.431L96.2879 207.294Z" fill="#263238"/>
<path d="M64.6266 194.044L60.8036 191.402L55.6339 192.853L58.6575 195.729L64.6266 194.044Z" fill="#263238"/>
<path d="M72.2378 199.292L65.704 194.782L59.509 196.537L64.6266 201.386L64.6788 201.42L72.2378 199.292Z" fill="#263238"/>
<path d="M91.0139 202.437L97.5564 206.938L105.116 204.8L98.573 200.3L91.0139 202.437Z" fill="#263238"/>
<path d="M103.908 212.542L97.3739 208.041L89.8148 210.17L96.3487 214.679L103.908 212.542Z" fill="#263238"/>
<path d="M136.777 218.05L130.243 213.55L122.684 215.687L129.218 220.188L136.777 218.05Z" fill="#263238"/>
<path d="M115.064 210.439L121.606 214.94L129.166 212.802L122.632 208.302L115.064 210.439Z" fill="#263238"/>
<path d="M127.958 220.544L121.424 216.043L113.865 218.181L120.399 222.681L127.958 220.544Z" fill="#263238"/>
<path d="M120.338 215.296L113.804 210.795L106.245 212.924L112.788 217.434L120.338 215.296Z" fill="#263238"/>
<path d="M111.519 217.79L104.985 213.289L97.4261 215.418L103.96 219.927L111.519 217.79Z" fill="#263238"/>
<path d="M78.65 212.272L72.1162 207.772L71.5341 207.937L76.6864 212.828L78.65 212.272Z" fill="#263238"/>
<path d="M136.655 226.539L129.096 228.676L136.933 234.072L144.301 231.804L136.655 226.539Z" fill="#263238"/>
<path d="M127.827 229.033L120.268 231.161L128.34 236.722L135.699 234.454L127.827 229.033Z" fill="#263238"/>
<path d="M93.8811 222.768L87.3473 218.268L83.5504 219.336L88.7114 224.237L93.8811 222.768Z" fill="#263238"/>
<path d="M144.397 223.298L137.854 218.798L130.295 220.935L136.838 225.436L144.397 223.298Z" fill="#263238"/>
<path d="M101.492 228.025L94.9585 223.515L89.5629 225.045L94.7152 229.936L101.492 228.025Z" fill="#263238"/>
<path d="M109.112 233.273L102.578 228.763L95.5667 230.744L100.728 235.636L109.112 233.273Z" fill="#263238"/>
<path d="M117.931 230.779L111.397 226.27L103.838 228.407L110.372 232.917L117.931 230.779Z" fill="#263238"/>
<path d="M160.627 223.707L156.283 220.987L146.725 223.689L154.11 228.781L159.862 227.043C160.241 227.01 160.6 226.858 160.887 226.608C161.174 226.358 161.374 226.024 161.459 225.653C161.544 225.282 161.509 224.894 161.36 224.544C161.21 224.195 160.954 223.901 160.627 223.707Z" fill="#263238"/>
<path d="M110.19 234.011L101.579 236.444L108.356 242.874L118.513 239.746L110.19 234.011Z" fill="#263238"/>
<path d="M148.22 215.87L139.123 218.441L145.657 222.942L155.171 220.257L148.22 215.87Z" fill="#263238"/>
<path d="M145.474 224.045L137.915 226.183L145.526 231.431L152.894 229.163L145.474 224.045Z" fill="#263238"/>
<path d="M92.3519 186.207L98.5295 184.46L94.5415 181.94L88.5811 183.609L92.3519 186.207Z" fill="#263238"/>
<path d="M127.106 237.104L119.009 231.518L111.449 233.655L119.738 239.372L127.106 237.104Z" fill="#263238"/>
<path d="M93.4293 186.954L99.9631 191.454L106.627 189.578L99.6764 185.19L93.4293 186.954Z" fill="#263238"/>
<path d="M108.66 197.45L115.194 201.95L122.805 199.804L115.863 195.417L108.66 197.45Z" fill="#263238"/>
<path d="M101.041 192.202L107.583 196.702L114.716 194.687L107.766 190.299L101.041 192.202Z" fill="#263238"/>
<path d="M116.272 202.698L122.805 207.198L130.895 204.922L123.952 200.525L116.272 202.698Z" fill="#263238"/>
<path d="M123.892 207.946L130.425 212.446L138.984 210.031L132.041 205.643L123.892 207.946Z" fill="#263238"/>
<path d="M140.131 210.752L131.503 213.193L138.037 217.694L147.073 215.148L140.131 210.752Z" fill="#263238"/>
<path d="M84.6104 189.447L91.1442 193.948L98.7033 191.811L92.1695 187.31L84.6104 189.447Z" fill="#263238"/>
<path d="M69.3445 205.869L70.6826 207.129L71.0301 207.024L69.3445 205.869Z" fill="#263238"/>
<path d="M65.8865 193.687L73.4455 191.55L69.6399 188.926L62.0635 191.046L65.8865 193.687Z" fill="#263238"/>
<path d="M74.7054 191.194L82.2645 189.056L78.4762 186.441L70.8998 188.57L74.7054 191.194Z" fill="#263238"/>
<path d="M79.7448 186.094L83.533 188.7L91.0921 186.563L87.3125 183.965L79.7448 186.094Z" fill="#263238"/>
<path d="M86.2612 217.529L79.7274 213.02L77.5379 213.636L82.6989 218.528L86.2612 217.529Z" fill="#263238"/>
<path d="M110.268 248.174L90.2841 167.274C89.8288 165.435 88.8476 163.768 87.4603 162.478L33.591 112.249C33.362 112.037 33.0709 111.903 32.7604 111.868C32.4499 111.833 32.1364 111.899 31.866 112.056C31.5956 112.212 31.3826 112.451 31.2583 112.738C31.1341 113.025 31.105 113.344 31.1755 113.648L48.7873 189.169L110.268 248.174Z" fill="white" stroke="#263238" stroke-linecap="round" stroke-linejoin="round"/>
<path d="M80.0663 159.168L86.2265 164.555C86.2265 164.555 88.1466 164.937 90.0668 174.555" stroke="#263238" stroke-width="0.5" stroke-linecap="round" stroke-linejoin="round"/>
<path d="M91.2224 179.551L102.578 228.763" stroke="#263238" stroke-width="0.5" stroke-linecap="round" stroke-linejoin="round"/>
<path d="M57.9711 156.969C60.6385 163.451 60.3953 169.698 57.4238 170.923C54.4523 172.148 49.8734 167.882 47.206 161.366C44.5386 154.849 44.7818 148.637 47.7533 147.421C50.7248 146.204 55.3037 150.488 57.9711 156.969Z" fill="white"/>
<path opacity="0.6" d="M57.9711 156.969C60.6385 163.451 60.3953 169.698 57.4238 170.923C54.4523 172.148 49.8734 167.882 47.206 161.366C44.5386 154.849 44.7818 148.637 47.7533 147.421C50.7248 146.204 55.3037 150.488 57.9711 156.969Z" fill="white"/>
<path d="M56.0247 167.532C58.1368 166.662 58.3101 162.22 56.4117 157.61C54.5134 153 51.2624 149.967 49.1503 150.837C47.0382 151.707 46.8649 156.149 48.7632 160.759C50.6615 165.369 53.9126 168.402 56.0247 167.532Z" stroke="#263238" stroke-miterlimit="10"/>
<path d="M62.0895 183.548C63.4797 186.91 62.9063 190.334 60.821 191.194C58.7357 192.054 55.9206 190.021 54.5305 186.667C53.1403 183.313 53.7224 179.881 55.8077 179.021C57.893 178.161 60.7081 180.194 62.0895 183.548Z" fill="#263238"/>
<path d="M59.2136 189.239C57.9016 189.239 56.4767 188.049 55.7382 186.189C55.3224 185.233 55.1781 184.181 55.3211 183.148C55.3593 182.717 55.5092 182.304 55.7561 181.949C56.0029 181.594 56.3382 181.31 56.7287 181.124C58.197 180.516 60.0738 181.793 60.9948 184.026C61.9071 186.259 61.4726 188.483 60.0043 189.091C59.7527 189.191 59.4842 189.241 59.2136 189.239ZM57.4759 181.845C57.3266 181.843 57.1787 181.873 57.0414 181.932C56.7918 182.066 56.5807 182.261 56.4285 182.5C56.2764 182.739 56.1882 183.013 56.1726 183.296C56.0483 184.182 56.1747 185.085 56.5375 185.902C57.2413 187.64 58.6749 188.735 59.6654 188.327C60.6559 187.918 60.8905 186.12 60.178 184.399C59.5264 182.879 58.3447 181.845 57.4759 181.845Z" fill="white"/>
<g opacity="0.5">
<path d="M59.2136 189.239C57.9016 189.239 56.4767 188.049 55.7382 186.189C55.3224 185.233 55.1781 184.181 55.3211 183.148C55.3593 182.717 55.5092 182.304 55.7561 181.949C56.0029 181.594 56.3382 181.31 56.7287 181.124C58.197 180.516 60.0738 181.793 60.9948 184.026C61.9071 186.259 61.4726 188.483 60.0043 189.091C59.7527 189.191 59.4842 189.241 59.2136 189.239ZM57.4759 181.845C57.3266 181.843 57.1787 181.873 57.0414 181.932C56.7918 182.066 56.5807 182.261 56.4285 182.5C56.2764 182.739 56.1882 183.013 56.1726 183.296C56.0483 184.182 56.1747 185.085 56.5375 185.902C57.2413 187.64 58.6749 188.735 59.6654 188.327C60.6559 187.918 60.8905 186.12 60.178 184.399C59.5264 182.879 58.3447 181.845 57.4759 181.845Z" fill="white"/>
</g>
<path d="M77.5813 184.625L72.6375 192.445C72.5101 192.635 72.4421 192.859 72.4421 193.088C72.4421 193.317 72.5101 193.541 72.6375 193.731L83.2202 209.162C83.3129 209.299 83.4334 209.415 83.5737 209.502C83.7141 209.59 83.8712 209.647 84.035 209.67C84.1988 209.693 84.3656 209.681 84.5246 209.635C84.6836 209.59 84.8312 209.511 84.958 209.405L90.4405 204.931C90.6589 204.755 90.8065 204.505 90.856 204.229C90.9055 203.953 90.8536 203.668 90.7098 203.427L79.5797 184.669C79.4802 184.494 79.3369 184.347 79.164 184.244C78.991 184.141 78.7942 184.084 78.5928 184.08C78.3915 184.076 78.1924 184.124 78.0151 184.219C77.8378 184.315 77.6884 184.455 77.5813 184.625Z" fill="#263238"/>
<path d="M68.9796 194.991C68.9796 194.991 82.6728 192.714 92.0826 212.003L94.4198 209.127C94.4198 209.127 85.3576 194.035 77.9723 192.688C70.587 191.341 67.9022 191.333 67.9022 191.333L68.9796 194.991Z" fill="white"/>
<path opacity="0.5" d="M68.9796 194.991C68.9796 194.991 82.6728 192.714 92.0826 212.003L94.4198 209.127C94.4198 209.127 85.3576 194.035 77.9723 192.688C70.587 191.341 67.9022 191.333 67.9022 191.333L68.9796 194.991Z" fill="white"/>
<path d="M9.92322 153.364L32.2703 148.316" stroke="#263238" stroke-linecap="round" stroke-linejoin="round"/>
<path d="M151.808 202.02C149.129 202.442 146.428 202.712 143.719 202.828C139.522 202.993 137.741 202.993 138.384 203.966C139.027 204.939 144.049 205.904 145.822 206.225C147.594 206.547 151.808 202.02 151.808 202.02Z" fill="white" stroke="#263238" stroke-miterlimit="10"/>
<path d="M309.384 237.165L301.904 233.255" stroke="#263238" stroke-linecap="round" stroke-linejoin="round"/>
<path d="M159.949 145.848C159.949 145.848 161.522 143.094 162.182 146.508L159.949 145.848Z" fill="#263238"/>
<path d="M297.273 230.831L114.881 135.543" stroke="#263238" stroke-linecap="round" stroke-linejoin="round"/>
<path d="M119.678 172.861L158.003 197.571L189.525 184.712L147.064 163.13L119.678 172.861Z" fill="#263238" stroke="#263238" stroke-linecap="round" stroke-linejoin="round"/>
<path d="M144.31 167.708L129.035 173.104" stroke="white" stroke-width="0.5" stroke-linecap="round" stroke-linejoin="round"/>
<path d="M131.433 174.903L158.993 192.28L181.454 183.591" stroke="white" stroke-width="0.5" stroke-linecap="round" stroke-linejoin="round"/>
<path d="M277.593 56.0947C277.593 56.0947 299.54 59.5702 306.604 71.3345C313.668 83.0989 308.62 101.588 306.265 107.974C304.137 113.77 310.427 118.609 314.293 121.754C322.982 128.81 327.457 138.767 322.939 149.601C320.124 156.344 307.603 159.367 309.298 167.483C310.992 175.598 318.368 186.98 308.959 195.39C299.028 204.253 284.127 199.683 275.421 191.402C265.629 182.088 262.257 165.884 267.271 153.364C273.353 138.237 276.681 128.488 270.963 122.085C265.246 115.681 257.852 111.658 257.852 102.587C257.852 93.5165 265.924 90.8231 269.287 81.7348C272.649 72.6465 267.94 63.2454 267.94 63.2454L277.593 56.0947Z" fill="#263238" stroke="#263238" stroke-linecap="round" stroke-linejoin="round"/>
<path d="M298.15 71.7864C302.39 74.9925 306.248 80.3881 304.91 89.1636C302.199 106.975 289.036 108.139 297.551 119.365C306.065 130.591 313.816 125.551 312.26 139.488C310.705 153.424 305.683 158.455 305.683 158.455" stroke="white" stroke-miterlimit="10"/>
<path d="M289.071 67.5029C290.768 67.9021 292.417 68.4848 293.988 69.2406" stroke="white" stroke-miterlimit="10"/>
<path d="M284.813 72.5422C284.813 72.5422 296.039 75.6354 299.523 84.9235C303.007 94.2116 289.097 101.962 288.297 107.766" stroke="white" stroke-miterlimit="10"/>
<path d="M284.318 224.063C284.161 218.737 284.092 211.629 284.413 204.131C285.091 188.665 303.58 168.152 304.249 164.459C304.919 160.766 303.242 160.115 303.242 160.115L266.593 144.31C249.555 155.501 245.41 188.048 244.394 203.236L284.318 224.063Z" fill="white" stroke="#263238" stroke-linecap="round" stroke-linejoin="round"/>
<path d="M299.262 161.097C299.262 161.097 302.338 163.017 299.262 166.093C296.186 169.168 287.724 182.245 284.248 189.934" stroke="#263238" stroke-width="0.5" stroke-linecap="round" stroke-linejoin="round"/>
<path d="M282.728 193.757C282.728 193.757 280.034 199.909 280.425 206.06C280.816 212.212 280.808 217.981 280.808 217.981" stroke="#263238" stroke-width="0.5" stroke-linecap="round" stroke-linejoin="round"/>
<path d="M210.838 152.747C212.454 156.952 214.401 165.997 213.106 171.167C212.437 173.851 210.195 179.49 208.206 184.295L257.618 210.118C257.566 199.83 257.696 183.591 259.008 180.576C260.946 176.05 276.463 133.389 275.516 123.692C274.569 113.996 255.802 100.094 255.802 100.094L258.678 76.4609L241.553 86.8091C241.553 86.8091 239.606 96.1754 237.669 98.4431C235.731 100.711 219.892 103.934 215.365 109.738C210.838 115.542 212.454 133.337 212.454 134.301C212.454 135.265 209.222 148.576 210.838 152.747Z" fill="white"/>
<g style="mix-blend-mode:multiply" opacity="0.5">
<path d="M275.49 123.657C274.517 113.961 255.776 100.059 255.776 100.059L258.678 76.4609L241.553 86.8091C241.553 86.8091 240.988 89.5112 240.171 92.3698C241.275 92.2742 242.508 92.1178 243.89 91.8745C250.424 90.7189 253.89 88.3991 253.89 88.3991L250.415 103.013C250.415 103.013 268.105 113.44 272.719 126.09C273.344 127.828 274.013 129.453 274.7 131.069C275.284 128.643 275.55 126.152 275.49 123.657Z" fill="white"/>
</g>
<path d="M210.838 152.747C212.454 156.952 214.401 165.997 213.106 171.167C212.437 173.851 210.195 179.49 208.206 184.295L257.618 210.118C257.566 199.83 257.696 183.591 259.008 180.576C260.946 176.05 276.463 133.389 275.516 123.692C274.569 113.996 255.802 100.094 255.802 100.094L258.678 76.4609L241.553 86.8091C241.553 86.8091 239.606 96.1754 237.669 98.4431C235.731 100.711 219.892 103.934 215.365 109.738C210.838 115.542 212.454 133.337 212.454 134.301C212.454 135.265 209.222 148.576 210.838 152.747Z" stroke="#263238" stroke-linecap="round" stroke-linejoin="round"/>
<path d="M210.838 152.747C212.454 156.952 214.401 165.997 213.106 171.167C212.437 173.851 210.195 179.49 208.206 184.295L257.618 210.118C257.566 199.83 257.696 183.591 259.008 180.576C260.946 176.05 276.463 133.389 275.516 123.692C274.917 117.653 267.427 109.999 261.858 105.072C256.375 110.885 244.481 121.728 235.792 116.898C227.972 112.553 228.468 105.95 229.623 102.023C224.34 103.969 218.024 106.454 215.426 109.79C210.899 115.612 212.515 133.389 212.515 134.353C212.515 135.317 209.222 148.576 210.838 152.747Z" fill="#263238" stroke="#263238" stroke-linecap="round" stroke-linejoin="round"/>
<path d="M239.702 141.261L228.945 136.212C228.945 136.212 225.913 131.173 224.236 131.173C222.559 131.173 221.543 138.237 221.543 138.237C221.543 138.237 215.834 143.615 217.85 148.993C219.866 154.372 227.26 162.443 236.339 159.42C245.419 156.396 242.726 146.986 242.726 146.986C242.726 146.986 246.427 140.6 246.427 139.253C246.427 137.907 239.702 141.261 239.702 141.261Z" fill="white" stroke="#263238" stroke-linecap="round" stroke-linejoin="round"/>
<path d="M216.66 37.0233C216.66 37.0233 218.927 48.666 218.597 56.7464C218.267 64.8268 215.044 68.0416 215.991 71.6126C216.938 75.1836 228.598 88.425 235.705 89.711C242.812 90.9969 259.625 80.0145 264.473 75.1662C269.321 70.318 269.964 63.2107 269.321 60.3C268.678 57.3894 266.089 34.1213 256.393 24.7463C246.696 15.3713 221.186 16.3444 216.66 37.0233Z" fill="white"/>
<g style="mix-blend-mode:multiply" opacity="0.5">
<path d="M256.445 24.7464C252.822 21.271 246.983 19.1857 240.857 19.0554L240.458 31.1152C240.458 31.1152 238.529 43.0359 245.454 52.6455C252.379 62.2551 258.53 64.9573 259.295 68.7976C260.059 72.638 256.584 76.461 247.756 83.0296C244.304 85.6422 240.606 87.912 236.713 89.8067C244.281 90.076 259.877 79.8148 264.517 75.1664C269.365 70.3182 270.008 63.2109 269.365 60.3002C268.722 57.3895 266.115 34.1214 256.445 24.7464Z" fill="white"/>
</g>
<path d="M216.66 37.0233C216.66 37.0233 218.927 48.666 218.597 56.7464C218.267 64.8268 215.044 68.0416 215.991 71.6126C216.938 75.1836 228.598 88.4251 235.705 89.711C242.812 90.9969 259.625 80.0145 264.473 75.1662C269.321 70.318 269.964 63.2107 269.321 60.3C268.678 57.3894 266.089 34.1213 256.393 24.7463C246.696 15.3713 221.186 16.3444 216.66 37.0233Z" stroke="#263238" stroke-linecap="round" stroke-linejoin="round"/>
<path d="M228.945 60.9431C228.945 60.9431 227.972 67.086 226.339 69.0235C227.607 70.1297 229.19 70.8104 230.866 70.9698" stroke="#263238" stroke-linecap="round" stroke-linejoin="round"/>
<path d="M229.588 76.4608C231.694 77.3942 233.989 77.8222 236.29 77.7105C238.59 77.5989 240.833 76.9507 242.838 75.8179" stroke="#263238" stroke-linecap="round" stroke-linejoin="round"/>
<path d="M241.222 57.711C241.222 58.7884 240.718 59.6572 240.093 59.6572C239.467 59.6572 238.963 58.7884 238.963 57.711C238.963 56.6336 239.467 55.7734 240.093 55.7734C240.718 55.7734 241.222 56.6423 241.222 57.711Z" fill="#263238"/>
<path d="M225.227 55.1304C225.227 56.1991 224.723 57.068 224.097 57.068C223.472 57.068 222.968 56.1991 222.968 55.1304C222.968 54.0617 223.472 53.1929 224.097 53.1929C224.723 53.1929 225.227 54.0617 225.227 55.1304Z" fill="#263238"/>
<path d="M220.865 46.7286C221.771 46.1628 222.782 45.7851 223.838 45.6179C224.893 45.4507 225.971 45.4975 227.008 45.7555" stroke="#263238" stroke-linecap="round" stroke-linejoin="round"/>
<path d="M236.053 47.05C236.053 47.05 237.99 46.0769 242.196 48.6661" stroke="#263238" stroke-linecap="round" stroke-linejoin="round"/>
<path d="M237.99 28.3001C237.99 28.3001 228.945 35.7375 224.419 40.2556C219.892 44.7737 217.954 48.0145 211.169 45.1125C204.383 42.2105 199.526 32.1752 208.562 20.2197C217.598 8.26418 235.071 4.70185 252.196 9.55009C269.321 14.3983 276.446 25.3894 277.732 37.3536C279.018 49.3178 276.429 62.5592 270.347 66.1216C264.265 69.6839 250.623 55.1305 245.775 46.077C242.737 40.3554 240.135 34.4129 237.99 28.3001Z" fill="#263238" stroke="#263238" stroke-linecap="round" stroke-linejoin="round"/>
<path d="M237.99 28.3C237.99 28.3 213.584 31.8971 212.428 37.3101C211.273 42.7231 218.623 41.1852 218.623 41.1852" stroke="white" stroke-miterlimit="10"/>
<path d="M209.283 31.8711C207.632 35.3987 208.944 37.7011 208.944 37.7011" stroke="white" stroke-miterlimit="10"/>
<path d="M262.362 16.7962C262.362 16.7962 238.746 12.9298 238.746 23.3735C238.746 23.3735 224.427 18.3428 215.139 25.3111C213.745 26.3273 212.466 27.4927 211.325 28.7865" stroke="white" stroke-miterlimit="10"/>
<path d="M239.936 25.7021C239.936 25.7021 245.958 45.1299 258.521 50.091" stroke="white" stroke-miterlimit="10"/>
<path d="M252.465 30.9238C257.305 34.9206 264.23 38.8652 272.449 38.4742" stroke="white" stroke-miterlimit="10"/>
<path d="M244.941 22.9912C246.073 24.5475 247.315 26.0197 248.66 27.3963" stroke="white" stroke-miterlimit="10"/>
<path d="M214.401 48.3446L252.213 54.809C252.213 54.809 252.213 60.5608 250.597 63.4976C248.981 66.4343 247.044 66.4691 242.838 66.4691C238.633 66.4691 232.786 63.8625 232.499 62.9154C231.83 60.6216 232.282 53.0539 232.282 53.0539L229.267 52.5673C229.267 52.5673 229.658 61.3862 228.042 62.3594C226.426 63.3325 215.756 61.3862 213.819 58.8057C211.881 56.2252 213.106 48.0145 214.401 48.3446Z" stroke="#263238" stroke-linecap="round" stroke-linejoin="round"/>
<path d="M252.213 54.8089L269.026 51.8982V54.1572L252.213 58.3625V54.8089Z" fill="white" stroke="#263238" stroke-linecap="round" stroke-linejoin="round"/>
<path d="M281.434 56.8208C282.747 48.6481 279.668 41.3568 274.556 40.5352C269.444 39.7137 264.235 45.6729 262.921 53.8456C261.608 62.0183 264.687 69.3096 269.799 70.1311C274.911 70.9527 280.12 64.9934 281.434 56.8208Z" fill="white" stroke="#263238" stroke-linecap="round" stroke-linejoin="round"/>
<path d="M284.135 57.1462C283.032 64.0275 279.2 69.1277 275.594 68.5456C271.989 67.9635 269.947 61.9249 271.05 55.0435C272.154 48.1621 275.977 43.0706 279.591 43.6528C283.206 44.2349 285.239 50.2735 284.135 57.1462Z" fill="white" stroke="#263238" stroke-linecap="round" stroke-linejoin="round"/>
<path d="M279.035 28.3C279.66 37.3452 278.674 46.4295 276.125 55.1304C276.125 55.1304 275.803 60.3435 280.651 58.041C285.5 55.7386 284.857 36.0589 284.205 27.9785C283.553 19.8981 277.428 22.1571 279.035 28.3Z" fill="white" stroke="#263238" stroke-linecap="round" stroke-linejoin="round"/>
<path d="M260.946 13.1037C260.946 13.1037 268.374 11.1661 272.241 17.9606C276.107 24.7551 275.473 30.8892 280.929 31.5322C286.386 32.1751 286.751 26.041 283.84 18.2821C280.929 10.5232 274.795 4.70179 266.385 4.05883C257.974 3.41588 253.838 10.2017 253.838 10.2017C253.838 10.2017 258.356 10.8446 260.946 13.1037Z" fill="white" stroke="#263238" stroke-linecap="round" stroke-linejoin="round"/>
<path d="M260.294 133.997L237.99 184.747C237.99 184.747 177.222 196.042 171.731 196.042C166.24 196.042 155.223 199.917 152.981 201.255C150.739 202.593 128.766 212.681 132.997 213.306C135.604 213.697 142.346 209.987 142.346 209.987C142.346 209.987 131.677 215.201 132.641 216.773C133.605 218.346 146.543 211.925 146.543 211.925C146.543 211.925 134.718 218.876 137.142 219.267C139.349 219.658 142.016 218.398 144.284 216.773C146.261 215.559 148.391 214.613 150.618 213.958C150.618 213.958 145.405 217.434 144.788 219.015C144.171 220.596 146.082 219.658 148.02 219.015C151.646 217.451 155.151 215.622 158.507 213.541C159.793 212.568 163.677 210.63 166.266 208.371L171.436 203.845C171.436 203.845 206.016 204.809 221.829 204.166C237.643 203.523 245.428 201.907 251.249 196.086C257.07 190.264 273.553 153.416 277.428 143.398C281.303 133.38 278.722 127.559 274.821 120.808" fill="white"/>
<g style="mix-blend-mode:multiply" opacity="0.5">
<path d="M261.198 167.248C250.771 186.858 241.97 193.01 232.742 197.658C223.515 202.307 172.748 203.427 172.748 203.427L174.885 203.94C184.051 204.166 209.049 204.696 221.803 204.175C237.643 203.532 245.402 201.916 251.223 196.094C257.044 190.273 273.527 153.425 277.402 143.407C279.2 138.767 279.6 135.031 279.139 131.677L276.941 133.058C272.387 144.762 267.129 156.179 261.198 167.248Z" fill="white"/>
</g>
<path d="M260.294 133.997L237.99 184.747C237.99 184.747 177.222 196.042 171.731 196.042C166.24 196.042 155.223 199.917 152.981 201.255C150.739 202.593 128.766 212.681 132.997 213.306C135.604 213.697 142.346 209.987 142.346 209.987C142.346 209.987 131.677 215.201 132.641 216.773C133.605 218.346 146.543 211.925 146.543 211.925C146.543 211.925 134.718 218.876 137.142 219.267C139.349 219.658 142.016 218.398 144.284 216.773C146.261 215.559 148.391 214.613 150.618 213.958C150.618 213.958 145.405 217.434 144.788 219.015C144.171 220.596 146.082 219.658 148.02 219.015C151.646 217.451 155.151 215.622 158.507 213.541C159.793 212.568 163.677 210.63 166.266 208.371L171.436 203.845C171.436 203.845 206.016 204.809 221.829 204.166C237.643 203.523 245.428 201.907 251.249 196.086C257.07 190.264 273.553 153.416 277.428 143.398C281.303 133.38 278.722 127.559 274.821 120.808" stroke="#263238" stroke-miterlimit="10"/>
<path d="M259.92 132.72L253.134 150.314C258.122 147.655 267.479 144.084 274.943 149.445C275.994 146.978 276.854 144.892 277.428 143.407C281.312 133.389 278.722 127.567 274.821 120.816" fill="#263238"/>
<path d="M259.92 132.72L253.134 150.314C258.122 147.655 267.479 144.084 274.943 149.445C275.994 146.978 276.854 144.892 277.428 143.407C281.312 133.389 278.722 127.567 274.821 120.816" stroke="#263238" stroke-linecap="round" stroke-linejoin="round"/>
<path d="M211.898 156.066C205.338 157.986 179.429 165.571 177.022 166.136C175.532 166.499 174.02 166.769 172.496 166.944C172.496 166.944 163.442 163.06 161.018 161.288C158.594 159.515 155.683 160.636 154.232 161.288C152.781 161.939 151.626 166.457 154.397 166.457C157.169 166.457 157.629 166.292 160.696 168.882C163.764 171.471 163.772 172.765 166.031 173.73C168.29 174.694 172.018 174.051 173.955 173.73C175.693 173.443 205.738 171.445 213.132 171.054C214.097 166.987 213.132 160.636 211.898 156.066Z" fill="white"/>
<g style="mix-blend-mode:multiply" opacity="0.5">
<path d="M212.932 160.74L173.955 173.773C175.693 173.486 205.738 171.488 213.132 171.097C213.792 168.265 213.549 164.398 212.932 160.74Z" fill="white"/>
</g>
<path d="M211.898 156.066C205.338 157.986 179.429 165.571 177.022 166.136C175.532 166.499 174.02 166.769 172.496 166.944C172.496 166.944 163.442 163.06 161.018 161.288C158.594 159.515 155.683 160.636 154.232 161.288C152.781 161.939 151.626 166.457 154.397 166.457C157.169 166.457 157.629 166.292 160.696 168.882C163.764 171.471 163.772 172.765 166.031 173.73C168.29 174.694 172.018 174.051 173.955 173.73C175.693 173.443 205.738 171.445 213.132 171.054C214.097 166.987 213.132 160.636 211.898 156.066Z" stroke="#263238" stroke-linecap="round" stroke-linejoin="round"/>
<path d="M147.116 166.623C147.116 166.623 143.719 168.56 142.772 170.819C141.825 173.078 143.736 172.435 144.388 171.957C145.04 171.479 147.785 169.203 147.785 169.203L147.116 166.623Z" fill="white" stroke="#263238" stroke-linecap="round" stroke-linejoin="round"/>
<path d="M148.089 164.998C147.453 165.406 146.95 165.991 146.641 166.681C146.333 167.37 146.232 168.135 146.352 168.882C146.673 171.627 149.584 175.667 149.914 174.051C150.244 172.435 148.089 164.998 148.089 164.998Z" fill="white" stroke="#263238" stroke-linecap="round" stroke-linejoin="round"/>
<path d="M152.129 162.573C152.129 162.573 149.054 163.382 148.089 164.998C147.125 166.614 148.732 173.573 149.87 174.051C150.112 174.16 150.375 174.212 150.64 174.203C150.904 174.194 151.163 174.125 151.397 174.001C151.631 173.877 151.833 173.701 151.989 173.487C152.144 173.273 152.249 173.026 152.295 172.765C152.616 171.627 152.129 162.573 152.129 162.573Z" fill="white" stroke="#263238" stroke-linecap="round" stroke-linejoin="round"/>
<path d="M156.013 160.958C156.013 160.958 151.964 160.958 151.487 162.904C151.009 164.85 150.192 173.243 151 174.538C151.808 175.832 153.103 175.346 153.746 173.73C154.389 172.114 156.013 160.958 156.013 160.958Z" fill="white" stroke="#263238" stroke-linecap="round" stroke-linejoin="round"/>
<path d="M159.689 145.9L153.05 176.128L154.093 179.986C154.109 180.045 154.14 180.099 154.183 180.142C154.226 180.185 154.28 180.216 154.339 180.232C154.398 180.248 154.46 180.248 154.519 180.232C154.578 180.216 154.632 180.185 154.675 180.142L157.577 177.257L162.425 146.708L159.689 145.9Z" fill="#263238"/>
<path d="M166.196 170.298C166.196 170.298 162.478 171.758 159.567 173.052C156.656 174.347 153.746 174.99 154.067 176.771C154.389 178.552 155.683 177.9 157.786 177.257C160.671 176.251 163.653 175.547 166.683 175.155C170.723 174.668 173.955 170.949 173.955 170.949" fill="white"/>
<path d="M166.196 170.298C166.196 170.298 162.478 171.758 159.567 173.052C156.656 174.347 153.746 174.99 154.067 176.771C154.389 178.552 155.683 177.9 157.786 177.257C160.671 176.251 163.653 175.547 166.683 175.155C170.723 174.668 173.955 170.949 173.955 170.949" stroke="#263238" stroke-linecap="round" stroke-linejoin="round"/>
<path d="M153.137 176.597L153.815 179.447C153.848 179.584 153.917 179.71 154.014 179.813C154.111 179.915 154.234 179.991 154.369 180.031C154.505 180.072 154.648 180.076 154.786 180.043C154.923 180.011 155.05 179.943 155.153 179.846L156.743 178.335" stroke="white" stroke-width="0.5" stroke-linecap="round" stroke-linejoin="round"/>
<path d="M153.059 176.128L156.491 160.818" stroke="white" stroke-width="0.5" stroke-linecap="round" stroke-linejoin="round"/>
<path d="M34.3121 116.098L78.1461 156.865" stroke="#263238" stroke-width="0.5" stroke-linecap="round" stroke-linejoin="round"/>
</svg>
