<svg width="556" height="532" viewBox="0 0 556 532" fill="none" xmlns="http://www.w3.org/2000/svg">
<path d="M317.698 68.7278H282.515V76.8306H317.698V68.7278Z" fill="white"/>
<path d="M305.631 80.4346H282.515V88.5373H305.631V80.4346Z" fill="white"/>
<path d="M295.825 92.1413H282.515V100.244H295.825V92.1413Z" fill="white"/>
<g opacity="0.2">
<path d="M317.698 68.7278H282.515V76.8306H317.698V68.7278Z" fill="black"/>
<path d="M305.631 80.4346H282.515V88.5373H305.631V80.4346Z" fill="black"/>
<path d="M295.825 92.1413H282.515V100.244H295.825V92.1413Z" fill="black"/>
</g>
<path d="M221.421 158.455V182.85H233.352V158.455H221.421Z" fill="white"/>
<path d="M238.659 166.831V182.85H250.589V166.831H238.659Z" fill="white"/>
<path d="M255.883 173.616V182.837H267.813V173.616H255.883Z" fill="white"/>
<g opacity="0.2">
<path d="M221.422 158.455V182.85H233.352V158.455H221.422Z" fill="black"/>
<path d="M238.659 166.831V182.85H250.589V166.831H238.659Z" fill="black"/>
<path d="M255.883 173.616V182.837H267.813V173.616H255.883Z" fill="black"/>
</g>
<path d="M218.75 200.646H363.22C365.112 200.649 366.986 200.28 368.735 199.558C370.483 198.836 372.073 197.777 373.412 196.44C374.751 195.103 375.813 193.516 376.538 191.768C377.263 190.02 377.636 188.147 377.636 186.255V67.1992C377.636 65.3073 377.263 63.4339 376.538 61.6862C375.813 59.9386 374.751 58.3511 373.412 57.0144C372.073 55.6777 370.483 54.6182 368.735 53.8965C366.986 53.1747 365.112 52.8049 363.22 52.8081H218.75C216.858 52.8065 214.985 53.1775 213.237 53.8998C211.488 54.6221 209.9 55.6817 208.561 57.018C207.222 58.3544 206.16 59.9413 205.435 61.6882C204.709 63.4351 204.335 65.3077 204.334 67.1992V186.255C204.335 188.147 204.709 190.019 205.435 191.766C206.16 193.513 207.222 195.1 208.561 196.436C209.9 197.773 211.488 198.832 213.237 199.555C214.985 200.277 216.858 200.648 218.75 200.646V200.646Z" stroke="#263238" stroke-width="1.0631" stroke-miterlimit="10"/>
<path d="M309.843 159.772H361.356" stroke="#263238" stroke-width="1.0631" stroke-miterlimit="10"/>
<path d="M309.843 165.277H361.356" stroke="#263238" stroke-width="1.0631" stroke-miterlimit="10"/>
<path d="M309.843 170.783H361.356" stroke="#263238" stroke-width="1.0631" stroke-miterlimit="10"/>
<path d="M309.843 176.301H361.356" stroke="#263238" stroke-width="1.0631" stroke-miterlimit="10"/>
<path d="M309.843 181.806H361.356" stroke="#263238" stroke-width="1.0631" stroke-miterlimit="10"/>
<path d="M219.843 69.9333H271.355" stroke="#263238" stroke-width="1.0631" stroke-miterlimit="10"/>
<path d="M219.843 75.4387H271.355" stroke="#263238" stroke-width="1.0631" stroke-miterlimit="10"/>
<path d="M219.843 80.9441H271.355" stroke="#263238" stroke-width="1.0631" stroke-miterlimit="10"/>
<path d="M219.843 86.4495H271.355" stroke="#263238" stroke-width="1.0631" stroke-miterlimit="10"/>
<path d="M219.843 91.9673H271.355" stroke="#263238" stroke-width="1.0631" stroke-miterlimit="10"/>
<path d="M354.906 113.231L364.723 118.388L363.617 90.6997L340.154 105.501L349.972 110.646L342.59 124.701C341.284 124.707 340.017 125.144 338.986 125.944L325.987 119.904C325.987 118.316 325.356 116.792 324.232 115.669C323.109 114.545 321.585 113.914 319.997 113.914C318.408 113.914 316.884 114.545 315.761 115.669C314.638 116.792 314.007 118.316 314.007 119.904C314.006 120.763 314.193 121.611 314.553 122.39L297.515 140.857C296.973 140.683 296.407 140.591 295.838 140.584C295.55 140.594 295.264 140.623 294.98 140.671L270.485 109.714C270.838 108.933 271.016 108.085 271.007 107.228C271.007 105.64 270.376 104.116 269.253 102.993C268.13 101.869 266.606 101.238 265.017 101.238C263.429 101.238 261.905 101.869 260.782 102.993C259.658 104.116 259.027 105.64 259.027 107.228C259.04 107.845 259.145 108.457 259.338 109.043L231.364 137.527C230.706 137.286 230.013 137.16 229.313 137.154C228.131 137.156 226.977 137.509 225.995 138.167C225.014 138.826 224.25 139.76 223.799 140.853C223.349 141.945 223.232 143.147 223.464 144.305C223.696 145.464 224.266 146.528 225.103 147.363C225.939 148.197 227.005 148.766 228.164 148.995C229.323 149.225 230.524 149.106 231.616 148.653C232.707 148.2 233.64 147.434 234.297 146.451C234.953 145.468 235.303 144.313 235.303 143.132C235.301 142.636 235.234 142.143 235.104 141.665L263.315 112.858C263.866 113.031 264.44 113.123 265.017 113.131C265.384 113.131 265.75 113.097 266.111 113.032L290.481 143.927C290.041 144.809 289.824 145.785 289.851 146.771C289.878 147.756 290.148 148.719 290.637 149.575C291.126 150.431 291.818 151.154 292.653 151.678C293.487 152.202 294.439 152.513 295.422 152.581C296.405 152.65 297.39 152.475 298.29 152.072C299.189 151.668 299.975 151.049 300.578 150.269C301.181 149.49 301.582 148.573 301.746 147.601C301.91 146.629 301.831 145.632 301.517 144.697L318.99 125.77C319.323 125.829 319.659 125.862 319.997 125.87C321.184 125.871 322.344 125.516 323.327 124.851L336.625 131.064C336.676 131.986 336.94 132.884 337.396 133.687C337.852 134.49 338.488 135.176 339.254 135.692C340.02 136.208 340.895 136.539 341.81 136.66C342.725 136.781 343.656 136.688 344.53 136.389C345.404 136.09 346.196 135.593 346.845 134.936C347.494 134.279 347.982 133.481 348.271 132.604C348.56 131.727 348.642 130.795 348.51 129.881C348.378 128.967 348.036 128.096 347.511 127.336L354.906 113.231Z" fill="#263238"/>
<path d="M171.314 140.435L154.512 114.175L126.748 134.594L101.148 83.9267L33.5916 126.876V161.574H185.928V132.407L171.314 140.435Z" fill="#263238" stroke="#263238" stroke-width="1.16063" stroke-linecap="round" stroke-linejoin="round"/>
<path d="M174.234 160.12L155.978 132.407L125.294 144.809L89.4907 110.534L33.5916 133.102V183.459H185.928V152.092L174.234 160.12Z" fill="white" stroke="#263238" stroke-width="0.876601" stroke-miterlimit="10"/>
<path opacity="0.2" d="M174.234 160.12L155.978 132.407L125.294 144.809L89.4907 110.534L33.5916 133.102V183.459H185.928V152.092L174.234 160.12Z" fill="black"/>
<path d="M174.234 160.12L155.978 132.407L125.294 144.809L89.4907 110.534L33.5916 133.102V183.459H185.928V152.092L174.234 160.12Z" stroke="#263238" stroke-width="0.876601" stroke-miterlimit="10"/>
<path d="M120.149 71.0766H107.883C107.133 71.071 106.404 71.3197 105.813 71.7822C105.223 72.2446 104.806 72.8935 104.632 73.623C104.457 74.3525 104.535 75.1195 104.853 75.7991C105.17 76.4787 105.708 77.0306 106.38 77.365L102.092 81.9259L109.909 77.7378H120.149C121.033 77.7378 121.88 77.3869 122.505 76.7623C123.129 76.1377 123.48 75.2905 123.48 74.4072C123.48 73.5239 123.129 72.6767 122.505 72.0521C121.88 71.4275 121.033 71.0766 120.149 71.0766Z" fill="white"/>
<path opacity="0.2" d="M120.149 71.0766H107.883C107.133 71.071 106.404 71.3197 105.813 71.7822C105.223 72.2446 104.806 72.8935 104.632 73.623C104.457 74.3525 104.535 75.1195 104.853 75.7991C105.17 76.4787 105.708 77.0306 106.38 77.365L102.092 81.9259L109.909 77.7378H120.149C121.033 77.7378 121.88 77.3869 122.505 76.7623C123.129 76.1377 123.48 75.2905 123.48 74.4072C123.48 73.5239 123.129 72.6767 122.505 72.0521C121.88 71.4275 121.033 71.0766 120.149 71.0766Z" fill="black"/>
<path d="M173.874 100.729H161.608C160.858 100.723 160.128 100.972 159.537 101.434C158.947 101.897 158.53 102.546 158.356 103.275C158.181 104.005 158.259 104.772 158.577 105.451C158.894 106.131 159.433 106.683 160.104 107.017L155.816 111.615L163.633 107.415H173.874C174.757 107.415 175.604 107.064 176.229 106.439C176.853 105.815 177.204 104.967 177.204 104.084C177.204 103.201 176.853 102.354 176.229 101.729C175.604 101.104 174.757 100.754 173.874 100.754V100.729Z" fill="white"/>
<path opacity="0.2" d="M173.874 100.729H161.608C160.858 100.723 160.128 100.972 159.537 101.434C158.947 101.897 158.53 102.546 158.356 103.275C158.181 104.005 158.259 104.772 158.577 105.451C158.894 106.131 159.433 106.683 160.104 107.017L155.816 111.615L163.633 107.415H173.874C174.757 107.415 175.604 107.064 176.229 106.439C176.853 105.815 177.204 104.967 177.204 104.084C177.204 103.201 176.853 102.354 176.229 101.729C175.604 101.104 174.757 100.754 173.874 100.754V100.729Z" fill="black"/>
<path d="M39.7433 200.646H184.213C186.105 200.649 187.979 200.28 189.728 199.558C191.477 198.836 193.067 197.777 194.406 196.44C195.745 195.103 196.807 193.516 197.532 191.768C198.256 190.02 198.629 188.147 198.629 186.255V67.1992C198.629 65.3073 198.256 63.4339 197.532 61.6862C196.807 59.9386 195.745 58.3511 194.406 57.0144C193.067 55.6777 191.477 54.6182 189.728 53.8965C187.979 53.1747 186.105 52.8049 184.213 52.8081H39.7433C37.8513 52.8049 35.9773 53.1747 34.2284 53.8965C32.4795 54.6182 30.8901 55.6777 29.5512 57.0144C28.2122 58.3511 27.1499 59.9386 26.4252 61.6862C25.7004 63.4339 25.3273 65.3073 25.3273 67.1992V186.255C25.3273 188.147 25.7004 190.02 26.4252 191.768C27.1499 193.516 28.2122 195.103 29.5512 196.44C30.8901 197.777 32.4795 198.836 34.2284 199.558C35.9773 200.28 37.8513 200.649 39.7433 200.646V200.646Z" stroke="#263238" stroke-width="1.0631" stroke-miterlimit="10"/>
<path d="M36.3008 68.877H46.2553" stroke="#263238" stroke-width="1.0631" stroke-miterlimit="10"/>
<path d="M36.3008 79.7138H46.2553" stroke="#263238" stroke-width="1.0631" stroke-miterlimit="10"/>
<path d="M36.3008 90.5506H46.2553" stroke="#263238" stroke-width="1.0631" stroke-miterlimit="10"/>
<path d="M36.3008 101.387H46.2553" stroke="#263238" stroke-width="1.0631" stroke-miterlimit="10"/>
<path d="M36.3008 112.224H46.2553" stroke="#263238" stroke-width="1.0631" stroke-miterlimit="10"/>
<path d="M427.259 83.5663C420.787 83.5761 414.463 85.5043 409.086 89.1071C403.71 92.71 399.522 97.8258 397.052 103.808C394.582 109.79 393.941 116.37 395.209 122.717C396.478 129.063 399.6 134.892 404.18 139.464C408.759 144.037 414.592 147.15 420.941 148.409C427.289 149.668 433.868 149.017 439.847 146.538C445.825 144.059 450.935 139.863 454.529 134.481C458.124 129.099 460.043 122.773 460.043 116.3C460.03 107.614 456.57 99.2883 450.423 93.1509C444.276 87.0135 435.945 83.5663 427.259 83.5663ZM427.259 139.416C422.688 139.398 418.224 138.027 414.432 135.475C410.64 132.923 407.689 129.304 405.953 125.076C404.216 120.847 403.771 116.199 404.674 111.718C405.577 107.237 407.788 103.125 411.027 99.8994C414.266 96.6741 418.389 94.481 422.873 93.5971C427.358 92.7131 432.004 93.178 436.225 94.9329C440.446 96.6878 444.052 99.6541 446.588 103.457C449.124 107.26 450.476 111.729 450.473 116.3C450.467 119.343 449.861 122.353 448.691 125.161C447.521 127.969 445.809 130.52 443.653 132.666C441.498 134.812 438.94 136.513 436.127 137.671C433.314 138.829 430.301 139.422 427.259 139.416Z" fill="white" stroke="#263238" stroke-width="1.0631" stroke-miterlimit="10"/>
<g opacity="0.2">
<path d="M427.259 83.5663C420.787 83.5761 414.463 85.5043 409.086 89.1071C403.71 92.71 399.522 97.8258 397.052 103.808C394.582 109.79 393.941 116.37 395.209 122.717C396.478 129.063 399.6 134.892 404.18 139.464C408.759 144.037 414.592 147.15 420.941 148.409C427.289 149.668 433.868 149.017 439.847 146.538C445.825 144.059 450.935 139.863 454.529 134.481C458.124 129.099 460.043 122.773 460.043 116.3C460.03 107.614 456.57 99.2883 450.423 93.1509C444.276 87.0135 435.945 83.5663 427.259 83.5663ZM427.259 139.416C422.688 139.398 418.224 138.027 414.432 135.475C410.64 132.923 407.689 129.304 405.953 125.076C404.216 120.847 403.771 116.199 404.674 111.718C405.577 107.237 407.788 103.125 411.027 99.8994C414.266 96.6741 418.389 94.481 422.873 93.5971C427.358 92.7131 432.004 93.178 436.225 94.9329C440.446 96.6878 444.052 99.6541 446.588 103.457C449.124 107.26 450.476 111.729 450.473 116.3C450.467 119.343 449.861 122.353 448.691 125.161C447.521 127.969 445.809 130.52 443.653 132.666C441.498 134.812 438.94 136.513 436.127 137.671C433.314 138.829 430.301 139.422 427.259 139.416Z" fill="black"/>
</g>
<path d="M427.259 83.5663C420.787 83.5761 414.463 85.5043 409.086 89.1071C403.71 92.71 399.522 97.8258 397.052 103.808C394.582 109.79 393.941 116.37 395.209 122.717C396.478 129.063 399.6 134.892 404.18 139.464C408.759 144.037 414.592 147.15 420.941 148.409C427.289 149.668 433.868 149.017 439.847 146.538C445.825 144.059 450.935 139.863 454.529 134.481C458.124 129.099 460.043 122.773 460.043 116.3C460.03 107.614 456.57 99.2883 450.423 93.1509C444.276 87.0135 435.945 83.5663 427.259 83.5663V83.5663ZM427.259 139.416C422.688 139.398 418.224 138.027 414.432 135.475C410.64 132.923 407.689 129.304 405.953 125.076C404.216 120.847 403.771 116.199 404.674 111.718C405.577 107.237 407.788 103.125 411.027 99.8994C414.266 96.6741 418.389 94.481 422.873 93.5971C427.358 92.7131 432.004 93.178 436.225 94.9329C440.446 96.6878 444.052 99.6541 446.588 103.457C449.124 107.26 450.476 111.729 450.473 116.3C450.467 119.343 449.861 122.353 448.691 125.161C447.521 127.969 445.809 130.52 443.653 132.666C441.498 134.812 438.94 136.513 436.127 137.671C433.314 138.829 430.301 139.422 427.259 139.416V139.416Z" stroke="#263238" stroke-width="1.0631" stroke-miterlimit="10"/>
<path d="M427.259 83.5663C422.835 83.5484 418.453 84.4329 414.383 86.1659C410.312 87.8988 406.638 90.4437 403.584 93.645L410.531 100.294C413.175 97.5253 416.465 95.456 420.105 94.2713C423.746 93.0867 427.623 92.8237 431.39 93.506C435.157 94.1882 438.696 95.7944 441.689 98.1805C444.683 100.567 447.038 103.658 448.543 107.178C450.048 110.698 450.656 114.537 450.313 118.349C449.97 122.162 448.686 125.83 446.577 129.025C444.468 132.22 441.599 134.841 438.227 136.655C434.856 138.468 431.087 139.417 427.259 139.416V149.022C431.61 149.107 435.935 148.323 439.98 146.716C444.025 145.11 447.709 142.713 450.817 139.665C453.924 136.618 456.392 132.981 458.078 128.968C459.763 124.955 460.631 120.647 460.631 116.294C460.631 111.942 459.763 107.633 458.078 103.62C456.392 99.6073 453.924 95.9708 450.817 92.9233C447.709 89.8758 444.025 87.4786 439.98 85.872C435.935 84.2653 431.61 83.4815 427.259 83.5663Z" fill="#263238" stroke="#263238" stroke-width="1.0631" stroke-linecap="round" stroke-linejoin="round"/>
<path d="M508.112 83.5663C501.64 83.5761 495.316 85.5043 489.94 89.1071C484.563 92.71 480.375 97.8258 477.905 103.808C475.436 109.79 474.794 116.37 476.063 122.717C477.332 129.063 480.453 134.892 485.033 139.464C489.613 144.037 495.446 147.15 501.794 148.409C508.143 149.668 514.722 149.017 520.7 146.538C526.679 144.059 531.788 139.863 535.383 134.481C538.978 129.099 540.896 122.773 540.896 116.3C540.883 107.614 537.423 99.2883 531.277 93.1509C525.13 87.0135 516.799 83.5663 508.112 83.5663ZM508.112 139.416C503.538 139.413 499.067 138.054 495.265 135.511C491.463 132.968 488.501 129.354 486.753 125.127C485.005 120.9 484.549 116.25 485.444 111.764C486.339 107.278 488.544 103.158 491.78 99.9255C495.016 96.6928 499.138 94.4923 503.625 93.6023C508.112 92.7124 512.762 93.1729 516.987 94.9256C521.212 96.6784 524.822 99.6446 527.362 103.449C529.901 107.254 531.255 111.726 531.252 116.3C531.236 122.43 528.792 128.304 524.455 132.636C520.118 136.968 514.242 139.406 508.112 139.416Z" fill="white" stroke="#263238" stroke-width="1.0631" stroke-miterlimit="10"/>
<g opacity="0.2">
<path d="M508.112 83.5663C501.64 83.5761 495.316 85.5043 489.94 89.1071C484.563 92.71 480.375 97.8258 477.905 103.808C475.436 109.79 474.794 116.37 476.063 122.717C477.332 129.063 480.453 134.892 485.033 139.464C489.613 144.037 495.446 147.15 501.794 148.409C508.143 149.668 514.722 149.017 520.7 146.538C526.679 144.059 531.788 139.863 535.383 134.481C538.978 129.099 540.896 122.773 540.896 116.3C540.883 107.614 537.423 99.2883 531.277 93.1509C525.13 87.0135 516.799 83.5663 508.112 83.5663ZM508.112 139.416C503.538 139.413 499.067 138.054 495.265 135.511C491.463 132.968 488.501 129.354 486.753 125.127C485.005 120.9 484.549 116.25 485.444 111.764C486.339 107.278 488.544 103.158 491.78 99.9255C495.016 96.6928 499.138 94.4923 503.625 93.6023C508.112 92.7124 512.762 93.1729 516.987 94.9256C521.212 96.6784 524.822 99.6446 527.362 103.449C529.901 107.254 531.255 111.726 531.252 116.3C531.236 122.43 528.792 128.304 524.455 132.636C520.118 136.968 514.242 139.406 508.112 139.416Z" fill="black"/>
</g>
<path d="M508.112 83.5663C501.64 83.5761 495.316 85.5043 489.94 89.1071C484.563 92.71 480.375 97.8258 477.905 103.808C475.436 109.79 474.794 116.37 476.063 122.717C477.332 129.063 480.453 134.892 485.033 139.464C489.613 144.037 495.446 147.15 501.794 148.409C508.143 149.668 514.722 149.017 520.7 146.538C526.679 144.059 531.788 139.863 535.383 134.481C538.978 129.099 540.896 122.773 540.896 116.3C540.883 107.614 537.423 99.2883 531.277 93.1509C525.13 87.0135 516.799 83.5663 508.112 83.5663V83.5663ZM508.112 139.416C503.538 139.413 499.067 138.054 495.265 135.511C491.463 132.968 488.501 129.354 486.753 125.127C485.005 120.9 484.549 116.25 485.444 111.764C486.339 107.278 488.544 103.158 491.78 99.9255C495.016 96.6928 499.138 94.4923 503.625 93.6023C508.112 92.7124 512.762 93.1729 516.987 94.9256C521.212 96.6784 524.822 99.6446 527.362 103.449C529.901 107.254 531.255 111.726 531.252 116.3C531.236 122.43 528.792 128.304 524.455 132.636C520.118 136.968 514.242 139.406 508.112 139.416V139.416Z" stroke="#263238" stroke-width="1.0631" stroke-miterlimit="10"/>
<path d="M520.875 86.1388L517.147 94.9872C522.063 97.0662 526.108 100.781 528.597 105.502C531.086 110.224 531.865 115.66 530.803 120.891C529.741 126.121 526.903 130.823 522.769 134.199C518.636 137.576 513.462 139.419 508.125 139.416V149.022C515.686 149.04 523.02 146.438 528.88 141.659C534.74 136.88 538.764 130.219 540.268 122.809C541.772 115.399 540.663 107.696 537.13 101.011C533.597 94.326 527.858 89.0707 520.888 86.1388H520.875Z" fill="#263238" stroke="#263238" stroke-width="1.0631" stroke-linecap="round" stroke-linejoin="round"/>
<path d="M536.621 52.8082H401.534C399.182 52.8065 396.853 53.2681 394.68 54.1666C392.506 55.065 390.531 56.3828 388.867 58.0445C387.203 59.7063 385.883 61.6795 384.981 63.8516C384.08 66.0237 383.615 68.3521 383.613 70.7038V182.763C383.62 187.51 385.511 192.061 388.872 195.414C392.232 198.768 396.786 200.649 401.534 200.646H536.621C538.972 200.649 541.301 200.189 543.474 199.292C545.648 198.395 547.623 197.079 549.287 195.418C550.951 193.757 552.272 191.785 553.173 189.613C554.075 187.442 554.54 185.114 554.542 182.763V70.7038C554.54 68.3521 554.075 66.0237 553.174 63.8516C552.272 61.6795 550.952 59.7063 549.288 58.0445C547.624 56.3828 545.649 55.065 543.475 54.1666C541.302 53.2681 538.973 52.8065 536.621 52.8082V52.8082Z" stroke="#263238" stroke-width="1.0631" stroke-miterlimit="10"/>
<path d="M398.129 159.772H449.628" stroke="#263238" stroke-width="1.0631" stroke-miterlimit="10"/>
<path d="M398.129 165.277H449.628" stroke="#263238" stroke-width="1.0631" stroke-miterlimit="10"/>
<path d="M398.129 170.783H449.628" stroke="#263238" stroke-width="1.0631" stroke-miterlimit="10"/>
<path d="M398.129 176.301H449.628" stroke="#263238" stroke-width="1.0631" stroke-miterlimit="10"/>
<path d="M398.129 181.806H449.628" stroke="#263238" stroke-width="1.0631" stroke-miterlimit="10"/>
<path d="M483.183 159.772H534.695" stroke="#263238" stroke-width="1.0631" stroke-miterlimit="10"/>
<path d="M483.183 165.277H534.695" stroke="#263238" stroke-width="1.0631" stroke-miterlimit="10"/>
<path d="M483.183 170.783H534.695" stroke="#263238" stroke-width="1.0631" stroke-miterlimit="10"/>
<path d="M483.183 176.301H534.695" stroke="#263238" stroke-width="1.0631" stroke-miterlimit="10"/>
<path d="M483.183 181.806H534.695" stroke="#263238" stroke-width="1.0631" stroke-miterlimit="10"/>
<path d="M441.6 67.9822H493.1" stroke="#263238" stroke-width="1.0631" stroke-miterlimit="10"/>
<path d="M441.6 73.5H493.1" stroke="#263238" stroke-width="1.0631" stroke-miterlimit="10"/>
<path d="M383.066 407.813H535.528C540.565 407.817 545.398 405.819 548.963 402.261C552.529 398.702 554.535 393.874 554.542 388.836V228.26C554.54 225.765 554.047 223.294 553.091 220.989C552.134 218.685 550.733 216.591 548.967 214.828C547.202 213.064 545.106 211.666 542.8 210.713C540.494 209.759 538.023 209.269 535.528 209.271H310.341C307.845 209.269 305.374 209.759 303.068 210.713C300.762 211.666 298.666 213.064 296.901 214.828C295.135 216.591 293.734 218.685 292.778 220.989C291.821 223.294 291.328 225.765 291.326 228.26V334.068" stroke="#263238" stroke-width="1.0631" stroke-miterlimit="10"/>
<path d="M365.071 302.912H328.808V355.618H365.071V302.912Z" fill="white" stroke="#263238" stroke-width="1.16063" stroke-miterlimit="10"/>
<path opacity="0.2" d="M365.071 302.912H328.808V355.618H365.071V302.912Z" fill="black"/>
<path d="M365.071 302.912H328.808V355.618H365.071V302.912Z" stroke="#263238" stroke-width="1.16063" stroke-miterlimit="10"/>
<path d="M415.428 276.554H379.164V334.901H415.428V276.554Z" fill="white" stroke="#263238" stroke-width="1.16063" stroke-miterlimit="10"/>
<path opacity="0.2" d="M415.428 276.554H379.164V334.901H415.428V276.554Z" fill="black"/>
<path d="M415.428 276.554H379.164V334.901H415.428V276.554Z" stroke="#263238" stroke-width="1.16063" stroke-miterlimit="10"/>
<path d="M465.784 254.917H429.521V293.505H465.784V254.917Z" fill="white" stroke="#263238" stroke-width="1.16063" stroke-miterlimit="10"/>
<path opacity="0.2" d="M465.784 254.917H429.521V293.505H465.784V254.917Z" fill="black"/>
<path d="M465.784 254.917H429.521V293.505H465.784V254.917Z" stroke="#263238" stroke-width="1.16063" stroke-miterlimit="10"/>
<path d="M365.071 355.605H328.808V377.254H365.071V355.605Z" fill="#263238" stroke="#263238" stroke-width="1.16063" stroke-linecap="round" stroke-linejoin="round"/>
<path d="M415.428 334.901H379.164V377.254H415.428V334.901Z" fill="#263238" stroke="#263238" stroke-width="1.16063" stroke-linecap="round" stroke-linejoin="round"/>
<path d="M513.17 276.554H476.907V334.901H513.17V276.554Z" fill="white" stroke="#263238" stroke-width="1.16063" stroke-miterlimit="10"/>
<path opacity="0.2" d="M513.17 276.554H476.907V334.901H513.17V276.554Z" fill="black"/>
<path d="M513.17 276.554H476.907V334.901H513.17V276.554Z" stroke="#263238" stroke-width="1.16063" stroke-miterlimit="10"/>
<path d="M513.17 334.901H476.907V377.254H513.17V334.901Z" fill="#263238" stroke="#263238" stroke-width="1.16063" stroke-linecap="round" stroke-linejoin="round"/>
<path d="M465.784 293.492H429.521V377.254H465.784V293.492Z" fill="#263238" stroke="#263238" stroke-width="1.16063" stroke-linecap="round" stroke-linejoin="round"/>
<path d="M409.139 254.992H386.509C385.471 254.992 384.475 255.404 383.741 256.138C383.007 256.873 382.594 257.868 382.594 258.906V264.114C382.594 265.152 383.007 266.148 383.741 266.882C384.475 267.616 385.471 268.028 386.509 268.028H394.897L397.83 273.099L400.751 268.028H409.139C410.178 268.028 411.173 267.616 411.908 266.882C412.642 266.148 413.054 265.152 413.054 264.114V258.906C413.054 257.868 412.642 256.873 411.908 256.138C411.173 255.404 410.178 254.992 409.139 254.992Z" fill="white"/>
<path opacity="0.5" d="M409.139 254.992H386.509C385.471 254.992 384.475 255.404 383.741 256.138C383.007 256.873 382.594 257.868 382.594 258.906V264.114C382.594 265.152 383.007 266.148 383.741 266.882C384.475 267.616 385.471 268.028 386.509 268.028H394.897L397.83 273.099L400.751 268.028H409.139C410.178 268.028 411.173 267.616 411.908 266.882C412.642 266.148 413.054 265.152 413.054 264.114V258.906C413.054 257.868 412.642 256.873 411.908 256.138C411.173 255.404 410.178 254.992 409.139 254.992Z" fill="white"/>
<path d="M409.139 254.992H386.509C385.471 254.992 384.475 255.404 383.741 256.138C383.007 256.873 382.594 257.868 382.594 258.906V264.114C382.594 265.152 383.007 266.148 383.741 266.882C384.475 267.616 385.471 268.028 386.509 268.028H394.897L397.83 273.099L400.751 268.028H409.139C410.178 268.028 411.173 267.616 411.908 266.882C412.642 266.148 413.054 265.152 413.054 264.114V258.906C413.054 257.868 412.642 256.873 411.908 256.138C411.173 255.404 410.178 254.992 409.139 254.992V254.992Z" stroke="#263238" stroke-width="1.16689" stroke-linecap="round" stroke-linejoin="round"/>
<path d="M358.249 282.022H335.631C334.594 282.022 333.601 282.432 332.867 283.164C332.133 283.895 331.719 284.888 331.716 285.924V291.143C331.719 292.18 332.133 293.172 332.867 293.904C333.601 294.635 334.594 295.046 335.631 295.046H344.007L346.94 300.116L349.873 295.046H358.249C359.285 295.046 360.279 294.635 361.012 293.904C361.746 293.172 362.16 292.18 362.163 291.143V285.924C362.16 284.888 361.746 283.895 361.012 283.164C360.279 282.432 359.285 282.022 358.249 282.022Z" fill="white"/>
<path opacity="0.5" d="M358.249 282.022H335.631C334.594 282.022 333.601 282.432 332.867 283.164C332.133 283.895 331.719 284.888 331.716 285.924V291.143C331.719 292.18 332.133 293.172 332.867 293.904C333.601 294.635 334.594 295.046 335.631 295.046H344.007L346.94 300.116L349.873 295.046H358.249C359.285 295.046 360.279 294.635 361.012 293.904C361.746 293.172 362.16 292.18 362.163 291.143V285.924C362.16 284.888 361.746 283.895 361.012 283.164C360.279 282.432 359.285 282.022 358.249 282.022Z" fill="white"/>
<path d="M358.249 282.022H335.631C334.594 282.022 333.601 282.432 332.867 283.164C332.133 283.895 331.719 284.888 331.716 285.924V291.143C331.719 292.18 332.133 293.172 332.867 293.904C333.601 294.635 334.594 295.046 335.631 295.046H344.007L346.94 300.116L349.873 295.046H358.249C359.285 295.046 360.279 294.635 361.012 293.904C361.746 293.172 362.16 292.18 362.163 291.143V285.924C362.16 284.888 361.746 283.895 361.012 283.164C360.279 282.432 359.285 282.022 358.249 282.022V282.022Z" stroke="#263238" stroke-width="1.16689" stroke-linecap="round" stroke-linejoin="round"/>
<path d="M458.738 233.281H436.107C435.069 233.281 434.073 233.693 433.339 234.427C432.605 235.162 432.193 236.157 432.193 237.196V242.403C432.193 242.916 432.294 243.425 432.491 243.899C432.688 244.373 432.976 244.804 433.34 245.166C433.704 245.529 434.135 245.816 434.61 246.011C435.085 246.207 435.594 246.307 436.107 246.305H444.496L447.416 251.375L450.349 246.305H458.738C459.251 246.307 459.76 246.207 460.235 246.011C460.71 245.816 461.141 245.529 461.505 245.166C461.869 244.804 462.157 244.373 462.354 243.899C462.551 243.425 462.652 242.916 462.652 242.403V237.196C462.652 236.157 462.24 235.162 461.506 234.427C460.772 233.693 459.776 233.281 458.738 233.281Z" fill="white"/>
<path opacity="0.5" d="M458.738 233.281H436.107C435.069 233.281 434.073 233.693 433.339 234.427C432.605 235.162 432.193 236.157 432.193 237.196V242.403C432.193 242.916 432.294 243.425 432.491 243.899C432.688 244.373 432.976 244.804 433.34 245.166C433.704 245.529 434.135 245.816 434.61 246.011C435.085 246.207 435.594 246.307 436.107 246.305H444.496L447.416 251.375L450.349 246.305H458.738C459.251 246.307 459.76 246.207 460.235 246.011C460.71 245.816 461.141 245.529 461.505 245.166C461.869 244.804 462.157 244.373 462.354 243.899C462.551 243.425 462.652 242.916 462.652 242.403V237.196C462.652 236.157 462.24 235.162 461.506 234.427C460.772 233.693 459.776 233.281 458.738 233.281Z" fill="white"/>
<path d="M458.738 233.281H436.107C435.069 233.281 434.073 233.693 433.339 234.427C432.605 235.162 432.193 236.157 432.193 237.196V242.403C432.193 242.916 432.294 243.425 432.491 243.899C432.688 244.373 432.976 244.804 433.34 245.166C433.704 245.529 434.135 245.816 434.61 246.011C435.085 246.207 435.594 246.307 436.107 246.305H444.496L447.416 251.375L450.349 246.305H458.738C459.251 246.307 459.76 246.207 460.235 246.011C460.71 245.816 461.141 245.529 461.505 245.166C461.869 244.804 462.157 244.373 462.354 243.899C462.551 243.425 462.652 242.916 462.652 242.403V237.196C462.652 236.157 462.24 235.162 461.506 234.427C460.772 233.693 459.776 233.281 458.738 233.281V233.281Z" stroke="#263238" stroke-width="1.16689" stroke-linecap="round" stroke-linejoin="round"/>
<path d="M506.397 254.656H483.779C482.741 254.656 481.745 255.069 481.011 255.803C480.277 256.537 479.865 257.533 479.865 258.571V263.778C479.865 264.292 479.966 264.8 480.163 265.274C480.36 265.749 480.648 266.179 481.012 266.542C481.376 266.904 481.807 267.192 482.282 267.387C482.757 267.582 483.266 267.682 483.779 267.68H492.155L495.088 272.751L498.021 267.68H506.397C506.912 267.682 507.421 267.582 507.896 267.387C508.372 267.192 508.804 266.905 509.169 266.543C509.534 266.18 509.824 265.75 510.022 265.275C510.22 264.801 510.323 264.292 510.325 263.778V258.571C510.321 257.532 509.906 256.536 509.17 255.802C508.434 255.068 507.437 254.656 506.397 254.656Z" fill="white"/>
<path opacity="0.5" d="M506.397 254.656H483.779C482.741 254.656 481.745 255.069 481.011 255.803C480.277 256.537 479.865 257.533 479.865 258.571V263.778C479.865 264.292 479.966 264.8 480.163 265.274C480.36 265.749 480.648 266.179 481.012 266.542C481.376 266.904 481.807 267.192 482.282 267.387C482.757 267.582 483.266 267.682 483.779 267.68H492.155L495.088 272.751L498.021 267.68H506.397C506.912 267.682 507.421 267.582 507.896 267.387C508.372 267.192 508.804 266.905 509.169 266.543C509.534 266.18 509.824 265.75 510.022 265.275C510.22 264.801 510.323 264.292 510.325 263.778V258.571C510.321 257.532 509.906 256.536 509.17 255.802C508.434 255.068 507.437 254.656 506.397 254.656Z" fill="white"/>
<path d="M506.397 254.656H483.779C482.741 254.656 481.745 255.069 481.011 255.803C480.277 256.537 479.865 257.533 479.865 258.571V263.778C479.865 264.292 479.966 264.8 480.163 265.274C480.36 265.749 480.648 266.179 481.012 266.542C481.376 266.904 481.807 267.192 482.282 267.387C482.757 267.582 483.266 267.682 483.779 267.68H492.155L495.088 272.751L498.021 267.68H506.397C506.912 267.682 507.421 267.582 507.896 267.387C508.372 267.192 508.804 266.905 509.169 266.543C509.534 266.18 509.824 265.75 510.022 265.275C510.22 264.801 510.323 264.292 510.325 263.778V258.571C510.321 257.532 509.906 256.536 509.17 255.802C508.434 255.068 507.437 254.656 506.397 254.656V254.656Z" stroke="#263238" stroke-width="1.16689" stroke-linecap="round" stroke-linejoin="round"/>
<path d="M330.038 225.874H381.55" stroke="#263238" stroke-width="1.0631" stroke-miterlimit="10"/>
<path d="M330.038 231.379H381.55" stroke="#263238" stroke-width="1.0631" stroke-miterlimit="10"/>
<path d="M330.038 236.897H381.55" stroke="#263238" stroke-width="1.0631" stroke-miterlimit="10"/>
<path d="M330.038 242.403H381.55" stroke="#263238" stroke-width="1.0631" stroke-miterlimit="10"/>
<path d="M330.038 247.908H381.55" stroke="#263238" stroke-width="1.0631" stroke-miterlimit="10"/>
<path d="M53.6373 313.724C52.9537 314.545 52.2578 315.414 51.5122 316.409C42.2661 328.836 47.0879 354.934 41.4707 364.565C35.8535 374.197 21.7855 371.438 18.9769 386.575C16.1682 401.711 17.7341 417.519 15.3604 425.1C12.9868 432.681 3.71583 437.528 2.10025 446.426C0.484672 455.324 0 461.774 0 461.774L53.6373 460.009V313.724Z" fill="white"/>
<path opacity="0.7" d="M53.6373 313.724C52.9537 314.545 52.2578 315.414 51.5122 316.409C42.2661 328.836 47.0879 354.934 41.4707 364.565C35.8535 374.197 21.7855 371.438 18.9769 386.575C16.1682 401.711 17.7341 417.519 15.3604 425.1C12.9868 432.681 3.71583 437.528 2.10025 446.426C0.484672 455.324 0 461.774 0 461.774L53.6373 460.009V313.724Z" fill="white"/>
<path d="M244.375 460.568L189.296 466.931L206.21 482.59L244.189 479.296" fill="#263238"/>
<path d="M244.375 460.568L189.296 466.931L206.21 482.59L244.189 479.296" stroke="#263238" stroke-width="0.969857" stroke-linecap="round" stroke-linejoin="round"/>
<path d="M207.254 469.429L242.536 465.576" stroke="white" stroke-width="0.484928" stroke-linecap="round" stroke-linejoin="round"/>
<path d="M210.013 473.282L241.989 470.535" stroke="white" stroke-width="0.484928" stroke-linecap="round" stroke-linejoin="round"/>
<path d="M213.319 476.587L242.536 473.828" stroke="white" stroke-width="0.484928" stroke-linecap="round" stroke-linejoin="round"/>
<path d="M210.771 467.167L220.825 478.128" stroke="white" stroke-width="0.484928" stroke-linecap="round" stroke-linejoin="round"/>
<path d="M218.215 466.807L228.207 477.134" stroke="white" stroke-width="0.484928" stroke-linecap="round" stroke-linejoin="round"/>
<path d="M225.945 465.701L235.924 476.028" stroke="white" stroke-width="0.484928" stroke-linecap="round" stroke-linejoin="round"/>
<path d="M234.209 465.154L242.536 473.828" stroke="white" stroke-width="0.484928" stroke-linecap="round" stroke-linejoin="round"/>
<path d="M188.054 330.154C186.239 329.383 177.838 296.686 177.838 296.686L173.513 284.358C173.513 284.358 167.014 262.175 164.528 258.049C162.043 253.923 152.101 250.592 152.101 250.592L148.372 248.542L132.217 239.843V239.93L129.893 235.07L102.08 212.701C102.08 212.701 102.577 218.094 103.323 223.413C103.248 223.413 97.5313 227.142 95.4932 230.41C95.108 231.019 94.7724 232.324 93.2314 235.742C87.0176 238.948 63.6166 251.214 55.8742 257.191C46.7897 264.188 45.1368 269.134 45.5469 273.26L45.9695 279.847C45.9695 279.847 49.8469 303.459 53.8858 315.104L53.3887 314.868L53.252 459.798L169.611 455.386L169.797 347.726C173.774 346.421 177.913 344.893 180.411 343.787L181.032 344.346L186.276 348.186C187.119 348.82 188.098 349.25 189.135 349.442C190.172 349.633 191.24 349.582 192.254 349.292C194.479 348.658 193.087 346.024 191.471 345.154C190.245 344.326 189.082 343.408 187.991 342.407L183.145 336.367C186.053 336.889 190.713 337.709 192.652 337.983C195.535 338.393 199.251 339.226 199.661 335.497C200.071 331.769 190.949 331.396 188.054 330.154Z" fill="white"/>
<path d="M102.217 212.751C102.217 212.751 103.795 230.273 104.826 233.43C105.758 236.288 110.468 251.885 114.594 258.882C118.72 265.878 123.753 265.095 124.536 257.241C125.319 249.387 124.922 236.649 124.922 236.649" stroke="#263238" stroke-width="0.969857" stroke-linecap="round" stroke-linejoin="round"/>
<path d="M103.161 223.824C103.161 223.824 97.6805 227.167 95.6175 230.46C93.5545 233.753 84.8801 264.238 84.8801 264.238L101.384 265.071L87.3532 271.284" stroke="#263238" stroke-width="0.969857" stroke-linecap="round" stroke-linejoin="round"/>
<path d="M87.7757 274.95C87.7757 274.95 101.806 298.028 103.869 300.514C105.137 302.052 106.241 303.718 107.163 305.485" stroke="#263238" stroke-width="0.969857" stroke-linecap="round" stroke-linejoin="round"/>
<path d="M104.279 230.92C104.279 230.92 111.289 259.764 115.464 275C119.64 290.236 123.629 309.213 123.629 309.213" stroke="#263238" stroke-width="0.969857" stroke-linecap="round" stroke-linejoin="round"/>
<path d="M124.872 239.942C124.872 239.942 126.525 273.31 126.525 286.496V307.498" stroke="#263238" stroke-width="0.969857" stroke-linecap="round" stroke-linejoin="round"/>
<path d="M130.688 236.636L141.836 259.304L132.751 262.187L146.782 270.004L133.994 309.971" stroke="#263238" stroke-width="0.969857" stroke-linecap="round" stroke-linejoin="round"/>
<path d="M132.341 239.942L148.435 248.592" stroke="#263238" stroke-width="0.969857" stroke-linecap="round" stroke-linejoin="round"/>
<path d="M161.235 273.72L163.298 312.444" stroke="#263238" stroke-width="0.969857" stroke-linecap="round" stroke-linejoin="round"/>
<path d="M93.132 235.816C93.132 235.816 65.0706 250.232 55.9985 257.241C46.9264 264.25 45.2611 269.184 45.6712 273.31" stroke="#263238" stroke-width="0.969857" stroke-linecap="round" stroke-linejoin="round"/>
<path d="M53.513 314.917V459.102" stroke="#263238" stroke-width="0.969857" stroke-linecap="round" stroke-linejoin="round"/>
<path d="M126.152 350.348V453.758" stroke="#263238" stroke-width="0.969857" stroke-linecap="round" stroke-linejoin="round"/>
<path d="M63.5917 271.259C63.5917 271.259 73.0615 274.578 77.262 282.618" stroke="#263238" stroke-width="0.969857" stroke-linecap="round" stroke-linejoin="round"/>
<path d="M69.7434 270.787C69.7434 270.787 78.2687 274.105 82.0591 282.146" stroke="#263238" stroke-width="0.969857" stroke-linecap="round" stroke-linejoin="round"/>
<path d="M64.064 403.128H95.4808V409.292H65.1825" stroke="#263238" stroke-width="0.969857" stroke-linecap="round" stroke-linejoin="round"/>
<path d="M180.237 302.129C177.279 294.673 174.806 288.459 173.513 284.371C173.581 286.849 173.144 289.315 172.227 291.618C171.311 293.921 169.934 296.014 168.182 297.767C159.607 306.144 157.184 303.235 157.569 314.868C157.954 326.5 162.54 331.782 159.669 341.699C156.798 351.616 144.309 361.409 144.756 378.584C144.917 382.349 145.965 386.024 147.813 389.309L96.0897 458.344L170.058 456.169V357.407L180.237 302.129Z" fill="white"/>
<path opacity="0.7" d="M180.237 302.129C177.279 294.673 174.806 288.459 173.513 284.371C173.581 286.849 173.144 289.315 172.227 291.618C171.311 293.921 169.934 296.014 168.182 297.767C159.607 306.144 157.184 303.235 157.569 314.868C157.954 326.5 162.54 331.782 159.669 341.699C156.798 351.616 144.309 361.409 144.756 378.584C144.917 382.349 145.965 386.024 147.813 389.309L96.0897 458.344L170.058 456.169V357.407L180.237 302.129Z" fill="white"/>
<path d="M170.121 408.981V451.894" stroke="#263238" stroke-width="0.969857" stroke-linecap="round" stroke-linejoin="round"/>
<path d="M145.999 178.55C148.484 178.14 160.85 170.311 158.787 162.481C156.724 154.652 139.362 145.17 125.742 149.718C117.536 152.45 109.957 156.789 103.447 162.481C103.447 162.481 94.3747 162.481 91.0193 166.209C87.6639 169.938 90.1991 175.679 92.2621 179.805C94.0516 183.372 93.9771 192.829 93.9274 195.277C93.8148 195.271 93.7027 195.297 93.6042 195.352C92.9136 195.733 92.311 196.256 91.8356 196.885C91.3603 197.515 91.0229 198.237 90.8453 199.006C90.2861 201.491 91.3176 204.809 93.8279 208.562C94.6632 209.972 95.8374 211.15 97.2438 211.99C98.6502 212.83 100.244 213.305 101.881 213.372C102.957 214.612 103.834 216.012 104.478 217.523C105.522 220.008 115.924 235.965 121.877 236.425C122.734 236.5 123.555 236.524 124.362 236.524C129.495 236.524 133.223 235.145 135.224 232.486C137.871 228.969 144.433 214.789 145.253 207.891C145.39 206.649 145.464 205.095 145.502 203.231C146.42 202.068 146.919 200.63 146.919 199.149C146.919 197.667 146.42 196.229 145.502 195.066C145.365 187.771 144.98 180.215 144.88 178.475C145.243 178.585 145.625 178.611 145.999 178.55Z" fill="white"/>
<path d="M144.309 178.14C144.309 178.14 145.551 200.795 144.719 207.804C143.886 214.814 137.262 228.807 134.777 232.113C132.291 235.418 127.32 236.226 121.989 235.841C116.657 235.456 106.305 220.182 105.062 217.299C104.374 215.634 103.398 214.103 102.179 212.775C102.179 212.775 97.6432 213.186 94.3375 208.239C91.0317 203.293 89.8014 198.297 93.9274 195.874" stroke="#263238" stroke-width="0.969857" stroke-linecap="round" stroke-linejoin="round"/>
<path d="M126.562 200.385C126.562 200.385 129.458 195.414 132.341 198.322L134.404 211.508L128.19 213.161L129.01 219.747" stroke="#263238" stroke-width="0.969857" stroke-linecap="round" stroke-linejoin="round"/>
<path d="M120.373 206.562C123.791 206.562 126.562 203.796 126.562 200.385C126.562 196.974 123.791 194.209 120.373 194.209C116.955 194.209 114.184 196.974 114.184 200.385C114.184 203.796 116.955 206.562 120.373 206.562Z" fill="white" stroke="#263238" stroke-width="0.969857" stroke-linecap="round" stroke-linejoin="round"/>
<path opacity="0.4" d="M120.373 206.562C123.791 206.562 126.562 203.796 126.562 200.385C126.562 196.974 123.791 194.209 120.373 194.209C116.955 194.209 114.184 196.974 114.184 200.385C114.184 203.796 116.955 206.562 120.373 206.562Z" fill="white" stroke="#263238" stroke-width="1.16689" stroke-miterlimit="10"/>
<path d="M146.372 199.155C146.372 197.926 146.007 196.725 145.324 195.703C144.642 194.681 143.671 193.884 142.536 193.414C141.4 192.944 140.151 192.821 138.946 193.06C137.74 193.3 136.633 193.892 135.764 194.761C134.895 195.63 134.303 196.737 134.063 197.943C133.824 199.148 133.947 200.397 134.417 201.533C134.887 202.668 135.684 203.639 136.706 204.321C137.727 205.004 138.929 205.369 140.158 205.369C141.806 205.369 143.386 204.714 144.552 203.549C145.717 202.383 146.372 200.803 146.372 199.155Z" fill="white" stroke="#263238" stroke-width="0.969857" stroke-linecap="round" stroke-linejoin="round"/>
<path opacity="0.4" d="M146.372 199.155C146.372 197.926 146.007 196.725 145.324 195.703C144.642 194.681 143.671 193.884 142.536 193.414C141.4 192.944 140.151 192.821 138.946 193.06C137.74 193.3 136.633 193.892 135.764 194.761C134.895 195.63 134.303 196.737 134.063 197.943C133.824 199.148 133.947 200.397 134.417 201.533C134.887 202.668 135.684 203.639 136.706 204.321C137.727 205.004 138.929 205.369 140.158 205.369C141.806 205.369 143.386 204.714 144.552 203.549C145.717 202.383 146.372 200.803 146.372 199.155Z" fill="white" stroke="#263238" stroke-width="1.16689" stroke-miterlimit="10"/>
<path d="M114.184 200.385L101.806 201.205" stroke="#263238" stroke-width="0.969857" stroke-linecap="round" stroke-linejoin="round"/>
<path d="M114.284 191.798C114.284 191.798 117.602 188.492 123.766 190.381" stroke="#263238" stroke-width="0.969857" stroke-linecap="round" stroke-linejoin="round"/>
<path d="M135.137 189.909C135.137 189.909 141.351 186.603 143.19 190.853" stroke="#263238" stroke-width="0.969857" stroke-linecap="round" stroke-linejoin="round"/>
<path d="M106.753 178.96C106.753 178.96 110.058 186.789 110.879 188.032C111.699 189.275 106.753 195.029 106.753 195.029V200.795L101.782 201.205L96.8105 196.682L93.9274 195.849C93.9274 195.849 94.3375 183.906 92.2745 179.793C90.2115 175.679 87.7384 169.851 91.0317 166.197C94.325 162.543 103.459 162.469 103.459 162.469C109.97 156.776 117.549 152.437 125.754 149.706C139.425 145.17 156.699 154.677 158.762 162.469C160.825 170.261 148.484 178.14 145.999 178.55C143.513 178.96 139.785 174.026 136.057 174.026H130.278C126.152 174.026 125.742 173.604 121.193 173.604C116.645 173.604 106.753 178.96 106.753 178.96Z" fill="#263238"/>
<path d="M111.922 172.2C111.922 172.2 118.969 168.297 122.498 161.649C126.028 155 114.271 158.132 111.139 162.431C108.008 166.731 115.452 165.166 115.452 165.166" stroke="white" stroke-width="0.484928" stroke-linecap="round" stroke-linejoin="round"/>
<path d="M106.753 178.96C106.753 178.96 102.527 183.533 97.0467 183.931" stroke="white" stroke-width="0.484928" stroke-linecap="round" stroke-linejoin="round"/>
<path d="M108.791 184.714C108.791 184.714 101.334 188.231 97.4319 188.231" stroke="white" stroke-width="0.484928" stroke-linecap="round" stroke-linejoin="round"/>
<path d="M97.4319 191.35C97.4319 191.35 103.31 192.593 106.442 191.35" stroke="white" stroke-width="0.484928" stroke-linecap="round" stroke-linejoin="round"/>
<path d="M118.186 172.982C118.186 172.982 121.318 172.597 131.496 169.08C141.674 165.563 145.166 161.624 138.542 156.566" stroke="white" stroke-width="0.484928" stroke-linecap="round" stroke-linejoin="round"/>
<path d="M322.743 393.919C322.743 393.919 306.525 350.783 302.362 346.632C298.199 342.482 277.333 329.768 277.333 329.768L275.655 326.898L274.636 323.405C274.636 323.405 273.393 318.149 269.814 315.551L269.528 314.942L244.922 304.404C244.922 304.404 245.096 307.66 245.357 311.587C242.449 312.643 235.999 315.477 233.787 320.522C232.345 323.791 231.525 329.221 231.115 334.329L230.108 335.075L230.481 333.708C230.481 333.708 203.24 348.981 202.01 351.467C200.419 353.555 196.305 366.939 196.305 366.939C196.305 366.939 192.204 379.802 187.693 394.006C181.33 413.542 175.179 433.066 174.781 436.185C174.781 436.471 174.781 436.334 174.781 436.334C174.371 441.691 194.827 461.438 194.827 461.438H195.1L197.585 463.924C197.585 463.924 197.585 463.675 197.585 462.892C199.313 466.409 202.134 471.591 204.371 470.498C206.21 469.591 205.614 466.397 204.122 462.233C205.974 465.054 208.099 467.105 209.789 466.285C212.71 464.843 211.256 459.86 208.323 452.726C208.072 452.118 207.69 451.572 207.205 451.127C206.72 450.683 206.142 450.35 205.514 450.154C206.459 450.054 207.416 449.955 208.397 449.831C209.379 454.392 211.579 458.344 214.052 457.822C216.525 457.3 216.898 454.093 216.401 448.638C216.649 448.638 216.985 447.904 217.233 447.867C218.327 451.707 220.005 455.125 222.117 454.677C224.441 454.18 225.075 451.869 224.802 447.221C224.802 445.494 224.677 444.934 224.615 443.841C225.523 444.4 229.972 447.084 230.481 447.47C232.134 448.712 244.711 446.028 244.711 446.028C263.079 440.088 292.445 439.814 311.409 427.113C324.073 418.575 322.743 393.919 322.743 393.919ZM206.968 429.201L211.939 396.492L213.915 426.318L213.331 433.675L206.968 429.201Z" fill="white"/>
<path d="M202.084 350.758L231.674 333.36C231.674 333.36 233.526 317.502 237.304 315.887C237.304 315.887 242.499 311.351 248.402 312.245C251.782 312.743 254.28 308.517 256.194 301.16C256.194 286.607 255.995 268.028 255.846 256.421C254.603 250.692 253.261 246.044 252.813 244.23L238.87 238.376C238.87 238.376 235.887 228.31 220.552 226.06C205.216 223.811 188.774 240.253 186.898 251.45C185.021 262.647 195.87 274.59 191.757 280.94C187.643 287.291 170.444 296.612 165.957 307.436C161.471 318.26 162.59 325.729 162.59 325.729C162.59 325.729 174.93 343.265 171.562 349.242C168.194 355.22 148.385 360.812 148.758 378.36C149.106 394.615 165.199 406.061 183.033 408.186L202.084 350.758Z" fill="#263238"/>
<path d="M234.458 241.371C234.458 241.371 223.895 229.267 210.585 233.169C197.275 237.071 192.179 251.152 194.926 258.186C197.672 265.22 203.923 271.073 199.226 281.624C194.528 292.175 182.784 293.741 176.856 305.858C170.928 317.975 172.556 321.889 172.556 321.889" stroke="white" stroke-width="0.484928" stroke-linecap="round" stroke-linejoin="round"/>
<path d="M227.412 251.537C227.412 251.537 217.631 252.705 217.631 258.993C217.631 265.282 223.112 268.364 223.845 276.181C224.578 283.998 222.279 287.129 216.388 296.897C210.498 306.666 210.175 311.748 214.437 318.397C218.7 325.046 221.484 335.982 216.003 339.884" stroke="white" stroke-width="0.484928" stroke-linecap="round" stroke-linejoin="round"/>
<path d="M229.76 243.72C229.76 243.72 218.016 237.506 208.634 243.335C199.251 249.163 211.765 260.92 213.331 271.856C214.897 282.792 207.117 290.622 196.504 302.341C193.395 305.887 191.087 310.061 189.736 314.58C188.385 319.098 188.023 323.855 188.675 328.526" stroke="white" stroke-width="0.484928" stroke-linecap="round" stroke-linejoin="round"/>
<path d="M187.88 342.208C187.88 342.208 190.614 348.062 183.17 355.879C175.725 363.695 159.681 365.659 155.829 377.378C151.976 389.097 159.669 395.361 159.669 395.361" stroke="white" stroke-width="0.484928" stroke-linecap="round" stroke-linejoin="round"/>
<path d="M245.009 303.745C245.009 303.745 245.829 319.453 246.662 323.567C247.494 327.68 250.813 342.37 252.068 355.344C252.675 362.076 253.923 368.734 255.796 375.228C255.796 375.228 265.85 414.276 266.446 365.224C266.658 347.925 264.794 320.733 264.794 320.733L265.614 312.494" fill="white"/>
<g style="mix-blend-mode:multiply" opacity="0.3">
<path d="M261.823 313.786L246.662 323.567L245.692 307.051C245.692 307.051 255.821 313.041 261.823 313.786Z" fill="white"/>
</g>
<g style="mix-blend-mode:multiply" opacity="0.3">
<path d="M264.818 320.684C264.818 320.684 264.321 348.72 262.954 360.576C262.2 368.111 262.977 375.72 265.241 382.946C265.241 382.946 267.142 339.574 264.818 320.684Z" fill="white"/>
</g>
<path d="M245.009 303.745C245.009 303.745 245.829 319.453 246.662 323.567C247.494 327.68 250.813 342.37 252.068 355.344C252.675 362.076 253.923 368.734 255.796 375.228C255.796 375.228 265.85 414.276 266.446 365.224C266.658 347.925 264.794 320.733 264.794 320.733L265.614 312.494" stroke="#263238" stroke-width="0.969857" stroke-linecap="round" stroke-linejoin="round"/>
<path d="M234.073 369.561L231.45 375.179L248.7 392.018L234.073 369.561Z" fill="white"/>
<path opacity="0.7" d="M234.073 369.561L231.45 375.179L248.7 392.018L234.073 369.561Z" fill="white"/>
<path d="M213.977 381.976C213.977 381.976 219.744 368.654 221.558 371.686C223.373 374.719 211.852 387.73 216.401 389.545C220.949 391.359 227.586 384.698 225.498 390.141C223.41 395.585 219.744 401.947 219.744 404.682C219.744 407.416 220.986 434.346 220.986 434.346L221.297 436.16L217.656 438.646C217.656 438.646 213.716 434.706 213.716 431.376C213.716 428.045 213.107 414.723 213.107 411.703C213.107 408.683 211.691 398.033 211.691 398.033L213.977 381.976Z" fill="white"/>
<path opacity="0.7" d="M213.977 381.976C213.977 381.976 219.744 368.654 221.558 371.686C223.373 374.719 211.852 387.73 216.401 389.545C220.949 391.359 227.586 384.698 225.498 390.141C223.41 395.585 219.744 401.947 219.744 404.682C219.744 407.416 220.987 434.346 220.987 434.346L221.297 436.16L217.656 438.646C217.656 438.646 213.716 434.706 213.716 431.376C213.716 428.045 213.107 414.723 213.107 411.703C213.107 408.683 211.865 397.287 211.865 397.287L213.977 381.976Z" fill="white"/>
<path d="M245.208 311.487C245.208 311.487 236.757 313.265 233.861 319.864C230.966 326.463 230.568 341.699 230.978 345.812C231.208 349.122 231.208 352.444 230.978 355.754L242.536 352.026" fill="white"/>
<g style="mix-blend-mode:multiply" opacity="0.3">
<path d="M246.799 321.951C243.317 322.033 239.968 323.3 237.304 325.543C232.42 329.383 231.91 336.305 231.91 336.305C231.91 336.305 230.369 328.103 233.451 320.932C236.533 313.762 245.208 311.487 245.208 311.487L246.799 321.951Z" fill="white"/>
</g>
<path d="M245.208 311.487C245.208 311.487 236.757 313.265 233.861 319.864C230.966 326.463 230.568 341.699 230.978 345.812C231.208 349.122 231.208 352.444 230.978 355.754L242.536 352.026" stroke="#263238" stroke-width="0.969857" stroke-linecap="round" stroke-linejoin="round"/>
<path d="M245.419 352.821L232.631 367.237C232.631 367.237 242.126 382.063 246.662 387.01" stroke="#263238" stroke-width="0.969857" stroke-linecap="round" stroke-linejoin="round"/>
<path d="M278.029 384.947L284.628 359.818L273.07 351.119L282.155 348.236L274.698 322.697C274.698 322.697 273.319 316.284 268.485 314.221" stroke="#263238" stroke-width="0.969857" stroke-linecap="round" stroke-linejoin="round"/>
<path d="M251.633 340.456C251.633 340.456 255.759 345.427 260.332 344.582C264.905 343.737 264.868 341.289 264.868 341.289" stroke="#263238" stroke-width="0.969857" stroke-linecap="round" stroke-linejoin="round"/>
<path d="M211.256 345.651C211.256 345.651 204.582 352.921 204.88 354.735C205.179 356.55 213.07 359.88 211.256 361.993C209.441 364.106 204.88 358.973 203.973 359.88C203.066 360.787 186.388 417.693 187.904 418.576C189.421 419.458 193.062 416.152 193.969 418.277C194.876 420.402 178.807 426.442 182.138 428.219C185.469 429.996 193.658 426.094 192.08 426.703C190.502 427.312 186.015 433.054 187.233 435.477C188.451 437.9 201.438 450.179 201.438 450.179C200.673 450.494 200.06 451.094 199.729 451.852C199.398 452.61 199.373 453.467 199.661 454.243C200.006 455.805 200.885 457.198 202.146 458.182C202.146 458.182 198.667 455.311 198.132 458.418C197.828 460.038 197.65 461.679 197.598 463.327L189.085 454.901C182.15 447.842 176.508 441.231 174.843 435.552C174.843 435.552 174.545 436.384 176.372 429.723C178.199 423.062 196.38 366.156 196.38 366.156C196.38 366.156 200.494 352.759 202.072 350.684C203.65 348.608 211.256 345.651 211.256 345.651Z" fill="white"/>
<path opacity="0.7" d="M211.256 345.651C211.256 345.651 204.582 352.921 204.88 354.735C205.179 356.55 213.07 359.88 211.256 361.993C209.441 364.106 204.88 358.973 203.973 359.88C203.066 360.787 186.388 417.693 187.904 418.576C189.421 419.458 193.062 416.152 193.969 418.277C194.876 420.402 178.807 426.442 182.138 428.219C185.469 429.996 193.658 426.094 192.08 426.703C190.502 427.312 186.015 433.054 187.233 435.477C188.451 437.9 201.438 450.179 201.438 450.179C200.673 450.494 200.06 451.094 199.729 451.852C199.397 452.61 199.373 453.467 199.661 454.243C200.006 455.805 200.885 457.198 202.146 458.182C202.146 458.182 198.667 455.311 198.132 458.418C197.598 461.525 197.324 463.563 197.324 463.563L189.085 454.864C180.485 446.277 175.166 439.503 174.843 435.514C174.843 435.514 173.836 437.403 176.372 429.686C178.522 423.124 196.38 366.119 196.38 366.119C196.38 366.119 200.493 352.722 202.072 350.647C203.65 348.571 211.256 345.651 211.256 345.651Z" fill="white"/>
<path d="M226.194 337.374V360.576L240.821 356.835L245.692 351.218L230.692 354.213L231.674 333.298L226.194 337.374Z" fill="white"/>
<path opacity="0.7" d="M226.194 337.374V360.576L240.821 356.835L245.692 351.218L230.692 354.213L231.674 333.298L226.194 337.374Z" fill="white"/>
<path d="M230.568 333.049C230.568 333.049 203.327 348.285 202.084 350.758C200.841 353.231 175.266 430.295 174.855 435.626C174.445 440.958 195.075 461.165 195.075 461.165" stroke="#263238" stroke-width="0.969857" stroke-linecap="round" stroke-linejoin="round"/>
<path d="M215.295 371.773L207.043 428.617" stroke="#263238" stroke-width="0.969857" stroke-linecap="round" stroke-linejoin="round"/>
<path d="M216.115 368.468L217.358 362.701" stroke="#263238" stroke-width="0.969857" stroke-linecap="round" stroke-linejoin="round"/>
<path d="M183.517 431.923C183.517 431.923 188.886 424.466 196.728 424.914C204.57 425.361 216.115 436.446 216.115 436.446" stroke="#263238" stroke-width="0.969857" stroke-linecap="round" stroke-linejoin="round"/>
<path d="M185.991 423.261C187.721 421.705 189.926 420.778 192.248 420.629C194.571 420.48 196.876 421.118 198.791 422.44" stroke="#263238" stroke-width="0.969857" stroke-linecap="round" stroke-linejoin="round"/>
<path d="M224.292 440.423C224.202 439.739 223.953 439.085 223.563 438.515C223.174 437.945 222.655 437.474 222.051 437.141C221.446 436.809 220.771 436.623 220.081 436.599C219.391 436.576 218.705 436.715 218.078 437.006C217.57 437.26 217.137 437.643 216.821 438.116C216.505 438.588 216.317 439.135 216.276 439.702C215.817 444.238 218.6 455.386 222.329 454.615C225.423 453.919 225.324 448.054 224.292 440.423Z" fill="white" stroke="#263238" stroke-width="0.969857" stroke-linecap="round" stroke-linejoin="round"/>
<path d="M215.991 443.716C215.899 443.033 215.648 442.381 215.258 441.812C214.868 441.243 214.349 440.774 213.745 440.443C213.14 440.112 212.466 439.927 211.776 439.904C211.087 439.881 210.402 440.021 209.777 440.311C209.268 440.562 208.834 440.942 208.518 441.413C208.201 441.884 208.014 442.43 207.975 442.996C207.515 447.532 210.299 458.679 214.027 457.909C217.171 457.213 217.072 451.359 215.991 443.716Z" fill="white" stroke="#263238" stroke-width="0.969857" stroke-linecap="round" stroke-linejoin="round"/>
<path d="M208.41 452.018C208.152 451.372 207.746 450.797 207.223 450.338C206.701 449.879 206.077 449.55 205.404 449.378C204.73 449.206 204.025 449.196 203.347 449.348C202.669 449.5 202.036 449.81 201.5 450.253C201.068 450.623 200.74 451.1 200.55 451.637C200.36 452.174 200.315 452.751 200.419 453.31C201.09 457.809 206.558 467.987 209.951 466.26C212.871 464.769 211.256 458.754 208.41 452.018Z" fill="white" stroke="#263238" stroke-width="0.969857" stroke-linecap="round" stroke-linejoin="round"/>
<path d="M203.066 459.972C202.876 459.488 202.573 459.056 202.184 458.712C201.794 458.368 201.328 458.122 200.824 457.993C200.321 457.864 199.794 457.857 199.287 457.972C198.78 458.087 198.307 458.321 197.909 458.654C197.588 458.933 197.344 459.29 197.2 459.691C197.056 460.091 197.018 460.521 197.088 460.941C197.598 464.309 201.674 471.865 204.222 470.61C206.409 469.528 205.253 465.315 203.066 459.972Z" fill="white" stroke="#263238" stroke-width="0.969857" stroke-linecap="round" stroke-linejoin="round"/>
<path d="M224.926 443.431C224.926 443.431 228.157 446.923 230.556 447.668C232.532 448.277 242.809 446.426 242.809 446.426" stroke="#263238" stroke-width="0.969857" stroke-linecap="round" stroke-linejoin="round"/>
<path d="M239.64 454.168C239.64 454.168 233.041 455.808 228.455 456.653C223.87 457.499 218.961 457.896 218.961 457.896C218.961 457.896 215.655 462.022 213.182 462.022" stroke="#263238" stroke-width="0.969857" stroke-linecap="round" stroke-linejoin="round"/>
<path d="M277.42 329.097C277.42 329.097 298.286 341.823 302.449 345.974C306.612 350.125 321.227 389.048 321.227 389.048" stroke="#263238" stroke-width="0.969857" stroke-linecap="round" stroke-linejoin="round"/>
<path d="M297.254 356.873L301.927 390.614" stroke="#263238" stroke-width="0.969857" stroke-linecap="round" stroke-linejoin="round"/>
<path d="M301.927 386.55L299.019 361.483L311.869 389.793L302.511 390.216L301.927 386.55Z" fill="white"/>
<path opacity="0.7" d="M301.927 386.55L299.019 361.483L311.869 389.793L302.511 390.216L301.927 386.55Z" fill="white"/>
<path d="M222.465 374.197L214.387 387.457L221.235 382.039" stroke="#263238" stroke-width="0.969857" stroke-linecap="round" stroke-linejoin="round"/>
<path d="M212.138 398.095C212.138 398.095 213.816 422.726 213.816 426.082C213.816 429.437 213.344 433.861 213.344 433.861" stroke="#263238" stroke-width="0.969857" stroke-linecap="round" stroke-linejoin="round"/>
<path d="M240.05 237.059C240.05 237.059 228.083 244.056 227.262 254.358C226.867 261.152 227.564 267.966 229.325 274.54C229.325 274.54 225.597 271.247 225.199 278.666C224.802 286.086 230.978 291.839 233.451 291.839H235.937C235.937 291.839 241.442 303.148 248.054 308.505C254.665 313.861 261.115 314.097 265.651 312.444C270.187 310.791 278.862 303.385 279.694 293.492C280.527 283.6 279.694 267.121 278.862 256.831C278.029 246.541 275.978 239.109 264.831 235.406C253.683 231.703 245.829 234.163 240.05 237.059Z" fill="white"/>
<g style="mix-blend-mode:multiply" opacity="0.3">
<path d="M229.325 274.54C229.325 274.54 225.597 271.247 225.199 278.666C224.802 286.086 230.978 291.839 233.451 291.839H235.937C235.937 291.839 241.442 303.136 248.054 308.505L250.887 310.456C251.852 311.04 252.862 311.547 253.907 311.972C251.683 309.238 246.848 302.937 244.574 297.27C241.567 289.814 240.846 274.068 241.566 263.964C242.287 253.861 247.569 249.735 247.569 249.735L240.112 249.362C239.006 249.362 233.228 257.962 227.362 262.896L229.325 274.54Z" fill="white"/>
</g>
<path d="M240.05 237.059C240.05 237.059 228.083 244.056 227.262 254.358C226.867 261.152 227.564 267.966 229.325 274.54C229.325 274.54 225.597 271.247 225.199 278.666C224.802 286.086 230.978 291.839 233.451 291.839H235.937C235.937 291.839 241.442 303.148 248.054 308.505C254.665 313.861 261.115 314.097 265.651 312.444C270.187 310.791 278.862 303.385 279.694 293.492C280.527 283.6 279.694 267.121 278.862 256.831C278.029 246.541 275.978 239.109 264.831 235.406C253.683 231.703 245.829 234.163 240.05 237.059Z" stroke="#263238" stroke-width="0.969857" stroke-linecap="round" stroke-linejoin="round"/>
<path d="M259.164 274.876C259.164 274.876 262.619 268.973 266.061 272.39L268.547 284.11L263.576 285.129L264.048 292.448" stroke="#263238" stroke-width="0.969857" stroke-linecap="round" stroke-linejoin="round"/>
<path d="M251.782 282.245C255.859 282.245 259.164 278.946 259.164 274.876C259.164 270.806 255.859 267.506 251.782 267.506C247.705 267.506 244.4 270.806 244.4 274.876C244.4 278.946 247.705 282.245 251.782 282.245Z" fill="white" stroke="#263238" stroke-width="0.969857" stroke-linecap="round" stroke-linejoin="round"/>
<path opacity="0.4" d="M251.782 282.245C255.859 282.245 259.164 278.946 259.164 274.876C259.164 270.806 255.859 267.506 251.782 267.506C247.705 267.506 244.4 270.806 244.4 274.876C244.4 278.946 247.705 282.245 251.782 282.245Z" fill="white" stroke="#263238" stroke-width="1.16689" stroke-miterlimit="10"/>
<path d="M282.814 273.397C282.816 271.937 282.386 270.508 281.578 269.292C280.769 268.076 279.619 267.126 278.272 266.563C276.924 265.999 275.44 265.848 274.007 266.127C272.573 266.405 271.255 267.103 270.217 268.13C269.179 269.157 268.469 270.469 268.175 271.9C267.882 273.33 268.019 274.816 268.569 276.169C269.119 277.521 270.057 278.681 271.265 279.502C272.473 280.322 273.897 280.767 275.357 280.779C276.333 280.789 277.301 280.605 278.205 280.239C279.109 279.872 279.932 279.33 280.625 278.643C281.318 277.957 281.869 277.14 282.245 276.239C282.62 275.339 282.814 274.373 282.814 273.397Z" fill="white" stroke="#263238" stroke-width="0.969857" stroke-linecap="round" stroke-linejoin="round"/>
<path opacity="0.4" d="M282.814 273.397C282.816 271.937 282.386 270.508 281.578 269.292C280.769 268.076 279.619 267.126 278.272 266.563C276.924 265.999 275.44 265.848 274.007 266.127C272.573 266.405 271.255 267.103 270.217 268.13C269.179 269.157 268.469 270.469 268.175 271.9C267.882 273.33 268.019 274.816 268.569 276.169C269.119 277.521 270.057 278.681 271.265 279.502C272.473 280.322 273.897 280.767 275.357 280.779C276.333 280.789 277.301 280.605 278.205 280.239C279.109 279.872 279.932 279.33 280.625 278.643C281.318 277.957 281.869 277.14 282.245 276.239C282.62 275.339 282.814 274.373 282.814 273.397Z" fill="white" stroke="#263238" stroke-width="1.16689" stroke-miterlimit="10"/>
<path d="M244.4 274.876L229.624 275.858" stroke="#263238" stroke-width="0.969857" stroke-linecap="round" stroke-linejoin="round"/>
<path d="M245.767 265.021C246.629 263.961 247.765 263.159 249.051 262.701C250.337 262.243 251.725 262.147 253.062 262.423" stroke="#263238" stroke-width="0.969857" stroke-linecap="round" stroke-linejoin="round"/>
<path d="M268.721 261.901C269.939 261.232 271.347 260.991 272.719 261.216C274.092 261.441 275.348 262.12 276.289 263.144" stroke="#263238" stroke-width="0.969857" stroke-linecap="round" stroke-linejoin="round"/>
<path d="M278.849 256.831C278.029 246.529 275.966 239.109 264.818 235.406C253.671 231.703 245.829 234.163 240.05 237.059C240.05 237.059 228.083 244.056 227.262 254.358C226.867 261.152 227.564 267.966 229.325 274.54C229.325 274.54 232.631 277.834 233.451 273.298C234.272 268.762 231.798 261.342 243.393 252.693C254.988 244.043 271.455 248.169 277.234 256.421C277.909 256.962 278.492 257.608 278.961 258.335C278.973 258.186 278.862 257.017 278.849 256.831Z" fill="#263238"/>
<path d="M98.5007 302.552C98.5007 302.552 88.5586 300.912 81.1021 305.858C78.9792 307.27 77.3063 309.262 76.2819 311.597C75.2576 313.932 74.9249 316.512 75.3233 319.031" stroke="#263238" stroke-width="0.969857" stroke-linecap="round" stroke-linejoin="round"/>
<path d="M77.0383 303.385C77.0383 303.385 72.0673 309.151 72.0673 314.097" stroke="#263238" stroke-width="0.969857" stroke-linecap="round" stroke-linejoin="round"/>
<path d="M46.0813 279.897C46.0813 279.897 51.0523 309.971 55.576 319.031C60.0996 328.091 72.9745 336.753 82.8171 340.866C92.6597 344.98 138.94 351.579 140.593 351.169C142.246 350.758 132.751 342.109 134.814 331.396C135.845 326.077 143.066 320.684 143.066 320.684C143.066 320.684 122.846 311.984 115.004 308.741C107.163 305.497 98.5007 302.527 98.5007 302.527C98.5007 302.527 87.3159 292.237 81.9969 287.701C77.1063 283.853 72.0074 280.276 66.7235 276.989" stroke="#263238" stroke-width="0.969857" stroke-linecap="round" stroke-linejoin="round"/>
<path d="M182.548 335.696L187.942 342.407C189.032 343.408 190.195 344.326 191.421 345.154C193.037 346.024 194.429 348.658 192.204 349.292C191.19 349.582 190.123 349.633 189.086 349.442C188.048 349.25 187.07 348.82 186.227 348.186L180.982 344.346L176.595 340.381L179.777 334.665L182.548 335.696Z" fill="white" stroke="#263238" stroke-width="0.969857" stroke-linecap="round" stroke-linejoin="round"/>
<path d="M143.066 320.684C143.066 320.684 155.866 323.567 159.992 324.412C164.118 325.257 185.17 328.948 188.054 330.178C190.937 331.409 200.021 331.831 199.611 335.535C199.201 339.238 195.485 338.418 192.602 338.02C189.719 337.623 180.622 335.97 180.622 335.97C180.622 335.97 183.517 341.326 182.697 342.556C181.877 343.787 163.298 350.386 159.582 350.386C155.866 350.386 153.368 343.787 151.74 341.686L146.769 335.473L136.827 330.949" fill="white"/>
<path d="M143.066 320.684C143.066 320.684 155.866 323.567 159.992 324.412C164.118 325.257 185.17 328.948 188.054 330.178C190.937 331.409 200.021 331.831 199.611 335.535C199.201 339.238 195.485 338.418 192.602 338.02C189.719 337.623 180.622 335.97 180.622 335.97C180.622 335.97 183.517 341.326 182.697 342.556C181.877 343.787 163.298 350.386 159.582 350.386C155.866 350.386 153.368 343.787 151.74 341.686L146.769 335.473L136.827 330.949" stroke="#263238" stroke-width="0.969857" stroke-linecap="round" stroke-linejoin="round"/>
<path d="M180.622 335.932L177.739 331.806" stroke="#263238" stroke-width="0.969857" stroke-linecap="round" stroke-linejoin="round"/>
<path d="M140.593 351.169C142.751 349.203 144.433 346.771 145.51 344.058C146.587 341.344 147.03 338.421 146.807 335.51" stroke="#263238" stroke-width="0.969857" stroke-linecap="round" stroke-linejoin="round"/>
<path d="M162.465 340.866L165.771 348.695" stroke="#263238" stroke-width="0.969857" stroke-linecap="round" stroke-linejoin="round"/>
<path d="M170.717 337.573L174.023 346.222" stroke="#263238" stroke-width="0.969857" stroke-linecap="round" stroke-linejoin="round"/>
<path d="M249.968 397.722V494.533L379.139 487.126V391.136L249.968 397.722Z" fill="#263238" stroke="#263238" stroke-width="0.969857" stroke-linecap="round" stroke-linejoin="round"/>
<path d="M379.139 391.136L372.528 387.42L244.599 393.609V487.946L249.968 494.533V397.722L379.139 391.136Z" fill="white" stroke="#263238" stroke-width="0.969857" stroke-linecap="round" stroke-linejoin="round"/>
<path d="M244.599 393.609L249.955 397.722" stroke="#263238" stroke-width="0.969857" stroke-linecap="round" stroke-linejoin="round"/>
<path d="M301.554 454.168V519.674L337.047 517.2V451.285L301.554 454.168Z" fill="#263238" stroke="#263238" stroke-width="0.969857" stroke-linecap="round" stroke-linejoin="round"/>
<path d="M300.448 491.252V454.168L337.047 451.285L337.147 488.953" stroke="white" stroke-width="0.969857" stroke-linecap="round" stroke-linejoin="round"/>
<path d="M301.554 519.674L282.975 503.195L301.554 502.362" fill="white"/>
<path d="M301.554 519.674L282.975 503.195L301.554 502.362" stroke="#263238" stroke-width="0.969857" stroke-linecap="round" stroke-linejoin="round"/>
<path opacity="0.7" d="M76.4667 459.139L193.845 470.895C193.845 470.895 189.346 467.279 191.098 466.931C194.429 466.285 199.363 465.837 199.363 465.837L189.01 454.926L76.4667 459.139Z" fill="white"/>
<path opacity="0.7" d="M76.4667 459.139L193.845 470.895C193.845 470.895 189.346 467.279 191.098 466.931C194.429 466.285 199.363 465.837 199.363 465.837L189.01 454.926L76.4667 459.139Z" fill="white"/>
<path d="M189.097 454.976L5.91551 461.5" stroke="#263238" stroke-width="0.969857" stroke-linecap="round" stroke-linejoin="round"/>
<path d="M378.257 451.036L501.737 527.242" stroke="#263238" stroke-width="0.969857" stroke-linecap="round" stroke-linejoin="round"/>
<path d="M153.803 470.224L89.1676 478.116L130.812 521.848L200.481 513.236L153.803 470.224Z" fill="white"/>
<path opacity="0.7" d="M153.803 470.224L89.1676 478.116L130.812 521.848L200.481 513.236L153.803 470.224Z" fill="white"/>
<path d="M87.726 487.436L145.179 480.266L186.836 522.557L120.758 531.877L87.726 487.436Z" fill="white"/>
<path d="M122.734 525.726C122.636 525.726 122.541 525.686 122.471 525.617C122.401 525.547 122.362 525.452 122.362 525.353C122.362 525.254 122.401 525.159 122.471 525.089C122.541 525.019 122.636 524.98 122.734 524.98L175.576 518.182C175.674 518.174 175.772 518.203 175.85 518.263C175.928 518.322 175.981 518.409 175.999 518.505C176.006 518.555 176.002 518.606 175.989 518.655C175.976 518.703 175.953 518.749 175.922 518.788C175.89 518.828 175.851 518.861 175.807 518.885C175.762 518.909 175.714 518.923 175.663 518.928L122.834 525.726H122.734Z" fill="white"/>
<path d="M119.789 522.196C119.69 522.196 119.595 522.157 119.525 522.087C119.456 522.017 119.416 521.922 119.416 521.823C119.416 521.725 119.456 521.63 119.525 521.56C119.595 521.49 119.69 521.451 119.789 521.451L172.631 514.653C172.73 514.64 172.83 514.666 172.909 514.727C172.988 514.787 173.04 514.877 173.053 514.976C173.067 515.075 173.04 515.175 172.979 515.254C172.919 515.333 172.829 515.385 172.73 515.398L119.901 522.196H119.789Z" fill="white"/>
<path d="M116.856 518.667C116.763 518.667 116.674 518.633 116.605 518.571C116.536 518.509 116.493 518.424 116.483 518.331C116.473 518.233 116.5 518.134 116.56 518.055C116.62 517.977 116.709 517.924 116.806 517.909L169.611 511.111C169.71 511.106 169.808 511.138 169.885 511.199C169.963 511.261 170.016 511.349 170.034 511.447C170.039 511.496 170.034 511.545 170.02 511.592C170.006 511.639 169.983 511.683 169.951 511.722C169.92 511.76 169.882 511.791 169.838 511.814C169.795 511.838 169.747 511.852 169.698 511.857L116.869 518.667H116.856Z" fill="white"/>
<path d="M113.911 515.125C113.812 515.125 113.717 515.086 113.647 515.016C113.577 514.946 113.538 514.851 113.538 514.752C113.538 514.653 113.577 514.559 113.647 514.489C113.717 514.419 113.812 514.379 113.911 514.379L166.753 507.582C166.851 507.571 166.95 507.598 167.029 507.658C167.107 507.719 167.16 507.807 167.175 507.905C167.182 507.954 167.179 508.004 167.167 508.052C167.154 508.099 167.132 508.144 167.102 508.184C167.072 508.223 167.035 508.256 166.992 508.281C166.949 508.305 166.901 508.321 166.852 508.327L114.01 515.125H113.911Z" fill="white"/>
<path d="M110.978 511.596C110.887 511.596 110.799 511.564 110.73 511.505C110.662 511.445 110.617 511.363 110.605 511.273C110.598 511.224 110.601 511.174 110.613 511.126C110.626 511.078 110.648 511.033 110.678 510.994C110.708 510.954 110.746 510.921 110.789 510.897C110.832 510.872 110.879 510.856 110.928 510.85L163.77 504.052C163.869 504.041 163.967 504.069 164.046 504.129C164.125 504.189 164.177 504.277 164.193 504.375C164.2 504.425 164.196 504.476 164.183 504.525C164.17 504.573 164.147 504.619 164.115 504.658C164.084 504.698 164.045 504.731 164.001 504.755C163.956 504.779 163.907 504.793 163.857 504.798L111.028 511.596H110.978Z" fill="white"/>
<path d="M108.033 508.054C107.94 508.054 107.85 508.02 107.781 507.958C107.712 507.896 107.669 507.811 107.66 507.718C107.652 507.62 107.681 507.523 107.74 507.445C107.8 507.367 107.886 507.314 107.983 507.296L160.825 500.498C160.925 500.487 161.026 500.517 161.105 500.579C161.184 500.642 161.235 500.733 161.247 500.833C161.258 500.93 161.23 501.028 161.17 501.104C161.109 501.181 161.021 501.231 160.924 501.243L108.082 508.054H108.033Z" fill="white"/>
<path d="M105.1 504.524C105.009 504.525 104.921 504.493 104.852 504.433C104.784 504.374 104.739 504.291 104.727 504.201C104.72 504.152 104.723 504.102 104.735 504.054C104.748 504.007 104.77 503.962 104.8 503.922C104.83 503.883 104.868 503.85 104.91 503.825C104.953 503.801 105.001 503.785 105.05 503.779L157.892 496.981C157.99 496.973 158.087 497.002 158.165 497.061C158.243 497.121 158.296 497.207 158.314 497.304C158.321 497.354 158.318 497.405 158.305 497.453C158.292 497.502 158.268 497.548 158.237 497.587C158.206 497.627 158.167 497.659 158.122 497.683C158.078 497.707 158.029 497.722 157.979 497.727L105.149 504.524H105.1Z" fill="white"/>
<path d="M102.154 500.995C102.056 500.995 101.961 500.956 101.891 500.886C101.821 500.816 101.782 500.721 101.782 500.622C101.782 500.523 101.821 500.428 101.891 500.358C101.961 500.289 102.056 500.249 102.154 500.249L154.996 493.451C155.045 493.445 155.095 493.448 155.143 493.461C155.19 493.474 155.235 493.495 155.274 493.525C155.314 493.555 155.347 493.593 155.371 493.636C155.396 493.678 155.412 493.726 155.419 493.775C155.425 493.824 155.422 493.873 155.409 493.921C155.397 493.969 155.375 494.014 155.345 494.053C155.315 494.092 155.277 494.125 155.235 494.15C155.192 494.174 155.145 494.191 155.096 494.197L102.254 500.995H102.154Z" fill="white"/>
<path d="M99.2215 497.466C99.1287 497.466 99.0391 497.432 98.9702 497.37C98.9013 497.308 98.8579 497.222 98.8486 497.13C98.8379 497.031 98.8654 496.933 98.9256 496.854C98.9857 496.775 99.0739 496.723 99.1718 496.707L152.014 489.91C152.113 489.902 152.212 489.933 152.291 489.995C152.369 490.057 152.421 490.146 152.436 490.245C152.441 490.294 152.437 490.344 152.423 490.391C152.409 490.438 152.385 490.482 152.354 490.52C152.323 490.558 152.284 490.59 152.241 490.613C152.197 490.636 152.15 490.651 152.101 490.655L99.2712 497.466H99.2215Z" fill="white"/>
<path d="M96.2886 493.924C96.1897 493.924 96.0949 493.884 96.0249 493.815C95.955 493.745 95.9157 493.65 95.9157 493.551C95.9157 493.452 95.955 493.357 96.0249 493.287C96.0949 493.217 96.1897 493.178 96.2886 493.178L149.13 486.38C149.229 486.369 149.328 486.397 149.406 486.457C149.485 486.517 149.538 486.605 149.553 486.703C149.56 486.752 149.557 486.802 149.545 486.85C149.532 486.898 149.51 486.943 149.48 486.982C149.45 487.022 149.412 487.055 149.369 487.079C149.326 487.104 149.279 487.12 149.23 487.126L96.2886 493.924Z" fill="white"/>
<g opacity="0.7">
<path d="M122.734 525.726C122.635 525.726 122.541 525.687 122.471 525.617C122.401 525.547 122.362 525.452 122.362 525.353C122.362 525.254 122.401 525.159 122.471 525.089C122.541 525.019 122.635 524.98 122.734 524.98L175.576 518.182C175.674 518.174 175.772 518.203 175.85 518.263C175.928 518.322 175.981 518.409 175.999 518.505C176.006 518.555 176.002 518.606 175.989 518.655C175.976 518.704 175.953 518.749 175.921 518.788C175.89 518.828 175.851 518.861 175.807 518.885C175.762 518.909 175.714 518.923 175.663 518.928L122.834 525.726H122.734Z" fill="white"/>
<path d="M119.789 522.196C119.69 522.196 119.595 522.157 119.525 522.087C119.456 522.017 119.416 521.922 119.416 521.824C119.416 521.725 119.456 521.63 119.525 521.56C119.595 521.49 119.69 521.451 119.789 521.451L172.631 514.653C172.73 514.64 172.83 514.666 172.909 514.727C172.988 514.788 173.04 514.877 173.053 514.976C173.067 515.075 173.04 515.175 172.979 515.254C172.919 515.333 172.829 515.385 172.73 515.398L119.901 522.196H119.789Z" fill="white"/>
<path d="M116.856 518.667C116.763 518.667 116.674 518.633 116.605 518.571C116.536 518.509 116.493 518.424 116.483 518.331C116.473 518.233 116.5 518.134 116.56 518.055C116.62 517.977 116.709 517.924 116.806 517.909L169.611 511.111C169.71 511.106 169.808 511.138 169.885 511.199C169.963 511.261 170.016 511.349 170.034 511.447C170.039 511.496 170.034 511.545 170.02 511.592C170.006 511.639 169.983 511.683 169.951 511.722C169.92 511.76 169.882 511.791 169.838 511.814C169.795 511.838 169.747 511.852 169.698 511.857L116.869 518.667H116.856Z" fill="white"/>
<path d="M113.911 515.125C113.812 515.125 113.717 515.086 113.647 515.016C113.577 514.946 113.538 514.851 113.538 514.752C113.538 514.653 113.577 514.559 113.647 514.489C113.717 514.419 113.812 514.379 113.911 514.379L166.753 507.582C166.851 507.571 166.95 507.598 167.029 507.659C167.107 507.719 167.16 507.807 167.175 507.905C167.182 507.954 167.179 508.004 167.167 508.052C167.154 508.099 167.132 508.144 167.102 508.184C167.072 508.223 167.035 508.256 166.992 508.281C166.949 508.305 166.901 508.321 166.852 508.327L114.01 515.125H113.911Z" fill="white"/>
<path d="M110.978 511.596C110.887 511.596 110.799 511.564 110.73 511.505C110.662 511.445 110.617 511.363 110.605 511.273C110.598 511.224 110.601 511.174 110.613 511.126C110.626 511.078 110.648 511.033 110.678 510.994C110.708 510.954 110.746 510.921 110.789 510.897C110.832 510.872 110.879 510.856 110.928 510.85L163.77 504.052C163.869 504.041 163.967 504.069 164.046 504.129C164.125 504.189 164.177 504.277 164.193 504.375C164.2 504.425 164.196 504.476 164.183 504.525C164.17 504.573 164.147 504.619 164.115 504.658C164.084 504.698 164.045 504.731 164.001 504.755C163.956 504.779 163.907 504.793 163.857 504.798L111.028 511.596H110.978Z" fill="white"/>
<path d="M108.033 508.054C107.94 508.054 107.85 508.02 107.781 507.958C107.712 507.896 107.669 507.811 107.66 507.718C107.652 507.62 107.681 507.523 107.74 507.445C107.8 507.367 107.886 507.314 107.983 507.296L160.825 500.498C160.925 500.487 161.026 500.517 161.105 500.579C161.184 500.642 161.235 500.733 161.247 500.833C161.258 500.93 161.23 501.028 161.17 501.104C161.109 501.181 161.021 501.231 160.924 501.244L108.082 508.054H108.033Z" fill="white"/>
<path d="M105.1 504.524C105.009 504.525 104.921 504.493 104.852 504.433C104.784 504.374 104.739 504.291 104.727 504.201C104.72 504.152 104.723 504.102 104.735 504.054C104.748 504.007 104.77 503.962 104.8 503.922C104.83 503.883 104.868 503.85 104.91 503.825C104.953 503.801 105.001 503.785 105.05 503.779L157.892 496.981C157.99 496.973 158.087 497.002 158.165 497.061C158.243 497.121 158.296 497.207 158.314 497.304C158.321 497.354 158.318 497.405 158.305 497.453C158.292 497.502 158.268 497.548 158.237 497.587C158.206 497.627 158.167 497.659 158.122 497.683C158.078 497.707 158.029 497.722 157.979 497.727L105.149 504.524H105.1Z" fill="white"/>
<path d="M102.154 500.995C102.055 500.995 101.961 500.956 101.891 500.886C101.821 500.816 101.782 500.721 101.782 500.622C101.782 500.523 101.821 500.428 101.891 500.359C101.961 500.289 102.055 500.249 102.154 500.249L154.996 493.451C155.045 493.445 155.095 493.448 155.143 493.461C155.19 493.474 155.235 493.495 155.274 493.525C155.314 493.555 155.347 493.593 155.371 493.636C155.396 493.678 155.412 493.726 155.419 493.775C155.425 493.824 155.422 493.873 155.409 493.921C155.397 493.969 155.375 494.014 155.345 494.053C155.315 494.092 155.277 494.125 155.235 494.15C155.192 494.174 155.145 494.191 155.096 494.197L102.254 500.995H102.154Z" fill="white"/>
<path d="M99.2215 497.466C99.1287 497.466 99.0391 497.432 98.9702 497.37C98.9013 497.308 98.8579 497.222 98.8486 497.13C98.8379 497.032 98.8654 496.933 98.9256 496.854C98.9857 496.775 99.0739 496.723 99.1718 496.707L152.014 489.91C152.113 489.902 152.212 489.933 152.291 489.995C152.369 490.057 152.421 490.146 152.436 490.245C152.441 490.294 152.437 490.344 152.423 490.391C152.409 490.438 152.385 490.482 152.354 490.52C152.323 490.558 152.284 490.59 152.241 490.613C152.197 490.636 152.15 490.651 152.101 490.655L99.2712 497.466H99.2215Z" fill="white"/>
<path d="M96.2886 493.924C96.1897 493.924 96.0949 493.884 96.0249 493.815C95.955 493.745 95.9157 493.65 95.9157 493.551C95.9157 493.452 95.955 493.357 96.0249 493.287C96.0949 493.217 96.1897 493.178 96.2886 493.178L149.13 486.38C149.229 486.369 149.328 486.397 149.406 486.457C149.485 486.517 149.538 486.605 149.553 486.703C149.56 486.752 149.557 486.802 149.545 486.85C149.532 486.898 149.51 486.943 149.48 486.982C149.45 487.022 149.412 487.055 149.369 487.079C149.326 487.104 149.279 487.12 149.23 487.126L96.2886 493.924Z" fill="white"/>
</g>
<path d="M152.213 250.642C152.213 250.642 162.155 253.948 164.64 258.099C167.126 262.249 173.513 284.358 173.513 284.358" stroke="#263238" stroke-width="0.969857" stroke-linecap="round" stroke-linejoin="round"/>
</svg>
