<svg width="81" height="81" viewBox="0 0 81 81" fill="none" xmlns="http://www.w3.org/2000/svg">
<path d="M29.4427 15.131L11.6896 2H10.6392L7.90792 35.9304L10.5341 42.2333L2.34039 51.8977L28.2872 68.3902L36.2708 79H44.8847L52.9734 68.3902L78.5 51.8977L70.6214 42.2333L73.5628 35.9304L69.9911 2H68.8356L51.1876 15.131H29.4427Z" stroke="black" stroke-width="3"/>
<path d="M31.8588 51.5826L30.9134 47.2756L22.0894 45.3847L25.9761 51.5826H31.8588Z" stroke="black" stroke-width="3"/>
<path d="M49.7169 51.5826L50.8724 47.2756L58.9611 46.1201L55.2844 51.5826H49.7169Z" stroke="black" stroke-width="3"/>
<path d="M37.3213 72.382H43.6241L40.1576 75.5334L37.3213 72.382Z" stroke="black" stroke-width="3"/>
<path d="M72.8274 34.985L61.7974 25.8458L69.571 2.63028" stroke="black" stroke-width="3"/>
<path d="M11.3745 2.10504L19.4632 25.7408L7.90796 36.0355" stroke="black" stroke-width="3"/>
</svg>
