<svg width="82" height="81" viewBox="0 0 82 81" fill="none" xmlns="http://www.w3.org/2000/svg">
<path d="M30.1023 15.131L12.3492 2H11.2988L8.56753 35.9304L11.1937 42.2333L3 51.8977L28.9468 68.3902L36.9304 79H45.5443L53.633 68.3902L79.1596 51.8977L71.281 42.2333L74.2224 35.9304L70.6507 2H69.4952L51.8472 15.131H30.1023Z" stroke="white" stroke-width="3"/>
<path d="M32.5184 51.5826L31.573 47.2756L22.749 45.3848L26.6357 51.5826H32.5184Z" stroke="white" stroke-width="3"/>
<path d="M50.3765 51.5826L51.532 47.2756L59.6207 46.1201L55.944 51.5826H50.3765Z" stroke="white" stroke-width="3"/>
<path d="M37.9809 72.382H44.2837L40.8172 75.5335L37.9809 72.382Z" stroke="white" stroke-width="3"/>
<path d="M73.487 34.9851L62.457 25.8459L70.2306 2.63037" stroke="white" stroke-width="3"/>
<path d="M12.0341 2.10498L20.1228 25.7407L8.56757 36.0354" stroke="white" stroke-width="3"/>
</svg>
