<svg width="374" height="320" viewBox="0 0 374 320" fill="none" xmlns="http://www.w3.org/2000/svg">
<path d="M187.261 320C289.656 320 372.663 317.687 372.663 314.835C372.663 311.982 289.656 309.67 187.261 309.67C84.8664 309.67 1.85919 311.982 1.85919 314.835C1.85919 317.687 84.8664 320 187.261 320Z" fill="#2E353A"/>
<path d="M281.187 310.127H264.033V1L281.187 20.9458V310.127Z" stroke="#2E353A" stroke-linecap="round" stroke-linejoin="round"/>
<path d="M264.195 237.339H281.025L264.195 221.071H281.025L264.195 237.339Z" stroke="#2E353A" stroke-linecap="round" stroke-linejoin="round"/>
<path d="M264.195 220.661H281.025L264.195 204.394H281.025L264.195 220.661Z" stroke="#2E353A" stroke-linecap="round" stroke-linejoin="round"/>
<path d="M264.195 270.55H281.025L264.195 254.282H281.025L264.195 270.55Z" stroke="#2E353A" stroke-linecap="round" stroke-linejoin="round"/>
<path d="M264.195 253.873H281.025L264.195 237.606H281.025L264.195 253.873Z" stroke="#2E353A" stroke-linecap="round" stroke-linejoin="round"/>
<path d="M264.195 203.984H281.025L264.195 187.717H281.025L264.195 203.984Z" stroke="#2E353A" stroke-linecap="round" stroke-linejoin="round"/>
<path d="M264.195 187.307H281.025L264.195 171.04H281.025L264.195 187.307Z" stroke="#2E353A" stroke-linecap="round" stroke-linejoin="round"/>
<path d="M264.195 170.63H281.025L264.195 154.363H281.025L264.195 170.63Z" stroke="#2E353A" stroke-linecap="round" stroke-linejoin="round"/>
<path d="M264.195 153.953H281.025L264.195 137.686H281.025L264.195 153.953Z" stroke="#2E353A" stroke-linecap="round" stroke-linejoin="round"/>
<path d="M264.195 137.276H281.025L264.195 121.009H281.025L264.195 137.276Z" stroke="#2E353A" stroke-linecap="round" stroke-linejoin="round"/>
<path d="M264.195 120.599H281.025L264.195 104.331H281.025L264.195 120.599Z" stroke="#2E353A" stroke-linecap="round" stroke-linejoin="round"/>
<path d="M264.195 103.922H281.025L264.195 87.6542H281.025L264.195 103.922Z" stroke="#2E353A" stroke-linecap="round" stroke-linejoin="round"/>
<path d="M264.195 87.2444H281.025L264.195 70.9771H281.025L264.195 87.2444Z" stroke="#2E353A" stroke-linecap="round" stroke-linejoin="round"/>
<path d="M264.195 70.5674H281.025L264.195 54.3H281.025L264.195 70.5674Z" stroke="#2E353A" stroke-linecap="round" stroke-linejoin="round"/>
<path d="M264.195 53.8904H281.025L264.195 37.623H281.025L264.195 53.8904Z" stroke="#2E353A" stroke-linecap="round" stroke-linejoin="round"/>
<path d="M264.195 37.213H281.025L264.195 20.9457H281.025L264.195 37.213Z" stroke="#2E353A" stroke-linecap="round" stroke-linejoin="round"/>
<path d="M360.817 37.6612L352.507 32.4293H293.213L285.971 37.6612H360.817Z" stroke="#2E353A" stroke-linecap="round" stroke-linejoin="round"/>
<path d="M362.19 37.2131H217.337V41.025H362.19V37.2131Z" fill="#2E353A" stroke="#2E353A" stroke-linecap="round" stroke-linejoin="round"/>
<path d="M352.508 32.4292L264.033 1L293.213 32.4292" stroke="#2E353A" stroke-linecap="round" stroke-linejoin="round"/>
<path d="M264.033 1L217.337 37.2132" stroke="#2E353A" stroke-linecap="round" stroke-linejoin="round"/>
<path d="M293.575 45.3136H257.839V68.1851H293.575V45.3136Z" fill="#2E353A" stroke="#2E353A" stroke-linecap="round" stroke-linejoin="round"/>
<path d="M293.575 287.713H257.839V310.585H293.575V287.713Z" fill="#2E353A" stroke="#2E353A" stroke-linecap="round" stroke-linejoin="round"/>
<path d="M286.123 50.0785H265.281V56.7493H286.123V50.0785Z" fill="white" stroke="#2E353A" stroke-linecap="round" stroke-linejoin="round"/>
<path d="M362.19 41.025V82.1174" stroke="#2E353A" stroke-linecap="round" stroke-linejoin="round"/>
<path d="M367.631 96.1453H357.044V108.143H367.631V96.1453Z" fill="#2E353A" stroke="#2E353A" stroke-linecap="round" stroke-linejoin="round"/>
<path d="M357.044 96.1455L362.333 81.3362L367.631 96.1455" stroke="#2E353A" stroke-linecap="round" stroke-linejoin="round"/>
<path d="M221.073 284.797V263.603H158.605V284.816C158.595 291.74 156.244 298.457 151.934 303.876L149.199 307.325H230.44L227.696 303.876C223.403 298.443 221.069 291.721 221.073 284.797Z" fill="white" stroke="#2E353A" stroke-width="1.09543" stroke-linecap="round" stroke-linejoin="round"/>
<g style="mix-blend-mode:multiply">
<path d="M154.765 299.654H224.913C222.405 295.104 221.093 289.992 221.101 284.797V263.603H158.605V284.816C158.601 290.007 157.28 295.113 154.765 299.654Z" fill="white"/>
</g>
<path d="M221.073 266.776H158.605V275.734H221.073V266.776Z" fill="#2E353A" stroke="#2E353A" stroke-width="1.09543" stroke-linecap="round" stroke-linejoin="round"/>
<path d="M306.526 81.965H73.1514C68.262 81.965 64.2983 85.9287 64.2983 90.8181V261.42C64.2983 266.31 68.262 270.273 73.1514 270.273H306.526C311.416 270.273 315.379 266.31 315.379 261.42V90.8181C315.379 85.9287 311.416 81.965 306.526 81.965Z" fill="#2E353A" stroke="#2E353A" stroke-width="1.09543" stroke-linecap="round" stroke-linejoin="round"/>
<path d="M64.2983 241.008H315.379V261.42C315.379 263.768 314.447 266.02 312.786 267.68C311.126 269.341 308.874 270.274 306.526 270.274H73.1991C70.8511 270.274 68.5992 269.341 66.939 267.68C65.2787 266.02 64.3459 263.768 64.3459 261.42V241.008H64.2983Z" fill="white" stroke="#2E353A" stroke-width="1.09543" stroke-linecap="round" stroke-linejoin="round"/>
<path d="M302.743 93.6868H76.9253V226.723H302.743V93.6868Z" fill="white" stroke="#2E353A" stroke-width="1.09543" stroke-linecap="round" stroke-linejoin="round"/>
<path d="M194.466 255.645C194.467 254.729 194.197 253.832 193.69 253.07C193.182 252.307 192.459 251.712 191.613 251.36C190.767 251.008 189.835 250.914 188.936 251.092C188.037 251.27 187.211 251.71 186.563 252.357C185.914 253.005 185.472 253.83 185.292 254.729C185.113 255.627 185.204 256.559 185.554 257.406C185.905 258.253 186.498 258.977 187.26 259.486C188.022 259.995 188.918 260.267 189.834 260.267C190.442 260.268 191.044 260.15 191.606 259.918C192.168 259.686 192.678 259.346 193.108 258.917C193.539 258.488 193.88 257.978 194.113 257.416C194.346 256.855 194.466 256.253 194.466 255.645Z" fill="#2E353A" stroke="#2E353A" stroke-width="1.09543" stroke-linecap="round" stroke-linejoin="round"/>
<path d="M230.46 307.316H149.228V311.099H230.46V307.316Z" fill="white" stroke="#2E353A" stroke-width="1.09543" stroke-linecap="round" stroke-linejoin="round"/>
<path d="M263.328 127.022C265.944 124.401 267.876 121.177 268.955 117.635C270.033 114.092 270.225 110.338 269.513 106.704L255.342 120.875C254.537 121.676 253.447 122.125 252.311 122.125C251.176 122.125 250.086 121.676 249.281 120.875L237.502 109.096C237.103 108.698 236.786 108.225 236.57 107.704C236.354 107.183 236.243 106.625 236.243 106.061C236.243 105.497 236.354 104.939 236.57 104.418C236.786 103.897 237.103 103.424 237.502 103.026L251.663 88.8645C247.695 88.0894 243.591 88.3936 239.779 89.7454C235.968 91.0971 232.59 93.4469 229.996 96.5494C227.403 99.652 225.69 103.394 225.035 107.384C224.381 111.375 224.809 115.468 226.276 119.236L189.71 154.963L186.184 151.427L191.902 145.71C192.194 145.412 192.358 145.012 192.358 144.595C192.358 144.178 192.194 143.777 191.902 143.48L187.442 139.02C187.147 138.726 186.748 138.561 186.332 138.561C185.916 138.561 185.516 138.726 185.222 139.02L182.992 141.25L178.16 136.428L180.018 134.569C180.412 134.175 180.633 133.64 180.633 133.083C180.633 132.525 180.412 131.991 180.018 131.596L140.117 91.6948C139.167 90.7428 138.038 89.9875 136.795 89.4722C135.552 88.9569 134.22 88.6917 132.875 88.6917C131.529 88.6917 130.197 88.9569 128.954 89.4722C127.712 89.9875 126.583 90.7428 125.632 91.6948L121.553 95.7736C120.601 96.7234 119.846 97.8515 119.331 99.0935C118.816 100.335 118.551 101.667 118.551 103.011C118.551 104.356 118.816 105.687 119.331 106.929C119.846 108.171 120.601 109.3 121.553 110.249L161.454 150.16C161.849 150.553 162.384 150.774 162.941 150.774C163.498 150.774 164.033 150.553 164.428 150.16L166.286 148.302L171.108 153.133L168.888 155.354C168.741 155.5 168.624 155.674 168.545 155.865C168.465 156.056 168.424 156.262 168.424 156.469C168.424 156.676 168.465 156.881 168.545 157.073C168.624 157.264 168.741 157.438 168.888 157.584L173.338 162.044C173.636 162.336 174.036 162.5 174.453 162.5C174.87 162.5 175.27 162.336 175.568 162.044L181.286 156.326L184.755 159.795L154.431 189.337C150.662 187.871 146.569 187.444 142.579 188.098C138.588 188.753 134.846 190.466 131.743 193.059C128.64 195.652 126.29 199.03 124.937 202.84C123.583 206.651 123.277 210.755 124.05 214.724L138.221 200.563C138.619 200.164 139.092 199.847 139.613 199.631C140.134 199.415 140.692 199.304 141.256 199.304C141.82 199.304 142.378 199.415 142.899 199.631C143.42 199.847 143.893 200.164 144.291 200.563L156.108 212.266C156.507 212.664 156.824 213.137 157.04 213.658C157.256 214.179 157.367 214.737 157.367 215.301C157.367 215.865 157.256 216.423 157.04 216.944C156.824 217.465 156.507 217.938 156.108 218.336L141.947 232.497C145.916 233.271 150.02 232.966 153.83 231.614C157.641 230.262 161.02 227.913 163.614 224.811C166.208 221.709 167.922 217.968 168.578 213.978C169.234 209.988 168.808 205.895 167.344 202.126L197.668 172.584L239.017 213.886C238.423 215.417 238.287 217.088 238.625 218.695C238.964 220.303 239.762 221.777 240.923 222.939L250.901 232.917L262.87 220.938L252.893 210.97C251.731 209.808 250.257 209.01 248.649 208.672C247.042 208.333 245.371 208.469 243.839 209.064L202.556 167.781L239.16 132.092C243.246 133.681 247.706 134.048 251.997 133.148C256.288 132.248 260.225 130.12 263.328 127.022Z" fill="#2E353A" stroke="#2E353A" stroke-width="1.09543" stroke-linecap="round" stroke-linejoin="round"/>
<path d="M164.828 197.047L236.616 127.012C240.387 128.481 244.483 128.91 248.477 128.255C252.47 127.599 256.214 125.883 259.318 123.286C262.422 120.689 264.771 117.306 266.12 113.49C267.469 109.675 267.768 105.567 266.987 101.596L252.826 115.758C252.428 116.157 251.955 116.473 251.434 116.689C250.913 116.905 250.355 117.017 249.791 117.017C249.227 117.017 248.669 116.905 248.148 116.689C247.627 116.473 247.154 116.157 246.755 115.758L234.977 103.979C234.578 103.581 234.261 103.109 234.046 102.589C233.83 102.069 233.719 101.511 233.719 100.948C233.719 100.385 233.83 99.8277 234.046 99.3077C234.261 98.7877 234.578 98.3154 234.977 97.9179L249.138 83.7471C245.167 82.9732 241.062 83.2796 237.25 84.6343C233.438 85.9889 230.059 88.3421 227.467 91.4481C224.876 94.5542 223.165 98.2991 222.515 102.292C221.864 106.285 222.298 110.379 223.77 114.147L151.982 184.181C148.213 182.715 144.12 182.286 140.13 182.941C136.14 183.595 132.398 185.308 129.295 187.902C126.193 190.495 123.843 193.874 122.491 197.685C121.14 201.496 120.835 205.6 121.61 209.569L135.772 195.408C136.17 195.008 136.643 194.692 137.164 194.476C137.685 194.26 138.243 194.149 138.807 194.149C139.371 194.149 139.929 194.26 140.45 194.476C140.971 194.692 141.444 195.008 141.842 195.408L153.621 207.186C154.02 207.584 154.336 208.056 154.552 208.576C154.768 209.096 154.879 209.654 154.879 210.217C154.879 210.78 154.768 211.337 154.552 211.857C154.336 212.377 154.02 212.85 153.621 213.247L139.431 227.389C143.4 228.163 147.504 227.858 151.315 226.506C155.125 225.155 158.504 222.805 161.098 219.703C163.692 216.601 165.406 212.86 166.062 208.87C166.718 204.88 166.292 200.787 164.828 197.018V197.047Z" fill="white" stroke="#2E353A" stroke-miterlimit="10"/>
<path d="M159.301 189.699C158.752 189.149 158.444 188.403 158.444 187.626C158.444 186.849 158.752 186.104 159.301 185.554L223.846 122.762C224.398 122.213 225.145 121.904 225.923 121.904C226.702 121.904 227.449 122.213 228.001 122.762C228.55 123.314 228.859 124.061 228.859 124.839C228.859 125.618 228.55 126.365 228.001 126.917L163.456 189.699C162.904 190.248 162.157 190.557 161.378 190.557C160.599 190.557 159.853 190.248 159.301 189.699Z" fill="white" stroke="#2E353A" stroke-miterlimit="10"/>
<path d="M178.443 141.101L173.619 145.926L243.235 215.542L248.06 210.718L178.443 141.101Z" fill="white" stroke="#2E353A" stroke-miterlimit="10"/>
<path d="M260.345 215.858L248.376 227.828L238.398 217.86C236.81 216.271 235.918 214.117 235.918 211.87C235.918 209.624 236.81 207.469 238.398 205.881C239.184 205.095 240.117 204.471 241.144 204.046C242.17 203.62 243.271 203.401 244.383 203.401C245.494 203.401 246.595 203.62 247.622 204.046C248.648 204.471 249.581 205.095 250.367 205.881L260.345 215.858Z" fill="white" stroke="#2E353A" stroke-miterlimit="10"/>
<path d="M171.95 127.554L160.069 139.434L169.719 149.084L181.599 137.203L171.95 127.554Z" fill="white" stroke="#2E353A" stroke-miterlimit="10"/>
<path d="M119.05 90.616L123.133 86.5325C124.084 85.5821 125.212 84.8282 126.454 84.3138C127.696 83.7995 129.027 83.5347 130.371 83.5347C131.715 83.5347 133.046 83.7994 134.287 84.3138C135.529 84.8282 136.657 85.5821 137.608 86.5325L177.514 126.438C177.907 126.831 178.128 127.365 178.128 127.921C178.128 128.477 177.907 129.01 177.514 129.403L161.921 144.996C161.527 145.39 160.994 145.61 160.438 145.61C159.882 145.61 159.349 145.389 158.956 144.996L119.05 105.09C117.13 103.171 116.052 100.568 116.052 97.8533C116.052 95.1388 117.13 92.5355 119.05 90.616Z" fill="white" stroke="#2E353A" stroke-miterlimit="10"/>
<path d="M182.71 133.871L166.376 150.206C165.762 150.82 165.762 151.815 166.376 152.429L170.837 156.89C171.451 157.504 172.446 157.504 173.06 156.89L189.395 140.556C190.009 139.942 190.009 138.946 189.395 138.332L184.934 133.871C184.32 133.257 183.324 133.257 182.71 133.871Z" fill="white" stroke="#2E353A" stroke-miterlimit="10"/>
<path d="M164.151 139.067L160.873 142.355L121.687 103.169C121.251 102.733 121.006 102.141 121.006 101.525C121.006 100.908 121.251 100.317 121.687 99.881C121.902 99.664 122.158 99.4918 122.44 99.3743C122.722 99.2568 123.025 99.1963 123.331 99.1963C123.636 99.1963 123.939 99.2568 124.221 99.3743C124.503 99.4918 124.759 99.664 124.974 99.881L164.151 139.067Z" fill="white" stroke="#2E353A" stroke-miterlimit="10"/>
<path d="M169.745 133.473L166.448 136.761L127.262 97.5748C126.826 97.1387 126.581 96.5474 126.581 95.9309C126.581 95.3143 126.826 94.723 127.262 94.287C127.477 94.07 127.733 93.8978 128.015 93.7803C128.297 93.6628 128.6 93.6023 128.905 93.6023C129.211 93.6023 129.514 93.6628 129.796 93.7803C130.078 93.8978 130.334 94.07 130.549 94.287L169.745 133.473Z" fill="white" stroke="#2E353A" stroke-miterlimit="10"/>
<path d="M175.339 127.88L172.042 131.139L132.856 91.9809C132.42 91.5449 132.175 90.9535 132.175 90.337C132.175 89.7205 132.42 89.1292 132.856 88.6931C133.071 88.4762 133.327 88.304 133.609 88.1864C133.891 88.0689 134.194 88.0084 134.499 88.0084C134.805 88.0084 135.108 88.0689 135.39 88.1864C135.672 88.304 135.928 88.4762 136.143 88.6931L175.339 127.88Z" fill="white" stroke="#2E353A" stroke-miterlimit="10"/>
<path d="M306.507 312.271H303.334L282.816 143.918H285.999L306.507 312.271Z" fill="white" stroke="#2E353A" stroke-miterlimit="10"/>
<path d="M331.285 312.271H328.111L307.594 143.918H310.777L331.285 312.271Z" fill="white" stroke="#2E353A" stroke-miterlimit="10"/>
<path d="M310.977 157.87H286.209L285.57 152.676H310.348L310.977 157.87Z" fill="white" stroke="#2E353A" stroke-miterlimit="10"/>
<path d="M313.311 177.044H288.544L287.915 171.85H312.683L313.311 177.044Z" fill="white" stroke="#2E353A" stroke-miterlimit="10"/>
<path d="M315.656 196.218H290.878L290.249 191.024H315.017L315.656 196.218Z" fill="white" stroke="#2E353A" stroke-miterlimit="10"/>
<path d="M317.991 215.401H293.223L292.584 210.207H317.352L317.991 215.401Z" fill="white" stroke="#2E353A" stroke-miterlimit="10"/>
<path d="M320.325 234.575H295.557L294.919 229.381H319.687L320.325 234.575Z" fill="white" stroke="#2E353A" stroke-miterlimit="10"/>
<path d="M322.66 253.749H297.892L297.263 248.555H322.031L322.66 253.749Z" fill="white" stroke="#2E353A" stroke-miterlimit="10"/>
<path d="M324.995 272.932H300.227L299.598 267.739H324.366L324.995 272.932Z" fill="white" stroke="#2E353A" stroke-miterlimit="10"/>
<path d="M327.339 292.106H302.562L301.933 286.913H326.701L327.339 292.106Z" fill="white" stroke="#2E353A" stroke-miterlimit="10"/>
<path d="M285.828 154.715H289.068" stroke="#2E353A" stroke-width="0.5" stroke-miterlimit="10"/>
<path d="M286.59 156.24H292.88" stroke="#2E353A" stroke-width="0.5" stroke-miterlimit="10"/>
<path d="M310.595 156.24H306.021" stroke="#2E353A" stroke-width="0.5" stroke-miterlimit="10"/>
<path d="M312.883 174.718H308.69" stroke="#2E353A" stroke-width="0.5" stroke-miterlimit="10"/>
<path d="M288.877 175.672H298.597" stroke="#2E353A" stroke-width="0.5" stroke-miterlimit="10"/>
<path d="M290.592 193.578H298.979" stroke="#2E353A" stroke-width="0.5" stroke-miterlimit="10"/>
<path d="M290.974 195.103H295.548" stroke="#2E353A" stroke-width="0.5" stroke-miterlimit="10"/>
<path d="M317.829 212.437H312.692" stroke="#2E353A" stroke-width="0.5" stroke-miterlimit="10"/>
<path d="M317.457 213.962H308.88" stroke="#2E353A" stroke-width="0.5" stroke-miterlimit="10"/>
<path d="M324.919 270.979H317.057" stroke="#2E353A" stroke-width="0.5" stroke-miterlimit="10"/>
<path d="M299.903 269.549H304.668" stroke="#2E353A" stroke-width="0.5" stroke-miterlimit="10"/>
<path d="M315.865 270.979H309.671" stroke="#2E353A" stroke-width="0.5" stroke-miterlimit="10"/>
<path d="M302.286 289.324H308.956" stroke="#2E353A" stroke-width="0.5" stroke-miterlimit="10"/>
<path d="M303.715 290.991H311.339" stroke="#2E353A" stroke-width="0.5" stroke-miterlimit="10"/>
<path d="M296.091 232.86H298.235" stroke="#2E353A" stroke-width="0.5" stroke-miterlimit="10"/>
<path d="M319.439 232.383H311.577" stroke="#2E353A" stroke-width="0.5" stroke-miterlimit="10"/>
<path d="M120.819 211.608L117.046 216.526L34.9561 152.438L38.7394 147.52L120.819 211.608Z" fill="#2E353A" stroke="#2E353A" stroke-width="1.09543" stroke-linecap="round" stroke-linejoin="round"/>
<path d="M34.9561 211.608L38.7394 216.526L120.819 152.438L117.046 147.52L34.9561 211.608Z" fill="#2E353A" stroke="#2E353A" stroke-width="1.09543" stroke-linecap="round" stroke-linejoin="round"/>
<path d="M120.819 283.596L118.485 289.933L34.9561 224.426L37.348 218.031L120.819 283.596Z" fill="#2E353A" stroke="#2E353A" stroke-width="1.09543" stroke-linecap="round" stroke-linejoin="round"/>
<path d="M34.9561 283.596L35.5278 291.03L120.819 224.426L117.046 219.518L34.9561 283.596Z" fill="#2E353A" stroke="#2E353A" stroke-width="1.09543" stroke-linecap="round" stroke-linejoin="round"/>
<path d="M36.8907 146.844H33.5552V312.281H36.8907V146.844Z" fill="#2E353A" stroke="#2E353A" stroke-width="1.09543" stroke-linecap="round" stroke-linejoin="round"/>
<path d="M121.277 146.844H117.941V312.281H121.277V146.844Z" fill="#2E353A" stroke="#2E353A" stroke-width="1.09543" stroke-linecap="round" stroke-linejoin="round"/>
<path d="M104.762 211.608L100.978 216.526L18.8984 152.438L22.6722 147.52L104.762 211.608Z" fill="white" stroke="#2E353A" stroke-width="1.09543" stroke-linecap="round" stroke-linejoin="round"/>
<path d="M18.8984 211.608L22.6722 216.526L104.762 152.438L100.978 147.52L18.8984 211.608Z" fill="white" stroke="#2E353A" stroke-width="1.09543" stroke-linecap="round" stroke-linejoin="round"/>
<path d="M104.762 283.596L102.417 289.933L18.8984 224.426L20.0991 218.031L104.762 283.596Z" fill="white" stroke="#2E353A" stroke-width="1.09543" stroke-linecap="round" stroke-linejoin="round"/>
<path d="M18.8984 283.596L19.4702 291.03L104.762 224.426L100.978 219.518L18.8984 283.596Z" fill="white" stroke="#2E353A" stroke-width="1.09543" stroke-linecap="round" stroke-linejoin="round"/>
<path d="M20.8235 146.844H17.488V312.281H20.8235V146.844Z" fill="white" stroke="#2E353A" stroke-width="1.09543" stroke-linecap="round" stroke-linejoin="round"/>
<path d="M105.21 146.844H101.874V312.281H105.21V146.844Z" fill="white" stroke="#2E353A" stroke-width="1.09543" stroke-linecap="round" stroke-linejoin="round"/>
<path d="M109.508 145.309H13.1996V150.551H109.508V145.309Z" fill="white" stroke="#2E353A" stroke-width="1.09543" stroke-linecap="round" stroke-linejoin="round"/>
<path d="M124.345 145.309H97.6144V150.551H124.345V145.309Z" fill="#2E353A" stroke="#2E353A" stroke-width="1.09543" stroke-linecap="round" stroke-linejoin="round"/>
<path d="M109.508 213.962H13.1996V219.203H109.508V213.962Z" fill="white" stroke="#2E353A" stroke-width="1.09543" stroke-linecap="round" stroke-linejoin="round"/>
<path d="M124.345 213.962H97.6144V219.203H124.345V213.962Z" fill="#2E353A" stroke="#2E353A" stroke-width="1.09543" stroke-linecap="round" stroke-linejoin="round"/>
<path d="M229.516 312.271H221.978L232.032 253.368H239.58L229.516 312.271Z" fill="#2E353A" stroke="#2E353A" stroke-width="0.972732" stroke-miterlimit="10"/>
<path d="M244.602 312.271H252.149L242.086 253.368H234.548L244.602 312.271Z" fill="white" stroke="#2E353A" stroke-width="0.972732" stroke-miterlimit="10"/>
<path d="M336.555 312.271H329.017L339.07 253.368H346.609L336.555 312.271Z" fill="#2E353A" stroke="#2E353A" stroke-width="0.972732" stroke-miterlimit="10"/>
<path d="M351.64 312.271H359.188L349.124 253.368H341.586L351.64 312.271Z" fill="white" stroke="#2E353A" stroke-width="0.972732" stroke-miterlimit="10"/>
<path d="M356.92 236.338H213.049V256.322H356.92V236.338Z" fill="white" stroke="#2E353A" stroke-width="0.972732" stroke-miterlimit="10"/>
<path d="M360.427 236.338H216.556V256.322H360.427V236.338Z" fill="white" stroke="#2E353A" stroke-width="0.972732" stroke-miterlimit="10"/>
<path d="M218.909 256.322H231.117L237.426 236.338H225.218L218.909 256.322Z" fill="#2E353A"/>
<path d="M267.245 236.338H255.027L248.719 256.322H260.936L267.245 236.338Z" fill="#2E353A"/>
<path d="M356.682 236.338H344.464L338.156 256.322H350.373L356.682 236.338Z" fill="#2E353A"/>
<path d="M326.863 236.338H314.655L308.346 256.322H320.554L326.863 236.338Z" fill="#2E353A"/>
<path d="M297.054 236.338H284.836L278.528 256.322H290.745L297.054 236.338Z" fill="#2E353A"/>
<path d="M359.636 245.21H335.83" stroke="#2E353A" stroke-miterlimit="10"/>
<path d="M359.216 248.546H355.462" stroke="#2E353A" stroke-miterlimit="10"/>
<path d="M215.946 247.717H239.751" stroke="#2E353A" stroke-miterlimit="10"/>
<path d="M216.355 243.952H246.431" stroke="#2E353A" stroke-miterlimit="10"/>
</svg>
